{
.appVersion = "3133";
.formatVersion = 3;
axes = (
{
name = wght;
tag = wght;
}
);
customParameters = (
{
name = "Write lastChange";
value = 0;
},
{
name = "Use Typo Metrics";
value = 1;
},
{
name = fsType;
value = (
);
}
);
date = "2022-02-27 10:52:09 +0000";
familyName = "Edu NSW ACT Foundation";
featurePrefixes = (
{
automatic = 1;
code = "languagesystem DFLT dflt;
";
name = Languagesystems;
}
);
features = (
{
automatic = 1;
code = "feature c2sc;
feature smcp;
feature ss01;
";
tag = aalt;
},
{
automatic = 1;
code = "sub A by a.sc;
sub B by b.sc;
sub C by c.sc;
sub D by d.sc;
sub E by e.sc;
sub F by f.sc;
sub G by g.sc;
sub H by h.sc;
sub I by i.sc;
sub J by j.sc;
sub K by k.sc;
sub L by l.sc;
sub M by m.sc;
sub N by n.sc;
sub O by o.sc;
sub P by p.sc;
sub Q by q.sc;
sub R by r.sc;
sub S by s.sc;
sub T by t.sc;
sub U by u.sc;
sub V by v.sc;
sub W by w.sc;
sub X by x.sc;
sub Y by y.sc;
sub Z by z.sc;
sub zero by zero.sc;
sub one by one.sc;
sub two by two.sc;
sub three by three.sc;
sub four by four.sc;
sub five by five.sc;
sub six by six.sc;
sub seven by seven.sc;
sub eight by eight.sc;
sub nine by nine.sc;
sub exclam by exclam.sc;
sub exclamdown by exclamdown.sc;
sub question by question.sc;
sub questiondown by questiondown.sc;
sub asterisk by asterisk.sc;
sub quotedbl by quotedbl.sc;
sub quotesingle by quotesingle.sc;
sub degree by degree.sc;
sub asciicircum by asciicircum.sc;
sub grave by grave.sc;
";
tag = c2sc;
},
{
automatic = 1;
code = "sub a by a.sc;
sub b by b.sc;
sub c by c.sc;
sub d by d.sc;
sub e by e.sc;
sub f by f.sc;
sub g by g.sc;
sub h by h.sc;
sub i by i.sc;
sub j by j.sc;
sub k by k.sc;
sub l by l.sc;
sub m by m.sc;
sub n by n.sc;
sub o by o.sc;
sub p by p.sc;
sub q by q.sc;
sub r by r.sc;
sub s by s.sc;
sub t by t.sc;
sub u by u.sc;
sub v by v.sc;
sub w by w.sc;
sub x by x.sc;
sub y by y.sc;
sub z by z.sc;
sub zero by zero.sc;
sub one by one.sc;
sub two by two.sc;
sub three by three.sc;
sub four by four.sc;
sub five by five.sc;

glyphs = (
{
color = 6;
glyphname = A;
layers = (
{
layerId = m01;
shapes = (
{
closed = 1;
nodes = (
(4,-5,o),
(18,10,o),
(26,29,cs),
(316,693,l),
(352,743,l),
(349,760,o),
(343,772,o),
(321,772,cs),
(301,772,o),
(293,762,o),
(285,744,cs),
(-27,48,ls),
(-39,21,o),
(-33,5,o),
(-15,0,cs)
);
},
{
closed = 1;
nodes = (
(384,391,l),
(374,442,l),
(184,442,l),
(162,391,l)
);
},
{
closed = 1;
nodes = (
(457,2,o),
(463,19,o),
(460,40,cs),
(352,743,l),
(307,696,l),
(400,33,ls),
(403,14,o),
(410,-2,o),
(435,0,cs)
);
}
);
vertWidth = 0;
width = 504;
},
{
layerId = m002;
shapes = (
{
closed = 1;
nodes = (
(49,-8,o),
(86,4,o),
(101,39,cs),
(335,596,l),
(404,735,l),
(399,759,o),
(380,772,o),
(347,772,cs),
(310,772,o),
(299,759,o),
(287,732,cs),
(-7,78,ls),
(-23,44,o),
(-6,13,o),
(21,2,cs)
);
},
{
closed = 1;
nodes = (
(411,293,l),
(398,388,l),
(198,388,l),
(158,293,l)
);
},
{
closed = 1;
nodes = (
(498,5,o),
(513,31,o),
(507,72,cs),
(404,735,l),
(329,596,l),
(397,58,ls),
(403,14,o),
(426,-6,o),
(465,0,cs)
);
}
);
vertWidth = 0;
width = 573;
},
{
associatedMasterId = m01;
layerId = "CC05ECD8-6904-4D4D-92AC-3DF3C05EEB87";
name = background;
shapes = (
{
closed = 1;
nodes = (
(349,743,ls),
(354,756,o),
(343,772,o),
(321,772,cs),
(295,772,o),
(293,759,o),
(286,743,cs),
(-31,38,ls),
(-42,14,o),
(-26,0,o),
(-8,0,cs),
(15,0,o),
(21,8,o),
(30,30,cs),
(348,735,l)
);
},
{
closed = 1;
nodes = (
(366,388,l),
(356,442,l),
(200,442,l),
(177,388,l)
);
},
{
closed = 1;
nodes = (
(305,669,l),
(405,23,ls),
(406,11,o),
(411,0,o),
(437,0,c),
(459,0,o),
(465,13,o),
(462,31,cs),
(350,754,l)
);
},
{
closed = 1;
nodes = (
(349,743,ls),
(354,756,o),
(343,772,o),
(321,772,cs),
(295,772,o),
(293,759,o),
(286,743,cs),
(-31,38,ls),
(-42,14,o),
(-26,0,o),
(-8,0,cs),
(15,0,o),
(21,8,o),
(30,30,cs),
(348,735,l)
);
},
{
closed = 1;
nodes = (
(366,388,l),
(356,442,l),
(200,442,l),
(177,388,l)
);
},
{
closed = 1;
nodes = (
(305,669,l),
(405,23,ls),
(406,11,o),
(411,0,o),
(437,0,c),
(459,0,o),
(465,13,o),
(462,31,cs),
(350,754,l)
);
}
);
vertWidth = 0;
width = 594;
},
{
associatedMasterId = m002;
layerId = "11FF2575-6263-44BF-95EA-B853E43D43A6";
name = background;
shapes = (
{
closed = 1;
nodes = (
(426,718,l),
(430,748,o),
(404,772,o),
(367,772,cs),
(327,772,o),
(318,756,o),
(309,732,c),
(14,78,ls),
(-1,44,o),
(15,13,o),
(43,2,cs),
(70,-8,o),
(108,4,o),
(122,39,cs),
(350,584,l)
);
},
{
closed = 1;
nodes = (
(390,347,l),
(373,442,l),
(274,442,l),
(234,347,l)
);
},
{
closed = 1;
nodes = (
(343,601,l),
(418,58,ls),
(424,14,o),
(448,-6,o),
(486,0,cs),
(519,5,o),
(535,31,o),
(529,72,cs),
(425,735,l)
);
}
);
vertWidth = 0;
width = 594;
}
);
unicode = 65;
},
{
color = 6;
glyphname = B;
kernLeft = H_left;
layers = (
{
layerId = m01;
shapes = (
{
closed = 1;
nodes = (
(539,706,o),
(402,784,o),
(144,772,c),
(137,718,l),
(371,732,o),
(473,661,o),
(463,580,cs),
(454,503,o),
(409,434,o),
(128,424,c),
(124,381,l),
(469,396,o),
(510,478,o),
(523,575,cs)
);
},
{
closed = 1;
nodes = (
(538,366,o),
(385,443,o),
(108,423,c),
(105,371,l),
(340,392,o),
(474,329,o),
(463,225,cs),
(453,124,o),
(320,55,o),
(70,55,c),
(65,0,l),
(336,0,o),
(508,82,o),
(523,216,cs)
);
},
{
closed = 1;
nodes = (
(34,17,o),
(48,0,o),
(65,0,c),
(96,34,l),
(170,735,l),
(144,772,l),
(124,771,o),
(113,762,o),
(110,740,cs),
(37,37,ls)
);
}
);
vertWidth = 0;
width = 575;
},
{
layerId = m002;
shapes = (
{
closed = 1;
nodes = (
(612,707,o),
(465,784,o),
(192,772,c),
(177,664,l),
(387,676,o),
(481,618,o),
(473,551,cs),
(465,488,o),
(424,437,o),
(176,429,c),
(168,356,l),
(533,371,o),
(575,453,o),
(593,575,cs)
);
},
{
closed = 1;
nodes = (
(607,366,o),
(447,448,o),
(158,428,c),
(149,334,l),
(359,349,o),
(479,304,o),
(469,232,cs),
(460,163,o),
(346,115,o),
(122,115,c),
(113,0,l),
(396,0,o),
(576,82,o),
(592,216,cs)
);
},
{
closed = 1;
nodes = (
(53,27,o),
(77,0,o),
(113,0,c),
(169,34,l),
(240,710,l),
(195,772,l),
(153,772,o),
(132,764,o),
(127,715,cs),
(57,63,ls)
);
}
);
vertWidth = 0;
width = 642;
},
{
associatedMasterId = m01;
layerId = "B07E2D77-9B76-46A5-9AD8-52245F6FEE2E";
name = background;
shapes = (
{
closed = 1;
nodes = (
(470,356,o),
(498,436,o),
(512,564,cs),
(527,704,o),
(400,772,o),
(133,772,c),
(126,718,l),
(347,718,o),
(463,671,o),
(453,567,cs),
(443,481,o),
(434,416,o),
(116,416,c),
(110,356,l)
);
},
{
closed = 1;
nodes = (
(397,0,o),
(486,37,o),
(500,171,cs),
(516,321,o),
(361,416,o),
(112,416,c),
(107,356,l),
(333,356,o),
(451,284,o),
(441,179,cs),
(430,78,o),
(305,55,o),
(56,55,c),
(51,0,l)
);
},
{
closed = 1;
nodes = (
(162,762,o),
(156,772,o),
(133,772,cs),
(113,772,o),
(102,764,o),
(100,740,cs),
(26,37,ls),
(24,17,o),
(37,0,o),
(57,0,cs),
(74,0,o),
(83,11,o),
(86,34,cs),
(159,735,ls)
);
}
);
vertWidth = 0;
width = 594;
},
{
associatedMasterId = m002;
layerId = "41C18EEF-24E8-472E-9093-D1506CBD8D1D";
name = background;
shapes = (
{
closed = 1;
nodes = (
(498,335,o),
(526,456,o),
(537,549,cs),
(548,651,o),
(495,772,o),
(135,772,c),
(122,664,l),
(451,664,o),
(429,587,o),
(424,555,cs),
(418,517,o),
(388,425,o),
(151,425,c),
(141,335,l)
);
},
{
closed = 1;
nodes = (
(413,0,o),
(524,25,o),
(541,179,cs),
(557,339,o),
(367,425,o),
(145,425,c),
(134,335,l),
(345,335,o),
(437,286,o),
(429,200,cs),
(421,118,o),
(334,114,o),
(75,114,c),
(65,0,l)
);
},
{
closed = 1;
nodes = (
(204,764,o),
(166,772,o),
(138,772,cs),
(109,772,o),
(84,763,o),
(80,723,cs),
(10,63,ls),
(6,27,o),
(34,0,o),
(70,0,cs),
(97,0,o),
(124,13,o),
(128,52,cs),
(198,712,ls)
);
}
);
vertWidth = 0;
width = 594;
}
);
unicode = 66;
},
{
color = 6;
glyphname = C;
kernLeft = O_left;
layers = (
{
layerId = m01;
shapes = (
{
closed = 1;
nodes = (
(358,-5,o),
(450,75,o),
(487,149,cs),
(503,179,o),
(505,196,o),
(485,207,cs),
(465,217,o),
(450,204,o),
(437,177,cs),
(406,118,o),
(342,50,o),
(246,50,cs),
(132,50,o),
(80,164,o),
(122,397,cs),
(156,580,o),
(229,713,o),
(365,713,cs),
(422,713,o),
(468,680,o),
(493,662,cs),
(505,652,o),
(526,644,o),
(542,662,cs),
(557,680,o),
(548,697,o),
(537,707,cs),
(504,737,o),
(454,771,o),
(361,771,cs),
(196,771,o),
(102,611,o),
(63,404,cs),
(13,145,o),
(83,-5,o),
(251,-5,cs)
);
}
);
vertWidth = 0;
width = 567;
},
{
layerId = m002;
shapes = (
{
closed = 1;
nodes = (
(398,-5,o),
(497,65,o),
(537,138,cs),
(564,188,o),
(546,227,o),
(517,242,cs),
(487,258,o),
(460,246,o),
(446,215,cs),
(418,157,o),
(361,100,o),
(270,100,cs),
(181,100,o),
(145,194,o),
(170,393,cs),
(191,567,o),
(264,665,o),
(392,665,cs),
(438,665,o),
(487,637,o),
(512,619,cs),
(538,601,o),
(568,605,o),
(587,638,cs),
(607,674,o),
(592,709,o),
(570,725,cs),
(541,747,o),
(456,772,o),
(384,772,cs),
(198,772,o),
(86,649,o),
(50,407,cs),
(13,157,o),
(87,-5,o),
(268,-5,cs)
);
}
);
vertWidth = 0;
width = 605;
},
{
associatedMasterId = m01;
layerId = "52EFED00-95E8-43A2-983B-57F1EBD9EA9F";
name = background;
shapes = (
{
closed = 1;
nodes = (
(557,695,o),
(577,690,o),
(587,710,cs),
(596,729,o),
(584,743,o),
(573,747,cs),
(536,763,o),
(498,771,o),
(394,771,cs),
(210,771,o),
(116,606,o),
(96,402,cs),
(95,378,o),
(82,259,o),
(86,204,cs),
(93,101,o),
(134,-5,o),
(284,-5,cs),
(391,-5,o),
(486,71,o),
(520,141,cs),
(538,181,o),
(542,195,o),
(522,206,cs),
(497,217,o),
(482,203,o),
(469,176,cs),
(438,116,o),
(365,50,o),
(279,50,cs),
(171,50,o),
(150,135,o),
(145,203,cs),
(140,267,o),
(153,368,o),
(159,415,cs),
(175,575,o),
(257,716,o),
(398,716,cs),
(491,716,o),
(519,709,o),
(545,700,cs)
);
}
);
vertWidth = 0;
width = 594;
},
{
associatedMasterId = m002;
layerId = "66F140A1-F38A-450F-A5C8-1AF38644720C";
name = background;
shapes = (
{
closed = 1;
nodes = (
(444,-5,o),
(549,69,o),
(580,151,cs),
(605,223,o),
(608,261,o),
(550,276,cs),
(499,287,o),
(489,254,o),
(473,209,cs),
(453,156,o),
(390,114,o),
(308,114,cs),
(235,114,o),
(208,143,o),
(203,198,cs),
(200,261,o),
(211,368,o),
(219,412,cs),
(232,536,o),
(279,653,o),
(438,653,cs),
(473,653,o),
(531,649,o),
(576,638,cs),
(596,633,o),
(631,638,o),
(643,677,cs),
(653,714,o),
(639,737,o),
(618,746,cs),
(571,766,o),
(491,772,o),
(430,772,cs),
(192,772,o),
(115,590,o),
(97,413,cs),
(93,388,o),
(81,260,o),
(84,200,cs),
(90,124,o),
(139,-5,o),
(315,-5,cs)
);
}
);
vertWidth = 0;
width = 594;
}
);
unicode = 67;
},
{
color = 6;
glyphname = D;
kernLeft = H_left;
kernRight = O_right;
layers = (
{
layerId = m01;
shapes = (
{
closed = 1;
nodes = (
(561,625,o),
(436,772,o),
(213,772,cs),
(146,772,l),
(139,718,l),
(221,718,ls),
(398,718,o),
(498,589,o),
(478,409,cs),
(451,181,o),
(346,55,o),
(139,55,cs),
(74,55,l),
(67,0,l),
(143,0,ls),
(379,0,o),
(507,152,o),
(536,404,cs)
);
},
{
closed = 1;
nodes = (
(34,14,o),
(45,0,o),
(67,0,c),
(96,30,l),
(171,735,l),
(146,772,l),
(120,772,o),
(114,759,o),
(112,740,cs),
(37,32,ls)
);
}
);
vertWidth = 0;
width = 581;
},
{
layerId = m002;
shapes = (
{
closed = 1;
nodes = (
(634,621,o),
(499,772,o),
(271,772,cs),
(187,772,l),
(176,668,l),
(258,668,ls),
(417,668,o),
(513,581,o),
(497,403,cs),
(479,206,o),
(369,106,o),
(200,106,cs),
(131,106,l),
(116,0,l),
(207,0,ls),
(436,0,o),
(586,153,o),
(612,399,cs)
);
},
{
closed = 1;
nodes = (
(56,25,o),
(82,0,o),
(119,0,c),
(178,49,l),
(248,713,l),
(189,772,l),
(151,772,o),
(133,756,o),
(129,723,cs),
(59,58,ls)
);
}
);
vertWidth = 0;
width = 659;
},
{
associatedMasterId = m01;
layerId = "65D45964-139F-42EA-844B-768674C9B4E8";
name = background;
shapes = (
{
closed = 1;
nodes = (
(143,0,ls),
(371,0,o),
(510,152,o),
(537,417,cs),
(560,619,o),
(412,772,o),
(188,772,cs),
(146,772,l),
(139,718,l),
(196,718,ls),
(385,718,o),
(495,581,o),
(479,416,cs),
(454,184,o),
(331,55,o),
(139,55,cs),
(74,55,l),
(67,0,l)
);
},
{
closed = 1;
nodes = (
(173,757,o),
(171,772,o),
(146,772,cs),
(120,772,o),
(114,759,o),
(112,740,cs),
(37,32,ls),
(34,14,o),
(45,0,o),
(67,0,cs),
(93,0,o),
(95,18,o),
(96,30,cs),
(171,735,ls)
);
}
);
vertWidth = 0;
width = 594;
}
);
unicode = 68;
},
{
color = 6;
glyphname = E;
kernLeft = H_left;
layers = (
{
layerId = m01;
shapes = (
{
closed = 1;
nodes = (
(34,14,o),
(45,0,o),
(67,0,c),
(96,30,l),
(171,735,l),
(146,772,l),
(120,772,o),
(114,759,o),
(112,740,c),
(37,32,ls)
);
},
{
closed = 1;
nodes = (
(472,43,o),
(463,55,o),
(440,55,cs),
(72,55,l),
(67,0,l),
(440,0,ls),
(463,0,o),
(472,14,o),
(472,29,cs)
);
},
{
closed = 1;
nodes = (
(486,430,o),
(476,443,o),
(453,443,cs),
(112,443,l),
(106,388,l),
(450,388,ls),
(474,388,o),
(486,402,o),
(486,416,cs)
);
},
{
closed = 1;
nodes = (
(548,759,o),
(539,772,o),
(516,772,cs),
(146,772,l),
(139,718,l),
(516,718,ls),
(539,718,o),
(548,731,o),
(548,745,cs)
);
}
);
vertWidth = 0;
width = 545;
},
{
layerId = m002;
shapes = (
{
closed = 1;
nodes = (
(56,26,o),
(71,0,o),
(113,0,c),
(177,48,l),
(247,709,l),
(190,772,l),
(153,772,o),
(133,759,o),
(129,726,cs),
(59,59,ls)
);
},
{
closed = 1;
nodes = (
(557,90,o),
(535,113,o),
(497,113,cs),
(122,113,l),
(113,0,l),
(501,0,ls),
(537,0,o),
(557,31,o),
(557,62,cs)
);
},
{
closed = 1;
nodes = (
(565,424,o),
(539,443,o),
(504,443,cs),
(163,443,l),
(151,342,l),
(505,342,ls),
(543,342,o),
(565,365,o),
(565,393,cs)
);
},
{
closed = 1;
nodes = (
(628,750,o),
(604,772,o),
(567,772,cs),
(190,772,l),
(184,659,l),
(571,659,ls),
(607,659,o),
(628,689,o),
(628,720,cs)
);
}
);
vertWidth = 0;
width = 631;
}
);
unicode = 69;
},
{
color = 6;
glyphname = F;
kernLeft = H_left;
layers = (
{
layerId = m01;
shapes = (
{
closed = 1;
nodes = (
(93,0,o),
(95,18,o),
(96,30,c),
(171,735,l),
(146,772,l),
(120,772,o),
(114,759,o),
(112,740,cs),
(37,32,ls),
(34,14,o),
(45,0,o),
(67,0,cs)
);
},
{
closed = 1;
nodes = (
(475,430,o),
(466,443,o),
(442,443,cs),
(114,443,l),
(107,388,l),
(442,388,ls),
(466,388,o),
(475,402,o),
(475,416,cs)
);
},
{
closed = 1;
nodes = (
(548,759,o),
(539,772,o),
(516,772,cs),
(146,772,l),
(140,718,l),
(516,718,ls),
(539,718,o),
(548,731,o),
(548,745,cs)
);
}
);
vertWidth = 0;
width = 518;
},
{
layerId = m002;
shapes = (
{
closed = 1;
nodes = (
(154,0,o),
(175,25,o),
(178,61,c),
(247,709,l),
(188,772,l),
(151,772,o),
(133,758,o),
(129,725,cs),
(59,64,ls),
(56,32,o),
(72,0,o),
(106,0,cs)
);
},
{
closed = 1;
nodes = (
(575,426,o),
(550,446,o),
(514,446,cs),
(151,446,l),
(140,345,l),
(520,345,ls),
(558,345,o),
(575,367,o),
(575,396,cs)
);
},
{
closed = 1;
nodes = (
(645,751,o),
(620,772,o),
(583,772,cs),
(189,772,l),
(173,659,l),
(584,659,ls),
(620,659,o),
(645,683,o),
(645,718,cs)
);
}
);
vertWidth = 0;
width = 647;
}
);
unicode = 70;
},
{
color = 6;
glyphname = G;
kernLeft = O_left;
layers = (
{
layerId = m01;
shapes = (
{
closed = 1;
nodes = (
(342,-5,o),
(437,95,o),
(519,343,c),
(519,416,l),
(499,416,o),
(495,404,o),
(488,388,cs),
(404,191,o),
(339,50,o),
(233,50,cs),
(129,50,o),
(86,197,o),
(119,397,cs),
(146,560,o),
(244,715,o),
(375,715,cs),
(443,715,o),
(493,671,o),
(519,644,cs),
(532,631,o),
(549,628,o),
(562,640,cs),
(576,653,o),
(577,672,o),
(565,688,cs),
(535,728,o),
(465,772,o),
(384,772,cs),
(207,772,o),
(95,592,o),
(61,405,cs),
(17,168,o),
(82,-5,o),
(222,-5,cs)
);
},
{
closed = 1;
nodes = (
(510,-1,o),
(514,19,o),
(517,43,cs),
(552,384,ls),
(555,404,o),
(539,416,o),
(519,416,c),
(493,384,l),
(457,43,ls),
(455,18,o),
(459,1,o),
(482,0,cs)
);
}
);
vertWidth = 0;
width = 613;
},
{
layerId = m002;
shapes = (
{
closed = 1;
nodes = (
(352,-5,o),
(437,191,o),
(510,339,c),
(512,440,l),
(467,440,o),
(462,429,o),
(400,322,cs),
(364,258,o),
(271,101,o),
(225,101,cs),
(165,101,o),
(145,203,o),
(168,391,cs),
(187,549,o),
(226,664,o),
(361,664,cs),
(419,664,o),
(454,645,o),
(466,615,cs),
(481,579,o),
(507,565,o),
(546,576,cs),
(579,584,o),
(587,618,o),
(579,647,cs),
(557,732,o),
(469,772,o),
(361,772,cs),
(171,772,o),
(81,631,o),
(48,406,cs),
(12,165,o),
(46,-5,o),
(217,-5,cs)
);
},
{
closed = 1;
nodes = (
(519,0,o),
(531,21,o),
(535,50,cs),
(570,380,ls),
(574,417,o),
(549,440,o),
(512,440,c),
(450,388,l),
(416,58,ls),
(412,21,o),
(437,0,o),
(478,0,cs)
);
}
);
vertWidth = 0;
width = 636;
},
{
associatedMasterId = m002;
layerId = "38D35BBD-0824-4139-A76A-CF2BFBC65422";
name = background;
shapes = (
{
closed = 1;
nodes = (
(491,440,o),
(485,429,o),
(423,322,cs),
(386,258,o),
(293,101,o),
(247,101,cs),
(214,101,o),
(207,135,o),
(203,184,cs),
(198,254,o),
(210,361,o),
(216,421,cs),
(228,529,o),
(247,665,o),
(443,665,cs),
(470,665,o),
(497,637,o),
(501,617,cs),
(511,579,o),
(554,570,o),
(582,577,cs),
(614,587,o),
(623,619,o),
(614,649,cs),
(593,733,o),
(516,772,o),
(435,772,cs),
(156,772,o),
(114,579,o),
(95,405,cs),
(93,381,o),
(80,252,o),
(84,179,cs),
(90,94,o),
(126,-5,o),
(240,-5,cs),
(353,-5,o),
(457,182,o),
(532,315,c),
(536,440,l)
);
},
{
closed = 1;
nodes = (
(596,417,o),
(571,440,o),
(535,440,cs),
(488,440,o),
(475,407,o),
(473,388,cs),
(438,58,ls),
(435,21,o),
(460,0,o),
(500,0,cs),
(542,0,o),
(554,21,o),
(557,50,cs),
(593,380,ls)
);
}
);
vertWidth = 0;
width = 594;
}
);
unicode = 71;
},
{
color = 6;
glyphname = H;
kernLeft = H_left;
kernRight = H_right;
layers = (
{
layerId = m01;
shapes = (
{
closed = 1;
nodes = (
(93,0,o),
(95,18,o),
(96,30,cs),
(171,735,ls),
(173,757,o),
(166,772,o),
(146,772,cs),
(124,772,o),
(114,759,o),
(112,740,cs),
(37,32,ls),
(34,14,o),
(45,0,o),
(67,0,cs)
);
},
{
closed = 1;
nodes = (
(500,388,l),
(506,443,l),
(115,443,l),
(109,388,l)
);
},
{
closed = 1;
nodes = (
(488,0,o),
(494,15,o),
(495,26,cs),
(571,738,ls),
(574,758,o),
(565,772,o),
(542,772,cs),
(520,772,o),
(513,758,o),
(512,746,cs),
(436,32,ls),
(435,18,o),
(438,0,o),
(466,0,cs)
);
}
);
vertWidth = 0;
width = 614;
},
{
layerId = m002;
shapes = (
{
closed = 1;
nodes = (
(159,0,o),
(176,24,o),
(178,48,cs),
(246,709,ls),
(251,751,o),
(229,772,o),
(195,772,cs),
(163,772,o),
(132,757,o),
(128,723,cs),
(59,58,ls),
(56,25,o),
(81,0,o),
(119,0,cs)
);
},
{
closed = 1;
nodes = (
(544,347,l),
(554,442,l),
(162,442,l),
(152,347,l)
);
},
{
closed = 1;
nodes = (
(549,0,o),
(573,20,o),
(575,44,cs),
(645,712,ls),
(649,750,o),
(624,772,o),
(587,772,cs),
(554,772,o),
(530,754,o),
(527,728,cs),
(457,58,ls),
(454,24,o),
(475,0,o),
(514,0,cs)
);
}
);
vertWidth = 0;
width = 707;
}
);
unicode = 72;
},
{
color = 6;
glyphname = I;
layers = (
{
layerId = m01;
shapes = (
{
closed = 1;
nodes = (
(116,0,o),
(119,18,o),
(120,30,cs),
(195,735,ls),
(197,757,o),
(194,772,o),
(170,772,cs),
(146,772,o),
(138,759,o),
(135,740,cs),
(61,32,ls),
(58,14,o),
(69,0,o),
(90,0,cs)
);
}
);
vertWidth = 0;
width = 261;
},
{
layerId = m002;
shapes = (
{
closed = 1;
nodes = (
(172,0,o),
(196,21,o),
(198,46,cs),
(268,709,ls),
(273,759,o),
(244,772,o),
(214,772,cs),
(179,772,o),
(154,757,o),
(151,723,cs),
(81,58,ls),
(77,25,o),
(96,0,o),
(132,0,cs)
);
}
);
vertWidth = 0;
width = 355;
}
);
unicode = 73;
},
{
color = 6;
glyphname = J;
kernRight = H_right;
layers = (
{
layerId = m01;
shapes = (
{
closed = 1;
nodes = (
(-20,108,o),
(-17,91,o),
(-6,77,cs),
(29,33,o),
(77,0,o),
(141,0,cs),
(261,0,o),
(320,68,o),
(337,244,cs),
(388,740,ls),
(391,762,o),
(386,777,o),
(362,777,cs),
(339,777,o),
(331,764,o),
(329,745,cs),
(278,244,ls),
(264,105,o),
(219,55,o),
(141,55,cs),
(91,55,o),
(62,84,o),
(38,114,cs),
(25,131,o),
(7,135,o),
(-6,122,cs)
);
}
);
vertWidth = 0;
width = 432;
},
{
layerId = m002;
shapes = (
{
closed = 1;
nodes = (
(-23,127,o),
(-18,93,o),
(-1,75,cs),
(20,52,o),
(67,-5,o),
(173,-5,cs),
(289,-5,o),
(377,64,o),
(394,229,cs),
(446,709,ls),
(450,759,o),
(422,772,o),
(392,772,cs),
(358,772,o),
(333,757,o),
(329,723,cs),
(280,258,ls),
(267,127,o),
(232,101,o),
(169,101,cs),
(132,101,o),
(100,140,o),
(82,158,cs),
(59,181,o),
(13,177,o),
(-5,152,cs)
);
}
);
vertWidth = 0;
width = 495;
},
{
associatedMasterId = m01;
layerId = "9959F246-042E-4193-B1B9-CF1C12FB95A6";
name = background;
shapes = (
{
closed = 1;
nodes = (
(340,244,ls),
(334,187,o),
(323,125,o),
(287,90,cs),
(266,68,o),
(232,55,o),
(191,55,cs),
(160,55,o),
(132,76,o),
(109,105,cs),
(94,125,o),
(69,134,o),
(56,122,cs),
(38,107,o),
(44,91,o),
(67,65,cs),
(96,31,o),
(139,0,o),
(195,0,cs),
(255,0,o),
(298,15,o),
(328,44,cs),
(372,86,o),
(390,156,o),
(399,244,cs),
(450,740,ls),
(453,762,o),
(448,777,o),
(424,777,cs),
(400,777,o),
(393,764,o),
(391,745,cs)
);
}
);
vertWidth = 0;
width = 594;
},
{
associatedMasterId = m002;
layerId = "134A83CF-652C-4B20-B6C4-B0C20135E8F6";
name = background;
shapes = (
{
closed = 1;
nodes = (
(333,328,ls),
(324,253,o),
(326,181,o),
(291,145,cs),
(271,122,o),
(233,112,o),
(208,112,cs),
(165,112,o),
(135,140,o),
(124,151,cs),
(100,173,o),
(56,175,o),
(34,141,cs),
(23,125,o),
(27,93,o),
(44,75,cs),
(65,52,o),
(112,-5,o),
(219,-5,cs),
(284,-5,o),
(343,24,o),
(386,70,cs),
(440,127,o),
(438,219,o),
(449,318,cs),
(491,709,ls),
(495,759,o),
(467,772,o),
(437,772,cs),
(403,772,o),
(378,757,o),
(374,723,cs)
);
}
);
vertWidth = 0;
width = 594;
}
);
unicode = 74;
},
{
color = 6;
glyphname = K;
kernLeft = H_left;
layers = (
{
layerId = m01;
shapes = (
{
closed = 1;
nodes = (
(537,773,o),
(525,769,o),
(511,757,cs),
(134,428,l),
(135,413,l),
(203,409,l),
(551,713,ls),
(564,725,o),
(571,735,o),
(573,746,cs),
(573,760,o),
(563,772,o),
(548,772,cs)
);
},
{
closed = 1;
nodes = (
(481,0,o),
(493,7,o),
(495,20,cs),
(497,29,o),
(495,38,o),
(486,50,cs),
(202,421,l),
(134,423,l),
(135,410,l),
(432,23,ls),
(441,11,o),
(454,0,o),
(469,0,cs)
);
},
{
closed = 1;
nodes = (
(93,0,o),
(96,21,o),
(97,37,cs),
(172,735,ls),
(175,757,o),
(170,772,o),
(147,772,cs),
(124,772,o),
(115,759,o),
(113,740,cs),
(38,38,ls),
(36,20,o),
(46,0,o),
(68,0,cs)
);
}
);
vertWidth = 0;
width = 535;
},
{
layerId = m002;
shapes = (
{
closed = 1;
nodes = (
(570,772,o),
(554,765,o),
(536,750,cs),
(169,425,l),
(172,387,l),
(284,380,l),
(615,668,ls),
(631,682,o),
(644,697,o),
(645,715,cs),
(646,743,o),
(624,772,o),
(589,772,cs)
);
},
{
closed = 1;
nodes = (
(539,0,o),
(565,12,o),
(569,37,cs),
(571,52,o),
(569,71,o),
(556,88,cs),
(287,437,l),
(168,454,l),
(171,402,l),
(456,30,ls),
(470,11,o),
(493,0,o),
(516,0,cs)
);
},
{
closed = 1;
nodes = (
(156,0,o),
(172,23,o),
(176,53,cs),
(246,709,ls),
(251,756,o),
(220,772,o),
(191,772,cs),
(160,772,o),
(132,757,o),
(128,723,cs),
(57,64,ls),
(53,29,o),
(81,0,o),
(119,0,cs)
);
}
);
vertWidth = 0;
width = 627;
}
);
unicode = 75;
},
{
color = 6;
glyphname = L;
kernLeft = H_left;
layers = (
{
layerId = m01;
shapes = (
{
closed = 1;
nodes = (
(34,14,o),
(45,0,o),
(67,0,c),
(96,30,l),
(171,735,ls),
(173,757,o),
(170,772,o),
(146,772,cs),
(122,772,o),
(114,759,o),
(112,740,cs),
(37,32,ls)
);
},
{
closed = 1;
nodes = (
(455,48,o),
(444,59,o),
(423,59,cs),
(72,59,l),
(67,0,l),
(424,0,ls),
(446,0,o),
(455,15,o),
(455,31,cs)
);
}
);
vertWidth = 0;
width = 486;
},
{
layerId = m002;
shapes = (
{
closed = 1;
nodes = (
(53,25,o),
(72,0,o),
(108,0,c),
(175,46,l),
(245,709,ls),
(249,759,o),
(220,772,o),
(190,772,cs),
(156,772,o),
(131,757,o),
(127,723,cs),
(57,58,ls)
);
},
{
closed = 1;
nodes = (
(539,83,o),
(512,108,o),
(476,108,cs),
(120,108,l),
(108,0,l),
(484,0,ls),
(519,0,o),
(539,26,o),
(539,55,cs)
);
}
);
vertWidth = 0;
width = 570;
}
);
unicode = 76;
},
{
color = 6;
glyphname = M;
kernLeft = H_left;
kernRight = H_right;
layers = (
{
layerId = m01;
shapes = (
{
closed = 1;
nodes = (
(388,11,o),
(399,0,o),
(416,0,c),
(425,80,l),
(178,741,ls),
(171,762,o),
(164,772,o),
(146,772,c),
(140,674,l),
(384,23,ls)
);
},
{
closed = 1;
nodes = (
(93,0,o),
(95,19,o),
(96,33,cs),
(170,727,l),
(146,772,l),
(127,772,o),
(114,762,o),
(112,740,cs),
(37,32,ls),
(34,14,o),
(45,0,o),
(67,0,cs)
);
},
{
closed = 1;
nodes = (
(791,0,o),
(795,18,o),
(796,30,cs),
(871,735,ls),
(873,757,o),
(868,772,o),
(847,772,c),
(804,676,l),
(737,32,ls),
(735,18,o),
(743,0,o),
(765,0,c)
);
},
{
closed = 1;
nodes = (
(841,687,l),
(847,772,l),
(828,772,o),
(823,766,o),
(815,753,cs),
(407,74,l),
(416,0,l),
(432,0,o),
(436,10,o),
(443,21,cs)
);
}
);
vertWidth = 0;
width = 914;
},
{
layerId = m002;
shapes = (
{
closed = 1;
nodes = (
(406,15,o),
(431,0,o),
(474,0,c),
(485,119,l),
(260,729,ls),
(249,760,o),
(225,772,o),
(189,772,c),
(191,592,l),
(392,55,ls)
);
},
{
closed = 1;
nodes = (
(153,0,o),
(176,23,o),
(178,50,cs),
(234,592,l),
(189,772,l),
(151,772,o),
(132,756,o),
(128,723,cs),
(59,58,ls),
(56,25,o),
(80,0,o),
(114,0,cs)
);
},
{
closed = 1;
nodes = (
(860,0,o),
(877,23,o),
(879,48,cs),
(948,709,ls),
(952,747,o),
(933,772,o),
(893,772,c),
(813,551,l),
(760,53,ls),
(757,23,o),
(782,0,o),
(820,0,cs)
);
},
{
closed = 1;
nodes = (
(846,561,l),
(893,772,l),
(853,772,o),
(836,762,o),
(817,729,cs),
(462,122,l),
(474,0,l),
(517,0,o),
(533,25,o),
(549,51,c)
);
}
);
vertWidth = 0;
width = 1010;
}
);
unicode = 77;
},
{
color = 6;
glyphname = N;
kernLeft = H_left;
kernRight = H_right;
layers = (
{
layerId = m01;
shapes = (
{
closed = 1;
nodes = (
(523,8,o),
(533,0,o),
(549,0,c),
(551,80,l),
(183,748,ls),
(176,762,o),
(166,772,o),
(145,772,c),
(141,706,l),
(516,21,ls)
);
},
{
closed = 1;
nodes = (
(93,0,o),
(95,19,o),
(96,33,cs),
(170,727,l),
(145,772,l),
(120,772,o),
(114,759,o),
(112,740,cs),
(37,32,ls),
(34,14,o),
(45,0,o),
(67,0,cs)
);
},
{
closed = 1;
nodes = (
(602,772,o),
(594,759,o),
(592,740,cs),
(519,57,l),
(549,0,l),
(570,0,o),
(574,11,o),
(576,30,cs),
(651,735,ls),
(653,757,o),
(649,772,o),
(626,772,cs)
);
}
);
vertWidth = 0;
width = 694;
},
{
layerId = m002;
shapes = (
{
closed = 1;
nodes = (
(524,12,o),
(542,0,o),
(571,0,c),
(577,151,l),
(252,738,ls),
(238,763,o),
(216,772,o),
(189,772,c),
(156,676,l),
(512,33,ls)
);
},
{
closed = 1;
nodes = (
(152,0,o),
(175,23,o),
(177,50,cs),
(245,703,l),
(189,772,l),
(151,772,o),
(131,756,o),
(127,723,cs),
(58,58,ls),
(55,25,o),
(78,0,o),
(113,0,cs)
);
},
{
closed = 1;
nodes = (
(605,776,o),
(580,757,o),
(576,723,cs),
(513,125,l),
(571,0,l),
(612,0,o),
(623,23,o),
(625,48,cs),
(694,709,ls),
(697,747,o),
(677,776,o),
(638,776,cs)
);
}
);
vertWidth = 0;
width = 757;
}
);
unicode = 78;
},
{
color = 6;
glyphname = O;
kernLeft = O_left;
kernRight = O_right;
layers = (
{
layerId = m01;
shapes = (
{
closed = 1;
nodes = (
(399,-5,o),
(522,293,o),
(545,517,cs),
(560,651,o),
(486,772,o),
(342,772,cs),
(153,772,o),
(70,538,o),
(70,327,cs),
(70,153,o),
(108,-5,o),
(208,-5,cs)
);
},
{
closed = 1;
nodes = (
(154,50,o),
(125,182,o),
(129,328,cs),
(134,511,o),
(192,718,o),
(336,718,cs),
(451,718,o),
(498,630,o),
(485,505,cs),
(467,335,o),
(361,50,o),
(203,50,cs)
);
}
);
vertWidth = 0;
width = 590;
},
{
layerId = m002;
shapes = (
{
closed = 1;
nodes = (
(406,-5,o),
(573,252,o),
(599,510,cs),
(613,651,o),
(522,775,o),
(355,775,cs),
(184,775,o),
(64,619,o),
(64,326,cs),
(64,143,o),
(97,-5,o),
(239,-5,cs)
);
},
{
closed = 1;
nodes = (
(190,102,o),
(183,222,o),
(183,328,cs),
(183,520,o),
(247,668,o),
(358,668,cs),
(455,668,o),
(488,602,o),
(479,507,cs),
(462,334,o),
(331,102,o),
(251,102,cs)
);
}
);
vertWidth = 0;
width = 651;
},
{
associatedMasterId = m01;
layerId = "20C156BE-152D-4B18-BA16-9023BA2DA609";
name = background;
shapes = (
{
closed = 1;
nodes = (
(399,-5,o),
(522,293,o),
(545,517,cs),
(560,651,o),
(486,772,o),
(334,772,cs),
(188,772,o),
(125,662,o),
(87,486,cs),
(77,438,o),
(70,383,o),
(70,330,cs),
(67,170,o),
(105,-5,o),
(208,-5,cs)
);
},
{
closed = 1;
nodes = (
(147,50,o),
(129,211,o),
(129,318,cs),
(131,368,o),
(134,422,o),
(143,461,cs),
(176,625,o),
(226,718,o),
(329,718,cs),
(473,718,o),
(495,607,o),
(485,505,cs),
(465,312,o),
(347,50,o),
(203,50,cs)
);
}
);
vertWidth = 0;
width = 594;
},
{
associatedMasterId = m002;
layerId = "FECD28BB-41F6-409F-998E-C3EA8BC308B1";
name = background;
shapes = (
{
closed = 1;
nodes = (
(434,-5,o),
(582,287,o),
(605,510,cs),
(619,651,o),
(513,775,o),
(361,775,cs),
(209,775,o),
(125,659,o),
(87,487,cs),
(77,440,o),
(70,386,o),
(70,336,cs),
(68,178,o),
(89,-5,o),
(232,-5,cs)
);
},
{
closed = 1;
nodes = (
(194,102,o),
(188,222,o),
(189,320,cs),
(189,366,o),
(194,413,o),
(201,449,cs),
(232,600,o),
(272,668,o),
(364,668,cs),
(487,668,o),
(492,575,o),
(485,507,cs),
(466,334,o),
(335,102,o),
(244,102,cs)
);
}
);
vertWidth = 0;
width = 594;
}
);
unicode = 79;
},
{
color = 6;
glyphname = P;
kernLeft = H_left;
layers = (
{
layerId = m01;
shapes = (
{
closed = 1;
nodes = (
(548,704,o),
(392,785,o),
(146,772,c),
(143,718,l),
(364,732,o),
(484,662,o),
(474,567,cs),
(461,442,o),
(316,402,o),
(109,403,c),
(105,349,l),
(334,348,o),
(517,399,o),
(533,561,cs)
);
},
{
closed = 1;
nodes = (
(93,-5,o),
(95,18,o),
(96,30,c),
(171,735,l),
(146,772,l),
(122,772,o),
(114,760,o),
(112,740,cs),
(37,32,ls),
(34,14,o),
(45,-5,o),
(67,-5,cs)
);
}
);
vertWidth = 0;
width = 517;
},
{
layerId = m002;
shapes = (
{
closed = 1;
nodes = (
(600,715,o),
(432,779,o),
(182,775,c),
(190,666,l),
(406,670,o),
(472,636,o),
(463,561,cs),
(451,454,o),
(298,426,o),
(168,424,c),
(157,317,l),
(336,320,o),
(560,343,o),
(582,555,cs)
);
},
{
closed = 1;
nodes = (
(157,-7,o),
(173,20,o),
(176,46,c),
(245,709,l),
(182,775,l),
(151,775,o),
(131,757,o),
(127,723,cs),
(57,57,ls),
(53,25,o),
(77,-7,o),
(116,-7,cs)
);
}
);
vertWidth = 0;
width = 583;
},
{
associatedMasterId = m01;
layerId = "02DD8EBC-8F3A-4034-A466-F24C24D63358";
name = background;
shapes = (
{
closed = 1;
nodes = (
(329,361,o),
(512,381,o),
(531,565,cs),
(545,709,o),
(383,772,o),
(150,772,c),
(153,718,l),
(368,718,o),
(482,666,o),
(472,571,cs),
(457,436,o),
(301,416,o),
(129,416,c),
(125,361,l)
);
},
{
closed = 1;
nodes = (
(172,757,o),
(170,772,o),
(145,772,cs),
(119,772,o),
(113,759,o),
(110,740,cs),
(36,32,ls),
(33,14,o),
(44,-5,o),
(65,-5,cs),
(91,-5,o),
(94,18,o),
(95,30,cs),
(170,735,ls)
);
}
);
vertWidth = 0;
width = 594;
}
);
unicode = 80;
},
{
color = 6;
glyphname = Q;
kernLeft = O_left;
kernRight = O_right;
layers = (
{
layerId = m01;
shapes = (
{
closed = 1;
nodes = (
(461,-38,o),
(456,-15,o),
(440,1,cs),
(279,154,ls),
(260,172,o),
(235,179,o),
(223,164,c),
(211,151,o),
(216,132,o),
(236,113,cs),
(397,-40,ls),
(413,-56,o),
(436,-61,o),
(448,-49,cs)
);
},
{
closed = 1;
nodes = (
(390,-5,o),
(522,293,o),
(545,517,cs),
(560,651,o),
(486,772,o),
(342,772,cs),
(153,772,o),
(70,538,o),
(70,327,cs),
(70,153,o),
(108,-5,o),
(208,-5,cs)
);
},
{
closed = 1;
nodes = (
(154,50,o),
(125,182,o),
(129,328,cs),
(134,511,o),
(192,718,o),
(336,718,cs),
(451,718,o),
(498,630,o),
(485,505,cs),
(467,335,o),
(371,50,o),
(203,50,cs)
);
}
);
vertWidth = 0;
width = 590;
},
{
layerId = m002;
shapes = (
{
closed = 1;
nodes = (
(524,-20,o),
(522,11,o),
(497,36,cs),
(339,188,l),
(305,214,o),
(268,216,o),
(248,191,cs),
(229,169,o),
(229,139,o),
(259,112,cs),
(413,-36,ls),
(442,-62,o),
(481,-71,o),
(503,-45,cs)
);
},
{
closed = 1;
nodes = (
(406,-5,o),
(573,252,o),
(599,510,cs),
(613,651,o),
(507,775,o),
(355,775,cs),
(184,775,o),
(64,619,o),
(64,326,cs),
(64,143,o),
(97,-5,o),
(239,-5,cs)
);
},
{
closed = 1;
nodes = (
(190,102,o),
(183,222,o),
(183,328,cs),
(183,520,o),
(247,668,o),
(358,668,cs),
(463,668,o),
(488,602,o),
(479,507,cs),
(462,334,o),
(331,102,o),
(251,102,cs)
);
}
);
vertWidth = 0;
width = 651;
},
{
associatedMasterId = m002;
layerId = "0DB79B60-F0F0-4AE5-8CEA-03AE86B091EC";
name = background;
shapes = (
{
closed = 1;
nodes = (
(525,-20,o),
(523,11,o),
(498,36,cs),
(340,188,l),
(307,214,o),
(270,216,o),
(249,191,cs),
(230,169,o),
(230,139,o),
(260,112,cs),
(415,-36,ls),
(443,-62,o),
(482,-71,o),
(504,-45,cs)
);
},
{
closed = 1;
nodes = (
(429,-5,o),
(577,287,o),
(600,510,cs),
(614,651,o),
(508,775,o),
(356,775,cs),
(204,775,o),
(120,659,o),
(82,487,cs),
(72,440,o),
(65,386,o),
(65,336,cs),
(63,178,o),
(84,-5,o),
(227,-5,cs)
);
},
{
closed = 1;
nodes = (
(189,102,o),
(183,222,o),
(184,320,cs),
(184,366,o),
(189,413,o),
(196,449,cs),
(227,600,o),
(267,668,o),
(359,668,cs),
(482,668,o),
(487,573,o),
(480,505,cs),
(461,331,o),
(330,102,o),
(239,102,cs)
);
}
);
vertWidth = 0;
width = 594;
}
);
unicode = 81;
},
{
color = 6;
glyphname = R;
kernLeft = H_left;
layers = (
{
layerId = m01;
shapes = (
{
closed = 1;
nodes = (
(535,720,o),
(400,784,o),
(146,772,c),
(154,718,l),
(368,732,o),
(474,676,o),
(463,583,cs),
(453,491,o),
(303,415,o),
(109,413,c),
(105,361,l),
(336,366,o),
(512,451,o),
(523,577,cs)
);
},
{
closed = 1;
nodes = (
(446,0,o),
(457,8,o),
(460,18,cs),
(462,27,o),
(460,40,o),
(446,59,cs),
(183,397,l),
(114,388,l),
(397,23,ls),
(409,7,o),
(424,0,o),
(434,0,cs)
);
},
{
closed = 1;
nodes = (
(93,0,o),
(95,19,o),
(97,37,c),
(171,735,l),
(146,772,l),
(120,772,o),
(114,759,o),
(112,740,cs),
(38,39,ls),
(36,19,o),
(45,0,o),
(67,0,cs)
);
}
);
vertWidth = 0;
width = 554;
},
{
layerId = m002;
shapes = (
{
closed = 1;
nodes = (
(618,739,o),
(462,786,o),
(190,772,c),
(182,669,l),
(428,684,o),
(495,657,o),
(486,569,cs),
(476,491,o),
(358,422,o),
(172,417,c),
(162,322,l),
(393,334,o),
(593,398,o),
(605,560,cs)
);
},
{
closed = 1;
nodes = (
(506,0,o),
(529,11,o),
(538,31,cs),
(545,46,o),
(548,69,o),
(536,84,cs),
(341,346,l),
(188,339,l),
(428,27,ls),
(447,2,o),
(468,0,o),
(484,0,cs)
);
},
{
closed = 1;
nodes = (
(150,0,o),
(171,21,o),
(176,63,cs),
(245,709,l),
(190,772,l),
(153,772,o),
(131,757,o),
(127,723,cs),
(58,71,ls),
(55,32,o),
(69,0,o),
(108,0,cs)
);
}
);
vertWidth = 0;
width = 628;
},
{
associatedMasterId = m01;
layerId = "10B39192-80BD-4D86-8859-A41096DFFBAE";
name = background;
shapes = (
{
closed = 1;
nodes = (
(342,361,o),
(535,381,o),
(554,565,cs),
(568,709,o),
(400,784,o),
(151,772,c),
(154,718,l),
(375,729,o),
(505,665,o),
(494,571,cs),
(480,437,o),
(312,416,o),
(121,416,c),
(116,361,l)
);
},
{
closed = 1;
nodes = (
(115,379,l),
(436,23,ls),
(449,7,o),
(459,0,o),
(468,0,cs),
(480,0,o),
(492,8,o),
(494,18,cs),
(497,27,o),
(499,40,o),
(491,50,cs),
(195,379,l)
);
},
{
closed = 1;
nodes = (
(173,757,o),
(171,772,o),
(146,772,cs),
(120,772,o),
(114,759,o),
(112,740,cs),
(38,39,ls),
(36,19,o),
(45,0,o),
(67,0,cs),
(93,0,o),
(95,19,o),
(97,37,cs),
(171,735,ls)
);
}
);
vertWidth = 0;
width = 594;
}
);
unicode = 82;
},
{
color = 6;
glyphname = S;
layers = (
{
layerId = m01;
shapes = (
{
closed = 1;
nodes = (
(320,-5,o),
(421,58,o),
(435,192,cs),
(447,307,o),
(374,384,o),
(279,438,cs),
(182,494,o),
(121,541,o),
(128,608,cs),
(135,676,o),
(201,722,o),
(314,722,cs),
(374,722,o),
(411,693,o),
(426,650,cs),
(432,634,o),
(449,627,o),
(465,632,cs),
(481,637,o),
(484,656,o),
(476,677,cs),
(457,733,o),
(404,777,o),
(311,777,cs),
(159,777,o),
(81,701,o),
(71,613,cs),
(62,518,o),
(140,449,o),
(234,396,cs),
(339,336,o),
(384,280,o),
(377,201,cs),
(367,97,o),
(284,50,o),
(201,50,cs),
(126,50,o),
(82,81,o),
(72,118,cs),
(68,138,o),
(50,145,o),
(33,140,cs),
(15,135,o),
(13,116,o),
(18,97,cs),
(33,36,o),
(100,-5,o),
(182,-5,cs)
);
}
);
vertWidth = 0;
width = 500;
},
{
layerId = m002;
shapes = (
{
closed = 1;
nodes = (
(350,-2,o),
(482,61,o),
(497,200,cs),
(512,339,o),
(422,413,o),
(341,461,cs),
(268,504,o),
(184,555,o),
(190,604,cs),
(196,649,o),
(245,672,o),
(317,672,cs),
(386,672,o),
(415,658,o),
(425,631,cs),
(438,596,o),
(469,583,o),
(504,594,cs),
(533,604,o),
(544,628,o),
(536,657,cs),
(512,743,o),
(453,778,o),
(335,778,cs),
(171,778,o),
(80,718,o),
(68,607,cs),
(56,493,o),
(187,413,o),
(264,369,cs),
(348,322,o),
(390,270,o),
(384,204,cs),
(378,145,o),
(316,112,o),
(232,112,cs),
(158,112,o),
(138,122,o),
(127,147,cs),
(112,183,o),
(72,194,o),
(43,184,cs),
(17,176,o),
(-4,150,o),
(5,121,cs),
(25,40,o),
(100,-2,o),
(233,-2,cs)
);
}
);
vertWidth = 0;
width = 557;
},
{
associatedMasterId = m002;
layerId = "978B32C5-E304-42DF-BBEA-C5F78DFF1767";
name = background;
shapes = (
{
closed = 1;
nodes = (
(204,112,o),
(184,122,o),
(177,147,cs),
(168,182,o),
(127,190,o),
(102,183,cs),
(72,176,o),
(62,150,o),
(70,121,cs),
(90,40,o),
(146,0,o),
(234,0,cs),
(397,0,o),
(524,61,o),
(541,207,cs),
(554,339,o),
(453,405,o),
(375,457,cs),
(312,500,o),
(221,548,o),
(219,581,cs),
(215,626,o),
(290,666,o),
(383,666,cs),
(435,666,o),
(455,658,o),
(461,631,cs),
(469,595,o),
(514,587,o),
(539,594,cs),
(569,604,o),
(577,628,o),
(571,657,cs),
(549,744,o),
(488,778,o),
(371,778,cs),
(207,778,o),
(96,687,o),
(103,576,cs),
(112,472,o),
(234,418,o),
(302,372,cs),
(381,316,o),
(431,270,o),
(426,219,cs),
(419,145,o),
(362,112,o),
(278,112,cs)
);
}
);
vertWidth = 0;
width = 594;
}
);
unicode = 83;
},
{
color = 6;
glyphname = T;
layers = (
{
layerId = m01;
shapes = (
{
closed = 1;
nodes = (
(197,0,o),
(204,21,o),
(207,40,cs),
(280,741,l),
(221,741,l),
(147,44,ls),
(145,20,o),
(151,0,o),
(173,0,cs)
);
},
{
closed = 1;
nodes = (
(21,728,o),
(31,713,o),
(55,713,cs),
(451,713,ls),
(475,713,o),
(480,728,o),
(480,743,cs),
(480,757,o),
(472,772,o),
(448,772,cs),
(51,772,ls),
(27,772,o),
(21,757,o),
(21,743,cs)
);
}
);
vertWidth = 0;
width = 438;
},
{
layerId = m002;
shapes = (
{
closed = 1;
nodes = (
(259,-2,o),
(278,26,o),
(280,51,cs),
(350,719,l),
(230,719,l),
(162,58,ls),
(158,25,o),
(183,-2,o),
(220,-2,cs)
);
},
{
closed = 1;
nodes = (
(32,693,o),
(58,669,o),
(96,669,cs),
(494,669,ls),
(532,669,o),
(550,693,o),
(550,721,cs),
(550,752,o),
(522,776,o),
(486,776,cs),
(88,776,ls),
(52,776,o),
(34,752,o),
(33,721,cs)
);
}
);
vertWidth = 0;
width = 529;
}
);
unicode = 84;
},
{
color = 6;
glyphname = U;
kernLeft = H_left;
kernRight = H_right;
layers = (
{
layerId = m01;
shapes = (
{
closed = 1;
nodes = (
(233,-5,o),
(391,165,o),
(492,447,c),
(503,618,l),
(489,620,l),
(434,273,o),
(204,50,o),
(145,50,cs),
(89,50,o),
(97,138,o),
(106,214,cs),
(165,735,ls),
(168,753,o),
(156,772,o),
(138,772,cs),
(119,772,o),
(107,756,o),
(105,737,cs),
(46,217,ls),
(29,62,o),
(70,-5,o),
(141,-5,cs)
);
},
{
closed = 1;
nodes = (
(470,-1,o),
(484,8,o),
(486,26,cs),
(562,741,ls),
(564,759,o),
(554,772,o),
(532,772,cs),
(511,772,o),
(504,758,o),
(503,744,cs),
(426,32,ls),
(424,10,o),
(440,-1,o),
(456,-1,cs)
);
}
);
vertWidth = 0;
width = 605;
},
{
layerId = m002;
shapes = (
{
closed = 1;
nodes = (
(301,-5,o),
(406,127,o),
(507,324,c),
(548,652,l),
(520,652,l),
(497,407,o),
(267,102,o),
(216,102,cs),
(189,102,o),
(187,149,o),
(196,232,cs),
(249,713,ls),
(253,747,o),
(227,772,o),
(192,772,cs),
(153,773,o),
(133,741,o),
(131,720,cs),
(76,232,ls),
(58,68,o),
(99,-5,o),
(200,-5,cs)
);
},
{
closed = 1;
nodes = (
(545,0,o),
(571,14,o),
(575,52,cs),
(646,715,ls),
(650,748,o),
(627,772,o),
(587,772,cs),
(554,772,o),
(530,754,o),
(527,727,cs),
(457,58,ls),
(454,19,o),
(482,0,o),
(516,0,cs)
);
}
);
vertWidth = 0;
width = 708;
},
{
associatedMasterId = m01;
layerId = "85A0CC84-4628-44F1-A8D5-F145C07A2F77";
name = background;
shapes = (
{
closed = 1;
nodes = (
(244,-5,o),
(373,140,o),
(465,336,c),
(492,388,l),
(525,618,l),
(513,618,l),
(510,605,l),
(495,555,o),
(437,417,o),
(422,380,cs),
(352,228,o),
(215,50,o),
(156,50,cs),
(100,50,o),
(108,138,o),
(116,214,cs),
(176,735,ls),
(178,753,o),
(166,772,o),
(149,772,cs),
(129,772,o),
(118,756,o),
(115,737,cs),
(57,217,ls),
(39,62,o),
(82,-5,o),
(152,-5,cs)
);
},
{
closed = 1;
nodes = (
(481,-1,o),
(494,8,o),
(497,26,cs),
(573,741,ls),
(575,759,o),
(564,772,o),
(543,772,cs),
(522,772,o),
(514,758,o),
(513,744,cs),
(437,32,ls),
(435,10,o),
(450,-1,o),
(467,-1,cs)
);
}
);
vertWidth = 0;
width = 594;
},
{
associatedMasterId = m002;
layerId = "C456C70A-B9F0-4BB4-8B22-984771EF7C04";
name = background;
shapes = (
{
closed = 1;
nodes = (
(299,-5,o),
(400,116,o),
(504,307,c),
(544,645,l),
(522,645,l),
(514,606,ls),
(495,503,o),
(461,432,o),
(441,400,cs),
(390,315,o),
(266,102,o),
(210,102,cs),
(188,102,o),
(185,149,o),
(194,220,cs),
(248,713,ls),
(252,747,o),
(226,772,o),
(191,772,cs),
(152,773,o),
(132,741,o),
(129,720,cs),
(75,232,ls),
(57,68,o),
(112,-5,o),
(198,-5,cs)
);
},
{
closed = 1;
nodes = (
(544,0,o),
(570,14,o),
(574,52,cs),
(645,715,ls),
(649,748,o),
(626,772,o),
(586,772,cs),
(552,772,o),
(529,754,o),
(526,727,cs),
(456,58,ls),
(453,19,o),
(481,0,o),
(514,0,cs)
);
}
);
vertWidth = 0;
width = 594;
}
);
unicode = 85;
},
{
color = 6;
glyphname = V;
kernLeft = V_left;
kernRight = V_right;
layers = (
{
layerId = m01;
shapes = (
{
closed = 1;
nodes = (
(531,734,ls),
(541,758,o),
(529,772,o),
(511,772,cs),
(488,772,o),
(479,763,o),
(470,743,cs),
(255,203,l),
(198,46,l),
(216,0,l),
(239,0,o),
(242,13,o),
(249,30,cs)
);
},
{
closed = 1;
nodes = (
(184,18,o),
(195,0,o),
(216,0,c),
(235,44,l),
(216,201,l),
(133,744,ls),
(131,756,o),
(126,772,o),
(100,772,c),
(78,772,o),
(71,759,o),
(74,741,cs),
(182,33,ls)
);
}
);
vertWidth = 0;
width = 533;
},
{
layerId = m002;
shapes = (
{
closed = 1;
nodes = (
(560,702,ls),
(576,743,o),
(550,772,o),
(512,772,cs),
(478,772,o),
(454,758,o),
(444,734,cs),
(287,361,l),
(200,116,l),
(225,-2,l),
(259,-2,o),
(278,18,o),
(287,40,cs)
);
},
{
closed = 1;
nodes = (
(171,23,o),
(189,-1,o),
(225,-2,c),
(268,116,l),
(238,361,l),
(179,725,ls),
(175,752,o),
(150,772,o),
(112,772,cs),
(77,772,o),
(55,753,o),
(61,718,cs),
(166,52,ls)
);
}
);
vertWidth = 0;
width = 550;
}
);
unicode = 86;
},
{
color = 6;
glyphname = W;
kernLeft = V_left;
kernRight = V_right;
layers = (
{
layerId = m01;
shapes = (
{
closed = 1;
nodes = (
(935,734,ls),
(946,759,o),
(929,772,o),
(912,772,cs),
(890,772,o),
(884,765,o),
(874,743,cs),
(668,223,l),
(621,81,l),
(618,0,l),
(640,0,o),
(645,13,o),
(652,30,cs)
);
},
{
closed = 1;
nodes = (
(184,14,o),
(198,0,o),
(215,0,c),
(227,75,l),
(210,225,l),
(133,744,ls),
(131,756,o),
(126,772,o),
(100,772,c),
(78,772,o),
(71,759,o),
(74,741,cs),
(182,33,ls)
);
},
{
closed = 1;
nodes = (
(468,588,l),
(501,701,l),
(501,772,l),
(482,772,o),
(472,757,o),
(467,744,cs),
(265,225,l),
(215,77,l),
(215,0,l),
(239,0,o),
(245,18,o),
(249,31,cs)
);
},
{
closed = 1;
nodes = (
(588,15,o),
(598,0,o),
(618,0,c),
(628,77,l),
(614,228,l),
(537,744,ls),
(535,757,o),
(530,772,o),
(501,772,c),
(489,707,l),
(503,584,l),
(586,30,ls)
);
}
);
vertWidth = 0;
width = 937;
},
{
layerId = m002;
shapes = (
{
closed = 1;
nodes = (
(962,702,ls),
(974,731,o),
(956,772,o),
(911,772,cs),
(873,772,o),
(853,748,o),
(846,732,cs),
(685,328,l),
(633,188,l),
(627,0,l),
(664,0,o),
(680,14,o),
(690,39,cs)
);
},
{
closed = 1;
nodes = (
(166,18,o),
(190,0,o),
(229,0,c),
(257,150,l),
(234,333,l),
(179,725,ls),
(176,752,o),
(151,772,o),
(113,772,cs),
(78,772,o),
(55,753,o),
(61,718,cs),
(162,52,ls)
);
},
{
closed = 1;
nodes = (
(473,489,l),
(504,584,l),
(510,772,l),
(472,772,o),
(454,753,o),
(444,727,cs),
(291,329,l),
(229,159,l),
(229,0,l),
(266,0,o),
(293,17,o),
(307,51,cs)
);
},
{
closed = 1;
nodes = (
(570,18,o),
(592,0,o),
(627,0,c),
(653,188,l),
(637,328,l),
(580,725,ls),
(575,754,o),
(551,772,o),
(510,772,c),
(489,589,l),
(499,489,l),
(567,38,ls)
);
}
);
vertWidth = 0;
width = 952;
}
);
unicode = 87;
},
{
color = 6;
glyphname = X;
layers = (
{
layerId = m01;
shapes = (
{
closed = 1;
nodes = (
(12,-4,o),
(32,-2,o),
(44,15,cs),
(270,358,l),
(277,358,l),
(516,723,ls),
(527,741,o),
(524,758,o),
(513,766,cs),
(500,776,o),
(478,775,o),
(466,757,cs),
(246,418,l),
(238,417,l),
(-7,45,ls),
(-17,31,o),
(-13,15,o),
(-1,7,cs)
);
},
{
closed = 1;
nodes = (
(444,10,o),
(453,24,o),
(444,42,cs),
(279,410,l),
(127,750,ls),
(118,772,o),
(93,777,o),
(80,771,cs),
(65,766,o),
(62,751,o),
(71,729,cs),
(234,366,l),
(387,24,ls),
(397,1,o),
(418,-4,o),
(434,4,cs)
);
}
);
vertWidth = 0;
width = 520;
},
{
layerId = m002;
shapes = (
{
closed = 1;
nodes = (
(44,-4,o),
(93,-10,o),
(110,19,cs),
(309,331,l),
(315,331,l),
(556,687,ls),
(575,715,o),
(567,740,o),
(544,759,cs),
(522,778,o),
(474,779,o),
(455,750,cs),
(263,446,l),
(257,446,l),
(10,82,ls),
(-7,57,o),
(-2,34,o),
(20,15,cs)
);
},
{
closed = 1;
nodes = (
(494,20,o),
(504,43,o),
(491,72,cs),
(328,436,l),
(192,740,ls),
(177,773,o),
(135,777,o),
(109,769,cs),
(78,757,o),
(65,733,o),
(82,696,cs),
(241,340,l),
(378,33,ls),
(393,-1,o),
(443,-7,o),
(470,7,cs)
);
}
);
vertWidth = 0;
width = 542;
}
);
unicode = 88;
},
{
color = 6;
glyphname = Y;
layers = (
{
layerId = m01;
shapes = (
{
closed = 1;
nodes = (
(70,765,o),
(68,747,o),
(76,728,cs),
(278,286,l),
(317,345,l),
(132,748,ls),
(126,763,o),
(113,781,o),
(90,772,cs)
);
},
{
closed = 1;
nodes = (
(120,-4,o),
(141,-4,o),
(152,14,cs),
(569,723,ls),
(580,741,o),
(575,759,o),
(557,769,cs),
(543,776,o),
(529,772,o),
(518,754,cs),
(102,45,ls),
(94,31,o),
(95,15,o),
(107,7,cs)
);
}
);
vertWidth = 0;
width = 580;
},
{
layerId = m002;
shapes = (
{
closed = 1;
nodes = (
(57,756,o),
(52,721,o),
(65,693,cs),
(268,265,l),
(339,373,l),
(176,737,ls),
(164,764,o),
(131,781,o),
(94,767,cs)
);
},
{
closed = 1;
nodes = (
(126,-8,o),
(176,-2,o),
(192,26,cs),
(587,687,ls),
(604,715,o),
(595,748,o),
(564,766,cs),
(539,779,o),
(500,772,o),
(481,741,cs),
(89,89,ls),
(74,64,o),
(80,30,o),
(102,11,cs)
);
}
);
vertWidth = 0;
width = 582;
},
{
associatedMasterId = m01;
layerId = "97930EFF-4ECB-41E8-9E11-FCC2E8932513";
name = background;
shapes = (
{
closed = 1;
nodes = (
(304,403,l),
(151,748,ls),
(145,763,o),
(127,778,o),
(105,770,cs),
(84,763,o),
(87,747,o),
(95,728,cs),
(270,334,l)
);
},
{
closed = 1;
nodes = (
(489,741,o),
(488,758,o),
(478,766,cs),
(465,776,o),
(438,772,o),
(430,754,cs),
(109,45,ls),
(103,31,o),
(102,15,o),
(114,7,cs),
(127,-4,o),
(152,-5,o),
(160,13,cs),
(481,723,ls)
);
}
);
vertWidth = 0;
width = 539;
}
);
unicode = 89;
},
{
color = 6;
glyphname = Z;
layers = (
{
layerId = m01;
shapes = (
{
closed = 1;
nodes = (
(-6,25,o),
(7,0,o),
(34,0,c),
(56,15,l),
(529,723,ls),
(545,750,o),
(526,772,o),
(505,772,c),
(484,756,l),
(8,46,ls)
);
},
{
closed = 1;
nodes = (
(459,44,o),
(451,59,o),
(428,59,cs),
(55,59,l),
(34,0,l),
(431,0,ls),
(455,0,o),
(461,15,o),
(460,30,cs)
);
},
{
closed = 1;
nodes = (
(78,728,o),
(87,713,o),
(110,713,cs),
(484,713,l),
(505,772,l),
(107,772,ls),
(83,772,o),
(76,757,o),
(77,743,cs)
);
}
);
vertWidth = 0;
width = 533;
},
{
layerId = m002;
shapes = (
{
closed = 1;
nodes = (
(-21,50,o),
(-1,0,o),
(51,0,c),
(93,20,l),
(549,685,ls),
(574,722,o),
(556,776,o),
(505,776,c),
(456,752,l),
(1,83,ls)
);
},
{
closed = 1;
nodes = (
(488,83,o),
(465,107,o),
(429,107,cs),
(124,107,l),
(51,0,l),
(432,0,ls),
(470,0,o),
(488,23,o),
(488,51,c)
);
},
{
closed = 1;
nodes = (
(65,693,o),
(89,669,o),
(127,669,cs),
(419,669,l),
(505,776,l),
(119,776,ls),
(83,776,o),
(62,752,o),
(64,721,cs)
);
}
);
vertWidth = 0;
width = 546;
}
);
unicode = 90;
},
{
color = 6;
glyphname = K.ss01;
layers = (
{
layerId = m01;
shapes = (
{
closed = 1;
nodes = (
(551,713,ls),
(564,725,o),
(571,735,o),
(573,746,cs),
(573,760,o),
(563,772,o),
(548,772,cs),
(537,773,o),
(525,769,o),
(511,757,cs),
(134,428,l),
(135,413,l),
(203,409,l)
);
},
{
closed = 1;
nodes = (
(432,23,ls),
(440,14,o),
(460,0,o),
(485,0,cs),
(524,0,o),
(538,20,o),
(561,59,cs),
(580,94,o),
(583,102,o),
(582,112,cs),
(581,129,o),
(567,138,o),
(554,138,cs),
(539,138,o),
(530,128,o),
(527,124,cs),
(513,96,ls),
(499,70,o),
(491,55,o),
(487,55,cs),
(482,55,o),
(478,61,o),
(475,64,cs),
(202,421,l),
(134,423,l),
(135,410,l)
);
},
{
closed = 1;
nodes = (
(175,757,o),
(170,772,o),
(147,772,cs),
(124,772,o),
(115,759,o),
(113,740,cs),
(38,38,ls),
(36,20,o),
(46,0,o),
(68,0,cs),
(93,0,o),
(96,21,o),
(97,37,cs),
(172,735,ls)
);
}
);
vertWidth = 0;
width = 632;
},
{
layerId = m002;
shapes = (
{
closed = 1;
nodes = (
(615,668,ls),
(631,682,o),
(644,697,o),
(645,715,cs),
(646,743,o),
(624,772,o),
(589,772,cs),
(570,772,o),
(546,765,o),
(529,750,cs),
(169,437,l),
(172,387,l),
(284,380,l)
);
},
{
closed = 1;
nodes = (
(457,29,ls),
(469,14,o),
(498,0,o),
(526,0,cs),
(573,0,o),
(618,18,o),
(644,62,cs),
(664,96,o),
(668,116,o),
(664,131,cs),
(659,149,o),
(644,164,o),
(627,169,cs),
(613,172,o),
(599,168,o),
(590,157,cs),
(584,150,ls),
(577,141,o),
(563,110,o),
(557,110,cs),
(550,110,o),
(535,114,o),
(524,128,cs),
(287,437,l),
(168,454,l),
(171,402,l)
);
},
{
closed = 1;
nodes = (
(251,756,o),
(220,772,o),
(191,772,cs),
(160,772,o),
(132,757,o),
(128,723,cs),
(57,64,ls),
(53,29,o),
(81,0,o),
(119,0,cs),
(156,0,o),
(172,23,o),
(176,53,cs),
(246,709,ls)
);
}
);
vertWidth = 0;
width = 731;
}
);
},
{
color = 6;
glyphname = M.ss01;
layers = (
{
layerId = m01;
shapes = (
{
closed = 1;
nodes = (
(185,748,ls),
(182,759,o),
(170,772,o),
(145,772,c),
(140,700,l),
(383,21,ls),
(387,10,o),
(400,0,o),
(417,0,c),
(425,80,l)
);
},
{
closed = 1;
nodes = (
(146,772,l),
(120,772,o),
(114,759,o),
(112,740,cs),
(37,32,ls),
(34,14,o),
(45,0,o),
(67,0,cs),
(93,0,o),
(95,19,o),
(96,33,cs),
(170,727,l)
);
},
{
closed = 1;
nodes = (
(751,173,ls),
(743,93,o),
(751,0,o),
(834,0,cs),
(873,0,o),
(887,20,o),
(910,59,cs),
(929,94,o),
(933,102,o),
(931,112,cs),
(930,129,o),
(916,138,o),
(903,138,cs),
(889,138,o),
(879,128,o),
(877,124,cs),
(862,96,ls),
(848,70,o),
(838,55,o),
(829,55,cs),
(805,55,o),
(807,132,o),
(809,157,cs),
(871,735,ls),
(873,757,o),
(868,772,o),
(846,772,c),
(804,676,l)
);
},
{
closed = 1;
nodes = (
(416,0,l),
(432,0,o),
(438,10,o),
(446,21,cs),
(841,681,l),
(845,772,l),
(823,772,o),
(821,764,o),
(815,753,cs),
(407,74,l)
);
}
);
vertWidth = 0;
width = 1041;
},
{
layerId = m002;
shapes = (
{
closed = 1;
nodes = (
(257,737,ls),
(247,762,o),
(216,772,o),
(185,772,c),
(190,583,l),
(390,42,ls),
(399,15,o),
(434,0,o),
(476,0,c),
(484,119,l)
);
},
{
closed = 1;
nodes = (
(189,772,l),
(151,772,o),
(131,756,o),
(127,723,cs),
(58,58,ls),
(55,25,o),
(78,0,o),
(113,0,cs),
(152,0,o),
(175,23,o),
(177,50,cs),
(233,592,l)
);
},
{
closed = 1;
nodes = (
(773,185,ls),
(763,86,o),
(788,0,o),
(881,0,cs),
(928,0,o),
(960,18,o),
(986,62,cs),
(1006,96,o),
(1007,112,o),
(1004,126,cs),
(999,144,o),
(986,159,o),
(969,164,cs),
(955,168,o),
(939,168,o),
(930,157,cs),
(924,150,ls),
(917,141,o),
(910,106,o),
(895,106,cs),
(885,106,o),
(886,138,o),
(898,247,cs),
(947,709,ls),
(950,747,o),
(931,772,o),
(892,772,c),
(811,551,l)
);
},
{
closed = 1;
nodes = (
(469,0,l),
(512,0,o),
(532,15,o),
(548,42,cs),
(845,549,l),
(895,772,l),
(852,772,o),
(835,762,o),
(821,737,cs),
(461,122,l)
);
}
);
vertWidth = 0;
width = 1131;
}
);
},
{
color = 6;
glyphname = Q.ss01;
layers = (
{
layerId = m01;
shapes = (
{
closed = 1;
nodes = (
(386,-31,ls),
(400,-44,o),
(421,-56,o),
(447,-56,cs),
(486,-56,o),
(500,-36,o),
(523,4,cs),
(542,38,o),
(545,46,o),
(544,56,cs),
(543,74,o),
(529,82,o),
(516,82,cs),
(501,82,o),
(492,72,o),
(489,68,cs),
(475,40,ls),
(461,14,o),
(455,-1,o),
(447,-1,cs),
(442,-1,o),
(434,8,o),
(428,13,cs),
(273,159,ls),
(258,173,o),
(235,177,o),
(222,160,cs),
(211,149,o),
(216,132,o),
(233,115,cs)
);
},
{
closed = 1;
nodes = (
(399,-5,o),
(524,297,o),
(545,520,cs),
(558,655,o),
(486,772,o),
(334,772,cs),
(188,772,o),
(125,662,o),
(87,486,cs),
(77,438,o),
(70,383,o),
(70,330,cs),
(67,170,o),
(105,-5,o),
(208,-5,cs)
);
},
{
closed = 1;
nodes = (
(147,50,o),
(128,211,o),
(128,318,cs),
(129,368,o),
(134,422,o),
(143,461,cs),
(176,625,o),
(226,718,o),
(329,718,cs),
(473,718,o),
(495,607,o),
(485,505,cs),
(465,312,o),
(347,50,o),
(203,50,cs)
);
}
);
vertWidth = 0;
width = 638;
},
{
layerId = m002;
shapes = (
{
closed = 1;
nodes = (
(432,-29,ls),
(449,-44,o),
(479,-57,o),
(501,-57,cs),
(548,-57,o),
(580,-34,o),
(606,10,cs),
(626,44,o),
(627,59,o),
(624,74,cs),
(619,91,o),
(606,107,o),
(589,112,cs),
(575,115,o),
(563,110,o),
(555,100,cs),
(549,93,ls),
(542,84,o),
(531,43,o),
(524,43,cs),
(517,43,o),
(510,50,o),
(497,62,cs),
(366,188,l),
(333,214,o),
(291,213,o),
(276,191,cs),
(258,170,o),
(257,140,o),
(286,112,cs)
);
},
{
closed = 1;
nodes = (
(455,-5,o),
(604,287,o),
(626,510,cs),
(640,651,o),
(535,775,o),
(383,775,cs),
(230,775,o),
(146,659,o),
(108,487,cs),
(99,440,o),
(91,386,o),
(91,336,cs),
(89,178,o),
(110,-5,o),
(253,-5,cs)
);
},
{
closed = 1;
nodes = (
(215,102,o),
(209,222,o),
(210,320,cs),
(210,366,o),
(215,413,o),
(222,449,cs),
(253,600,o),
(293,668,o),
(385,668,cs),
(508,668,o),
(513,573,o),
(506,505,cs),
(487,331,o),
(356,102,o),
(265,102,cs)
);
}
);
vertWidth = 0;
width = 720;
}
);
},
{
color = 6;
glyphname = R.ss01;
layers = (
{
layerId = m01;
shapes = (
{
closed = 1;
nodes = (
(342,361,o),
(535,381,o),
(554,565,cs),
(568,709,o),
(409,772,o),
(151,772,c),
(154,718,l),
(384,718,o),
(505,665,o),
(494,571,cs),
(480,437,o),
(312,416,o),
(121,416,c),
(116,361,l)
);
},
{
closed = 1;
nodes = (
(438,18,ls),
(446,10,o),
(466,-5,o),
(491,-5,cs),
(530,-5,o),
(544,15,o),
(567,55,cs),
(586,89,o),
(589,97,o),
(588,107,cs),
(587,125,o),
(573,133,o),
(560,133,cs),
(545,133,o),
(536,124,o),
(533,119,cs),
(519,91,ls),
(505,65,o),
(498,50,o),
(494,50,cs),
(489,50,o),
(485,56,o),
(481,59,cs),
(195,379,l),
(115,379,l)
);
},
{
closed = 1;
nodes = (
(173,757,o),
(171,772,o),
(146,772,cs),
(120,772,o),
(114,759,o),
(112,740,cs),
(38,39,ls),
(36,19,o),
(45,0,o),
(67,0,cs),
(93,0,o),
(95,19,o),
(97,37,cs),
(171,735,ls)
);
}
);
vertWidth = 0;
width = 638;
},
{
layerId = m002;
shapes = (
{
closed = 1;
nodes = (
(381,321,o),
(605,343,o),
(627,555,cs),
(645,715,o),
(479,772,o),
(185,772,c),
(192,664,l),
(449,668,o),
(517,633,o),
(508,558,cs),
(498,454,o),
(346,426,o),
(195,426,c),
(184,321,l)
);
},
{
closed = 1;
nodes = (
(470,24,ls),
(484,10,o),
(511,-5,o),
(539,-5,cs),
(586,-5,o),
(631,13,o),
(657,57,cs),
(677,91,o),
(681,112,o),
(677,126,cs),
(672,144,o),
(657,159,o),
(640,164,cs),
(626,168,o),
(612,163,o),
(604,152,cs),
(598,145,ls),
(590,137,o),
(577,106,o),
(571,106,cs),
(563,106,o),
(549,110,o),
(537,124,cs),
(341,346,l),
(188,339,l)
);
},
{
closed = 1;
nodes = (
(249,758,o),
(223,772,o),
(190,772,cs),
(153,772,o),
(131,757,o),
(127,723,cs),
(57,64,ls),
(53,29,o),
(70,0,o),
(108,0,cs),
(154,0,o),
(172,27,o),
(176,63,cs),
(245,709,ls)
);
}
);
vertWidth = 0;
width = 744;
}
);
},
{
color = 6;
glyphname = U.ss01;
layers = (
{
layerId = m01;
shapes = (
{
closed = 1;
nodes = (
(525,618,l),
(513,618,l),
(510,605,l),
(495,555,o),
(437,417,o),
(422,380,cs),
(352,228,o),
(215,50,o),
(156,50,cs),
(100,50,o),
(108,138,o),
(116,214,cs),
(176,739,ls),
(178,756,o),
(166,771,o),
(149,772,cs),
(129,772,o),
(118,756,o),
(115,737,cs),
(57,217,ls),
(39,62,o),
(82,-5,o),
(152,-5,cs),
(244,-5,o),
(373,140,o),
(465,336,c),
(492,388,l)
);
},
{
closed = 1;
nodes = (
(454,173,ls),
(446,93,o),
(454,0,o),
(537,0,cs),
(576,0,o),
(590,20,o),
(613,59,cs),
(632,94,o),
(636,102,o),
(634,112,cs),
(633,129,o),
(619,138,o),
(606,138,cs),
(592,138,o),
(582,128,o),
(580,124,cs),
(565,96,ls),
(551,70,o),
(541,55,o),
(532,55,cs),
(508,55,o),
(510,132,o),
(512,157,cs),
(574,740,ls),
(576,759,o),
(560,771,o),
(543,771,cs),
(530,771,o),
(517,764,o),
(514,746,cs)
);
}
);
vertWidth = 0;
width = 744;
},
{
layerId = m002;
shapes = (
{
closed = 1;
nodes = (
(544,645,l),
(522,645,l),
(514,606,ls),
(495,503,o),
(461,432,o),
(441,400,cs),
(390,315,o),
(266,102,o),
(210,102,cs),
(188,102,o),
(185,149,o),
(194,220,cs),
(248,713,ls),
(252,747,o),
(226,772,o),
(191,772,cs),
(152,773,o),
(132,741,o),
(129,720,cs),
(75,232,ls),
(57,68,o),
(112,-5,o),
(198,-5,cs),
(299,-5,o),
(398,90,o),
(498,255,c),
(517,457,l)
);
},
{
closed = 1;
nodes = (
(472,185,ls),
(461,87,o),
(486,0,o),
(580,0,cs),
(626,0,o),
(658,18,o),
(684,62,cs),
(704,96,o),
(706,112,o),
(702,126,cs),
(697,144,o),
(684,159,o),
(668,164,cs),
(653,168,o),
(639,165,o),
(628,157,c),
(623,150,ls),
(615,141,o),
(608,106,o),
(593,106,cs),
(583,106,o),
(584,137,o),
(596,247,cs),
(645,713,ls),
(649,751,o),
(620,773,o),
(587,773,cs),
(561,773,o),
(530,756,o),
(527,728,cs)
);
}
);
vertWidth = 0;
width = 829;
}
);
},
{
color = 6;
glyphname = a;
kernLeft = o_left;
kernRight = n_right;
layers = (
{
layerId = m01;
shapes = (
{
closed = 1;
nodes = (
(170,-5,o),
(223,58,o),
(266,134,c),
(277,266,l),
(214,110,o),
(150,55,o),
(115,55,cs),
(83,55,o),
(71,72,o),
(71,150,cs),
(71,219,o),
(110,356,o),
(195,356,cs),
(295,356,l),
(301,416,l),
(191,416,ls),
(69,416,o),
(12,251,o),
(12,144,cs),
(12,25,o),
(61,-5,o),
(106,-5,cs)
);
},
{
closed = 1;
nodes = (
(297,0,o),
(297,21,o),
(298,37,cs),
(336,384,ls),
(337,399,o),
(327,416,o),
(316,416,cs),
(280,416,l),
(239,32,ls),
(238,18,o),
(240,0,o),
(266,0,cs)
);
}
);
vertWidth = 0;
width = 397;
},
{
layerId = m002;
shapes = (
{
closed = 1;
nodes = (
(168,-5,o),
(213,40,o),
(244,80,c),
(255,214,l),
(209,135,o),
(171,99,o),
(131,99,cs),
(109,99,o),
(101,120,o),
(101,154,cs),
(101,219,o),
(127,317,o),
(236,317,c),
(268,317,l),
(279,416,l),
(232,416,l),
(46,416,o),
(-5,274,o),
(-5,143,cs),
(-5,57,o),
(46,-5,o),
(108,-5,cs)
);
},
{
closed = 1;
nodes = (
(312,0,o),
(324,26,o),
(327,44,cs),
(359,350,ls),
(362,386,o),
(340,416,o),
(310,416,cs),
(255,416,l),
(214,52,ls),
(210,25,o),
(232,0,o),
(270,0,cs)
);
}
);
vertWidth = 0;
width = 438;
}
);
unicode = 97;
},
{
color = 6;
glyphname = b;
kernLeft = h_left;
kernRight = o_right;
layers = (
{
layerId = m01;
shapes = (
{
closed = 1;
nodes = (
(10,12,o),
(18,0,o),
(32,0,c),
(69,0,l),
(147,738,ls),
(150,760,o),
(137,772,o),
(122,772,cs),
(107,772,o),
(90,762,o),
(88,738,cs),
(11,26,ls)
);
},
{
closed = 1;
nodes = (
(336,390,o),
(287,419,o),
(242,419,cs),
(178,419,o),
(124,353,o),
(82,273,c),
(69,141,l),
(132,297,o),
(198,360,o),
(233,360,cs),
(265,360,o),
(277,342,o),
(277,265,cs),
(277,196,o),
(238,59,o),
(153,59,cs),
(49,59,l),
(43,0,l),
(157,0,ls),
(279,0,o),
(336,164,o),
(336,271,cs)
);
}
);
vertWidth = 0;
width = 394;
},
{
layerId = m002;
shapes = (
{
closed = 1;
nodes = (
(8,21,o),
(31,0,o),
(63,0,cs),
(116,0,l),
(194,712,ls),
(198,751,o),
(176,772,o),
(144,772,cs),
(120,772,o),
(88,760,o),
(83,721,cs),
(12,52,ls)
);
},
{
closed = 1;
nodes = (
(384,371,o),
(335,421,o),
(270,421,cs),
(220,421,o),
(156,371,o),
(125,329,c),
(108,182,l),
(164,284,o),
(226,317,o),
(248,317,cs),
(270,317,o),
(282,296,o),
(282,263,cs),
(282,204,o),
(271,97,o),
(137,97,cs),
(78,97,l),
(67,0,l),
(140,0,ls),
(312,0,o),
(384,138,o),
(384,291,cs)
);
}
);
vertWidth = 0;
width = 455;
}
);
unicode = 98;
},
{
color = 6;
glyphname = c;
kernLeft = o_left;
layers = (
{
layerId = m01;
shapes = (
{
closed = 1;
nodes = (
(177,-5,o),
(241,71,o),
(284,156,cs),
(290,168,o),
(278,183,o),
(270,188,cs),
(260,192,o),
(239,196,o),
(232,183,cs),
(196,114,o),
(143,55,o),
(114,55,cs),
(81,55,o),
(71,91,o),
(72,125,cs),
(75,215,o),
(107,356,o),
(195,356,cs),
(216,356,o),
(246,352,o),
(261,349,cs),
(276,347,o),
(295,347,o),
(304,367,cs),
(312,385,o),
(308,400,o),
(291,404,cs),
(268,409,o),
(227,416,o),
(195,416,cs),
(61,416,o),
(13,246,o),
(12,113,cs),
(11,24,o),
(65,-5,o),
(114,-5,cs)
);
}
);
vertWidth = 0;
width = 340;
},
{
layerId = m002;
shapes = (
{
closed = 1;
nodes = (
(185,-5,o),
(253,67,o),
(295,144,cs),
(302,157,o),
(301,189,o),
(270,204,cs),
(239,220,o),
(208,213,o),
(198,195,cs),
(172,145,o),
(137,99,o),
(116,99,cs),
(100,99,o),
(89,118,o),
(91,140,cs),
(97,195,o),
(109,314,o),
(179,314,cs),
(192,314,o),
(227,311,o),
(253,308,cs),
(277,304,o),
(299,304,o),
(311,337,cs),
(324,374,o),
(309,397,o),
(290,404,cs),
(273,410,o),
(225,416,o),
(188,416,cs),
(33,416,o),
(0,277,o),
(-14,143,cs),
(-27,29,o),
(46,-5,o),
(105,-5,cs)
);
}
);
vertWidth = 0;
width = 366;
}
);
unicode = 99;
},
{
color = 6;
glyphname = d;
kernLeft = o_left;
layers = (
{
layerId = m01;
shapes = (
{
closed = 1;
nodes = (
(282,0,o),
(296,8,o),
(298,26,cs),
(374,741,ls),
(377,760,o),
(361,772,o),
(345,772,cs),
(331,772,o),
(317,765,o),
(315,747,cs),
(239,32,ls),
(236,11,o),
(252,0,o),
(268,0,cs)
);
},
{
closed = 1;
nodes = (
(12,25,o),
(61,-5,o),
(106,-5,cs),
(170,-5,o),
(223,61,o),
(266,137,c),
(277,267,l),
(214,112,o),
(150,55,o),
(115,55,cs),
(83,55,o),
(71,72,o),
(71,150,cs),
(71,219,o),
(110,356,o),
(195,356,cs),
(299,356,l),
(305,416,l),
(191,416,ls),
(69,416,o),
(12,251,o),
(12,144,cs)
);
}
);
vertWidth = 0;
width = 404;
},
{
layerId = m002;
shapes = (
{
closed = 1;
nodes = (
(292,0,o),
(322,18,o),
(326,52,cs),
(396,712,ls),
(399,750,o),
(373,772,o),
(340,772,cs),
(314,772,o),
(287,760,o),
(284,727,cs),
(216,59,ls),
(211,18,o),
(239,0,o),
(266,0,cs)
);
},
{
closed = 1;
nodes = (
(-10,25,o),
(53,-5,o),
(109,-5,cs),
(157,-5,o),
(209,32,o),
(241,75,c),
(254,217,l),
(196,120,o),
(154,99,o),
(128,99,cs),
(107,99,o),
(97,120,o),
(97,145,cs),
(97,208,o),
(114,312,o),
(234,312,c),
(266,312,l),
(277,416,l),
(229,416,l),
(44,416,o),
(-10,260,o),
(-10,124,cs)
);
}
);
vertWidth = 0;
width = 446;
},
{
associatedMasterId = m002;
layerId = "E9F6C407-A369-43B4-BB67-C7ADEE762928";
name = background;
shapes = (
{
closed = 0;
nodes = (
(20,143,l)
);
},
{
closed = 1;
nodes = (
(320,0,o),
(349,18,o),
(353,52,cs),
(423,712,ls),
(426,750,o),
(400,772,o),
(367,772,cs),
(341,772,o),
(315,760,o),
(311,727,cs),
(240,59,ls),
(235,18,o),
(266,0,o),
(293,0,cs)
);
},
{
closed = 1;
nodes = (
(7,25,o),
(81,-5,o),
(149,-5,cs),
(184,-5,o),
(229,20,o),
(266,56,c),
(283,232,l),
(225,133,o),
(182,99,o),
(156,99,cs),
(134,99,o),
(122,120,o),
(126,154,cs),
(132,208,o),
(127,312,o),
(261,312,c),
(293,312,l),
(304,416,l),
(257,416,l),
(71,416,o),
(38,310,o),
(20,143,c)
);
}
);
vertWidth = 0;
width = 594;
}
);
unicode = 100;
},
{
color = 6;
glyphname = e;
kernLeft = o_left;
layers = (
{
layerId = m01;
shapes = (
{
closed = 1;
nodes = (
(172,-5,o),
(232,46,o),
(255,83,cs),
(278,118,o),
(280,137,o),
(267,146,cs),
(254,156,o),
(235,154,o),
(220,134,cs),
(202,109,o),
(157,55,o),
(113,55,cs),
(91,55,o),
(74,82,o),
(75,116,cs),
(78,229,o),
(106,356,o),
(221,356,cs),
(242,356,o),
(258,347,o),
(257,337,cs),
(254,317,o),
(144,230,o),
(68,230,c),
(58,172,l),
(168,172,o),
(309,264,o),
(317,341,cs),
(322,390,o),
(271,416,o),
(210,416,cs),
(72,416,o),
(20,267,o),
(15,127,cs),
(11,23,o),
(64,-5,o),
(109,-5,cs)
);
}
);
vertWidth = 0;
width = 358;
},
{
layerId = m002;
shapes = (
{
closed = 1;
nodes = (
(210,-5,o),
(260,53,o),
(283,84,cs),
(310,121,o),
(293,154,o),
(276,168,cs),
(251,184,o),
(226,172,o),
(203,143,cs),
(190,126,o),
(163,96,o),
(118,96,cs),
(102,96,o),
(101,121,o),
(102,140,cs),
(106,210,o),
(134,334,o),
(200,334,cs),
(216,334,o),
(233,330,o),
(230,321,cs),
(217,273,o),
(110,240,o),
(69,240,c),
(59,162,l),
(185,162,o),
(292,214,o),
(327,298,cs),
(352,360,o),
(315,416,o),
(215,417,cs),
(61,418,o),
(2,293,o),
(0,139,cs),
(-1,23,o),
(53,-5,o),
(105,-5,cs)
);
}
);
vertWidth = 0;
width = 387;
}
);
unicode = 101;
},
{
color = 6;
glyphname = f;
layers = (
{
layerId = m01;
shapes = (
{
closed = 1;
nodes = (
(99,0,o),
(106,18,o),
(107,32,cs),
(169,615,ls),
(176,687,o),
(204,713,o),
(244,713,cs),
(257,713,o),
(270,712,o),
(282,708,cs),
(291,706,o),
(312,703,o),
(321,726,cs),
(329,747,o),
(315,759,o),
(305,763,cs),
(285,769,o),
(263,772,o),
(240,772,cs),
(181,772,o),
(121,732,o),
(110,626,cs),
(48,33,ls),
(46,19,o),
(57,0,o),
(78,0,cs)
);
},
{
closed = 1;
nodes = (
(-30,375,o),
(-20,362,o),
(4,362,cs),
(235,362,ls),
(259,362,o),
(264,375,o),
(264,390,cs),
(264,404,o),
(255,416,o),
(232,416,cs),
(0,416,ls),
(-24,416,o),
(-30,404,o),
(-30,390,cs)
);
}
);
vertWidth = 0;
width = 266;
},
{
layerId = m002;
shapes = (
{
closed = 1;
nodes = (
(116,-2,o),
(143,21,o),
(146,50,cs),
(204,596,ls),
(209,643,o),
(229,665,o),
(253,665,cs),
(272,665,o),
(290,661,o),
(299,657,cs),
(316,651,o),
(340,653,o),
(356,687,cs),
(372,718,o),
(367,741,o),
(343,753,cs),
(311,770,o),
(285,772,o),
(236,772,cs),
(176,772,o),
(105,729,o),
(93,617,cs),
(33,58,ls),
(31,31,o),
(44,-2,o),
(84,-2,cs)
);
},
{
closed = 1;
nodes = (
(-37,336,o),
(-14,315,o),
(23,315,cs),
(240,315,ls),
(276,315,o),
(297,334,o),
(296,365,cs),
(293,393,o),
(272,416,o),
(234,416,cs),
(17,416,ls),
(-20,416,o),
(-40,393,o),
(-38,365,cs)
);
}
);
vertWidth = 0;
width = 321;
}
);
unicode = 102;
},
{
color = 6;
glyphname = g;
kernLeft = o_left;
layers = (
{
layerId = m01;
shapes = (
{
closed = 1;
nodes = (
(12,25,o),
(61,-5,o),
(106,-5,cs),
(170,-5,o),
(225,70,o),
(267,147,c),
(280,286,l),
(217,131,o),
(150,55,o),
(115,55,cs),
(83,55,o),
(71,72,o),
(71,150,cs),
(71,219,o),
(110,356,o),
(195,356,cs),
(293,356,l),
(299,416,l),
(191,416,ls),
(69,416,o),
(12,251,o),
(12,144,cs)
);
},
{
closed = 1;
nodes = (
(-40,-299,o),
(-37,-316,o),
(-24,-326,cs),
(-2,-341,o),
(38,-356,o),
(81,-356,cs),
(141,-356,o),
(184,-341,o),
(214,-312,cs),
(258,-271,o),
(274,-201,o),
(284,-113,cs),
(337,387,ls),
(340,407,o),
(327,416,o),
(307,416,c),
(280,416,l),
(225,-113,ls),
(219,-170,o),
(209,-232,o),
(173,-266,cs),
(152,-289,o),
(116,-297,o),
(76,-297,cs),
(53,-297,o),
(26,-285,o),
(8,-277,cs),
(0,-273,o),
(-17,-271,o),
(-29,-285,cs)
);
}
);
vertWidth = 0;
width = 398;
},
{
layerId = m002;
shapes = (
{
closed = 1;
nodes = (
(-21,25,o),
(57,-5,o),
(110,-5,cs),
(160,-5,o),
(208,38,o),
(244,75,c),
(255,209,l),
(200,116,o),
(158,99,o),
(132,99,cs),
(110,99,o),
(94,120,o),
(97,154,cs),
(103,208,o),
(103,312,o),
(238,312,cs),
(270,312,l),
(280,416,l),
(233,416,ls),
(48,416,o),
(10,310,o),
(-8,143,cs)
);
},
{
closed = 1;
nodes = (
(-64,-289,o),
(-44,-318,o),
(-25,-330,cs),
(-8,-341,o),
(42,-356,o),
(99,-356,cs),
(164,-356,o),
(210,-328,o),
(254,-282,cs),
(307,-225,o),
(308,-133,o),
(318,-33,cs),
(362,362,l),
(365,398,o),
(331,416,o),
(299,416,cs),
(253,416,l),
(207,-24,ls),
(198,-99,o),
(194,-171,o),
(159,-207,cs),
(138,-229,o),
(113,-240,o),
(88,-240,cs),
(72,-240,o),
(51,-236,o),
(43,-233,cs),
(15,-220,o),
(-20,-215,o),
(-42,-251,cs)
);
}
);
vertWidth = 0;
width = 442;
}
);
unicode = 103;
},
{
color = 6;
glyphname = h;
kernLeft = h_left;
kernRight = n_right;
layers = (
{
layerId = m01;
shapes = (
{
closed = 1;
nodes = (
(308,0,o),
(308,21,o),
(309,37,cs),
(336,278,ls),
(343,346,o),
(312,421,o),
(244,421,cs),
(178,421,o),
(132,368,o),
(81,283,c),
(72,152,l),
(144,314,o),
(190,362,o),
(240,362,cs),
(267,362,o),
(282,323,o),
(277,278,cs),
(251,37,ls),
(248,18,o),
(251,0,o),
(277,0,c)
);
},
{
closed = 1;
nodes = (
(53,0,o),
(68,8,o),
(70,27,cs),
(146,740,ls),
(149,762,o),
(137,772,o),
(121,772,cs),
(106,772,o),
(89,762,o),
(87,740,cs),
(11,27,ls),
(8,10,o),
(23,0,o),
(38,0,cs)
);
}
);
vertWidth = 0;
width = 404;
},
{
layerId = m002;
shapes = (
{
closed = 1;
nodes = (
(362,0,o),
(378,21,o),
(380,45,cs),
(402,245,ls),
(413,358,o),
(362,421,o),
(280,421,cs),
(223,421,o),
(170,385,o),
(141,348,c),
(126,206,l),
(171,287,o),
(216,316,o),
(253,316,cs),
(285,316,o),
(292,284,o),
(289,254,cs),
(267,55,ls),
(264,26,o),
(282,0,o),
(320,0,cs)
);
},
{
closed = 1;
nodes = (
(96,-2,o),
(121,13,o),
(125,44,cs),
(195,714,ls),
(198,752,o),
(175,776,o),
(143,776,cs),
(114,776,o),
(86,757,o),
(82,723,cs),
(12,53,ls),
(8,20,o),
(36,-2,o),
(68,-2,cs)
);
}
);
vertWidth = 0;
width = 488;
}
);
unicode = 104;
},
{
color = 6;
glyphname = i;
layers = (
{
layerId = m01;
shapes = (
{
closed = 1;
nodes = (
(62,0,o),
(77,12,o),
(80,33,cs),
(116,380,ls),
(119,404,o),
(105,416,o),
(90,416,cs),
(75,416,o),
(59,405,o),
(57,384,cs),
(20,33,ls),
(18,11,o),
(32,0,o),
(48,0,cs)
);
},
{
closed = 1;
nodes = (
(120,506,o),
(138,527,o),
(138,548,cs),
(138,570,o),
(120,588,o),
(99,588,cs),
(78,588,o),
(58,570,o),
(58,548,cs),
(58,527,o),
(78,506,o),
(99,506,cs)
);
}
);
vertWidth = 0;
width = 189;
},
{
layerId = m002;
shapes = (
{
closed = 1;
nodes = (
(106,0,o),
(138,12,o),
(141,44,cs),
(173,349,ls),
(177,388,o),
(146,416,o),
(116,416,cs),
(88,416,o),
(59,394,o),
(56,362,cs),
(24,58,ls),
(20,23,o),
(49,0,o),
(80,0,cs)
);
},
{
closed = 1;
nodes = (
(173,492,o),
(200,519,o),
(200,554,cs),
(200,588,o),
(173,615,o),
(139,615,cs),
(106,615,o),
(74,588,o),
(74,554,cs),
(74,519,o),
(106,492,o),
(139,492,cs)
);
}
);
vertWidth = 0;
width = 280;
}
);
unicode = 105;
},
{
color = 6;
glyphname = j;
layers = (
{
layerId = m01;
shapes = (
{
closed = 1;
nodes = (
(-247,-299,o),
(-244,-316,o),
(-230,-326,cs),
(-209,-341,o),
(-169,-356,o),
(-126,-356,cs),
(-65,-356,o),
(-23,-341,o),
(7,-312,cs),
(56,-266,o),
(70,-185,o),
(77,-112,cs),
(129,388,ls),
(132,409,o),
(118,417,o),
(97,417,cs),
(84,417,o),
(71,404,o),
(70,391,cs),
(18,-112,ls),
(13,-153,o),
(4,-234,o),
(-32,-268,cs),
(-53,-291,o),
(-90,-297,o),
(-131,-297,cs),
(-153,-297,o),
(-181,-285,o),
(-198,-277,cs),
(-207,-273,o),
(-223,-271,o),
(-235,-285,cs)
);
},
{
closed = 1;
nodes = (
(138,506,o),
(153,525,o),
(153,549,cs),
(153,571,o),
(138,588,o),
(115,588,cs),
(94,588,o),
(74,571,o),
(74,549,cs),
(74,525,o),
(94,506,o),
(115,506,cs)
);
}
);
vertWidth = 0;
width = 204;
},
{
layerId = m002;
shapes = (
{
closed = 1;
nodes = (
(-252,-289,o),
(-229,-318,o),
(-210,-330,cs),
(-194,-341,o),
(-144,-356,o),
(-87,-356,cs),
(-21,-356,o),
(21,-328,o),
(64,-280,cs),
(115,-225,o),
(127,-93,o),
(133,-33,cs),
(175,362,ls),
(178,398,o),
(150,416,o),
(114,416,cs),
(81,416,o),
(59,398,o),
(56,364,cs),
(14,-24,ls),
(11,-61,o),
(0,-177,o),
(-29,-207,cs),
(-50,-229,o),
(-72,-240,o),
(-97,-240,cs),
(-113,-240,o),
(-134,-238,o),
(-143,-233,cs),
(-158,-225,o),
(-203,-215,o),
(-225,-247,cs)
);
},
{
closed = 1;
nodes = (
(170,494,o),
(196,526,o),
(196,562,cs),
(196,599,o),
(165,620,o),
(134,620,cs),
(99,620,o),
(68,592,o),
(68,557,cs),
(68,520,o),
(103,494,o),
(135,494,cs)
);
}
);
vertWidth = 0;
width = 277;
}
);
unicode = 106;
},
{
color = 6;
glyphname = k;
kernLeft = h_left;
layers = (
{
layerId = m01;
shapes = (
{
closed = 1;
nodes = (
(56,0,o),
(68,8,o),
(70,31,cs),
(146,738,ls),
(149,763,o),
(135,772,o),
(116,772,cs),
(99,772,o),
(89,759,o),
(87,739,cs),
(11,31,ls),
(8,12,o),
(21,0,o),
(37,0,cs)
);
},
{
closed = 1;
nodes = (
(295,-1,o),
(307,6,o),
(309,19,cs),
(310,27,o),
(312,38,o),
(302,50,cs),
(153,208,l),
(149,178,l),
(293,220,o),
(324,282,o),
(330,312,cs),
(340,367,o),
(302,421,o),
(246,421,c),
(207,421,o),
(141,385,o),
(77,291,c),
(67,197,l),
(139,308,o),
(204,362,o),
(238,362,cs),
(260,362,o),
(271,342,o),
(271,327,c),
(271,296,o),
(255,267,o),
(110,221,cs),
(97,216,o),
(90,187,o),
(105,172,cs),
(246,21,ls),
(257,10,o),
(267,-1,o),
(283,-1,cs)
);
}
);
vertWidth = 0;
width = 374;
},
{
layerId = m002;
shapes = (
{
closed = 1;
nodes = (
(95,-2,o),
(124,13,o),
(127,48,cs),
(196,712,ls),
(201,752,o),
(175,776,o),
(141,776,cs),
(112,776,o),
(86,758,o),
(82,722,cs),
(13,57,ls),
(10,23,o),
(31,-2,o),
(63,-2,cs)
);
},
{
closed = 1;
nodes = (
(324,0,o),
(349,15,o),
(354,39,cs),
(356,53,o),
(358,68,o),
(341,84,cs),
(240,188,l),
(222,158,l),
(317,172,o),
(385,246,o),
(390,287,cs),
(397,348,o),
(350,419,o),
(290,419,cs),
(230,419,o),
(137,358,o),
(99,316,c),
(121,221,l),
(132,245,o),
(239,327,o),
(279,327,cs),
(289,327,o),
(297,318,o),
(297,310,cs),
(297,280,o),
(208,232,o),
(135,219,cs),
(112,214,o),
(110,172,o),
(133,149,cs),
(242,32,ls),
(260,13,o),
(279,0,o),
(301,0,cs)
);
}
);
vertWidth = 0;
width = 462;
},
{
associatedMasterId = m01;
layerId = "77AB87CF-DFD9-4464-B3BE-FB0C2F81C02D";
name = background;
shapes = (
{
closed = 1;
nodes = (
(149,763,o),
(135,772,o),
(116,772,cs),
(99,772,o),
(89,759,o),
(87,739,cs),
(11,31,ls),
(8,12,o),
(21,0,o),
(37,0,cs),
(56,0,o),
(68,8,o),
(70,31,cs),
(146,738,ls)
);
},
{
closed = 1;
nodes = (
(72,208,l),
(246,21,ls),
(257,10,o),
(267,-1,o),
(283,-1,cs),
(295,-1,o),
(307,6,o),
(309,19,cs),
(310,27,o),
(312,38,o),
(302,50,cs),
(153,208,l)
);
},
{
closed = 1;
nodes = (
(80,198,o),
(96,225,o),
(105,234,cs),
(122,255,o),
(153,308,o),
(173,326,cs),
(196,345,o),
(220,362,o),
(244,362,cs),
(260,362,o),
(272,341,o),
(271,326,cs),
(267,295,o),
(247,280,o),
(214,260,cs),
(190,246,o),
(106,220,o),
(72,208,c),
(146,171,l),
(162,176,o),
(220,195,o),
(241,208,cs),
(283,233,o),
(326,267,o),
(329,302,cs),
(334,342,o),
(316,421,o),
(246,421,cs),
(207,421,o),
(169,399,o),
(134,369,cs),
(115,353,o),
(96,322,o),
(77,302,c),
(72,188,l)
);
}
);
vertWidth = 0;
width = 594;
}
);
unicode = 107;
},
{
color = 6;
glyphname = l;
kernLeft = h_left;
layers = (
{
layerId = m01;
shapes = (
{
closed = 1;
nodes = (
(72,0,o),
(87,8,o),
(88,26,cs),
(164,741,ls),
(166,760,o),
(150,772,o),
(133,772,cs),
(120,772,o),
(107,765,o),
(105,747,cs),
(29,32,ls),
(26,11,o),
(43,0,o),
(59,0,cs)
);
}
);
vertWidth = 0;
width = 206;
},
{
layerId = m002;
shapes = (
{
closed = 1;
nodes = (
(93,0,o),
(121,18,o),
(125,52,cs),
(194,712,ls),
(197,750,o),
(176,776,o),
(143,776,cs),
(116,776,o),
(86,760,o),
(82,727,cs),
(12,59,ls),
(7,18,o),
(39,0,o),
(67,0,cs)
);
}
);
vertWidth = 0;
width = 247;
}
);
unicode = 108;
},
{
color = 6;
glyphname = m;
kernLeft = n_left;
kernRight = n_right;
layers = (
{
layerId = m01;
shapes = (
{
closed = 1;
nodes = (
(67,0,o),
(69,21,o),
(70,36,cs),
(108,384,ls),
(110,404,o),
(107,416,o),
(87,416,c),
(64,416,o),
(51,406,o),
(49,384,cs),
(12,36,ls),
(10,18,o),
(13,0,o),
(39,0,cs)
);
},
{
closed = 1;
nodes = (
(289,0,o),
(292,21,o),
(293,36,cs),
(321,278,ls),
(328,346,o),
(301,421,o),
(232,421,cs),
(166,421,o),
(122,362,o),
(74,279,c),
(63,135,l),
(137,298,o),
(178,362,o),
(228,362,cs),
(258,362,o),
(265,310,o),
(261,278,cs),
(235,36,ls),
(233,18,o),
(235,0,o),
(261,0,cs)
);
},
{
closed = 1;
nodes = (
(513,0,o),
(516,21,o),
(517,36,cs),
(544,278,ls),
(551,346,o),
(524,421,o),
(455,421,cs),
(390,421,o),
(346,362,o),
(297,279,c),
(286,135,l),
(360,298,o),
(402,362,o),
(451,362,cs),
(481,362,o),
(488,310,o),
(485,278,cs),
(459,36,ls),
(456,18,o),
(459,0,o),
(485,0,cs)
);
}
);
vertWidth = 0;
width = 612;
},
{
layerId = m002;
shapes = (
{
closed = 1;
nodes = (
(96,0,o),
(109,27,o),
(112,44,cs),
(146,359,ls),
(150,393,o),
(134,416,o),
(100,416,cs),
(65,416,o),
(39,400,o),
(32,367,c),
(-1,51,ls),
(-5,18,o),
(18,0,o),
(52,0,cs)
);
},
{
closed = 1;
nodes = (
(335,0,o),
(350,27,o),
(353,45,cs),
(374,245,ls),
(386,358,o),
(349,421,o),
(257,421,cs),
(210,421,o),
(156,383,o),
(129,353,c),
(115,227,l),
(153,286,o),
(190,316,o),
(234,316,cs),
(253,316,o),
(265,284,o),
(261,254,cs),
(240,55,ls),
(236,26,o),
(254,0,o),
(292,0,cs)
);
},
{
closed = 1;
nodes = (
(576,0,o),
(592,27,o),
(594,45,cs),
(615,245,ls),
(627,358,o),
(590,421,o),
(498,421,cs),
(451,421,o),
(394,383,o),
(368,353,c),
(354,227,l),
(396,292,o),
(438,316,o),
(475,316,cs),
(494,316,o),
(506,284,o),
(503,254,cs),
(481,55,ls),
(478,26,o),
(495,0,o),
(533,0,cs)
);
}
);
vertWidth = 0;
width = 703;
}
);
unicode = 109;
},
{
color = 6;
glyphname = n;
kernLeft = n_left;
kernRight = n_right;
layers = (
{
layerId = m01;
shapes = (
{
closed = 1;
nodes = (
(68,0,o),
(65,21,o),
(68,37,cs),
(108,384,ls),
(110,404,o),
(107,416,o),
(87,416,cs),
(63,416,o),
(51,405,o),
(49,384,cs),
(10,37,ls),
(7,18,o),
(11,0,o),
(37,0,cs)
);
},
{
closed = 1;
nodes = (
(298,0,o),
(297,21,o),
(299,37,cs),
(329,278,ls),
(337,346,o),
(305,421,o),
(236,421,cs),
(171,421,o),
(120,362,o),
(75,268,c),
(63,135,l),
(138,299,o),
(183,362,o),
(233,362,cs),
(263,362,o),
(273,310,o),
(270,278,cs),
(241,37,ls),
(239,18,o),
(241,0,o),
(267,0,c)
);
}
);
vertWidth = 0;
width = 397;
},
{
layerId = m002;
shapes = (
{
closed = 1;
nodes = (
(95,0,o),
(109,26,o),
(112,44,cs),
(146,359,ls),
(150,394,o),
(135,416,o),
(93,416,cs),
(55,416,o),
(34,390,o),
(31,356,cs),
(-1,52,ls),
(-5,24,o),
(11,0,o),
(51,0,cs)
);
},
{
closed = 1;
nodes = (
(347,0,o),
(365,20,o),
(367,45,cs),
(388,245,ls),
(400,358,o),
(349,421,o),
(257,421,cs),
(196,421,o),
(152,383,o),
(129,343,c),
(114,206,l),
(156,282,o),
(202,316,o),
(242,316,cs),
(271,316,o),
(279,289,o),
(276,254,cs),
(254,55,ls),
(251,26,o),
(266,0,o),
(304,0,cs)
);
}
);
vertWidth = 0;
width = 475;
}
);
unicode = 110;
},
{
color = 6;
glyphname = o;
kernLeft = o_left;
kernRight = o_right;
layers = (
{
layerId = m01;
shapes = (
{
closed = 1;
nodes = (
(214,-5,o),
(317,187,o),
(329,295,cs),
(336,366,o),
(278,416,o),
(195,416,cs),
(61,416,o),
(13,246,o),
(12,113,cs),
(11,24,o),
(65,-5,o),
(114,-5,cs)
);
},
{
closed = 1;
nodes = (
(81,55,o),
(71,91,o),
(72,125,cs),
(75,215,o),
(107,356,o),
(195,356,cs),
(247,356,o),
(273,334,o),
(268,293,cs),
(257,194,o),
(158,55,o),
(114,55,cs)
);
}
);
vertWidth = 0;
width = 373;
},
{
layerId = m002;
shapes = (
{
closed = 1;
nodes = (
(246,-5,o),
(342,179,o),
(353,280,cs),
(364,372,o),
(290,416,o),
(200,416,cs),
(57,416,o),
(-8,287,o),
(-15,143,cs),
(-20,55,o),
(50,-5,o),
(116,-5,cs)
);
},
{
closed = 1;
nodes = (
(103,99,o),
(94,118,o),
(95,140,cs),
(101,220,o),
(125,314,o),
(191,314,cs),
(230,314,o),
(252,298,o),
(248,272,cs),
(242,219,o),
(171,99,o),
(128,99,cs)
);
}
);
vertWidth = 0;
width = 417;
}
);
unicode = 111;
},
{
color = 6;
glyphname = p;
kernLeft = n_left;
kernRight = o_right;
layers = (
{
layerId = m01;
shapes = (
{
closed = 1;
nodes = (
(17,-356,o),
(31,-347,o),
(33,-329,cs),
(110,388,ls),
(113,406,o),
(100,416,o),
(84,416,cs),
(70,416,o),
(53,406,o),
(51,388,cs),
(-26,-328,ls),
(-29,-347,o),
(-13,-356,o),
(2,-356,cs)
);
},
{
closed = 1;
nodes = (
(336,390,o),
(287,419,o),
(242,419,cs),
(178,419,o),
(126,361,o),
(83,285,c),
(71,147,l),
(134,303,o),
(191,362,o),
(233,362,cs),
(265,362,o),
(277,342,o),
(277,265,cs),
(277,157,o),
(234,59,o),
(153,59,cs),
(45,59,l),
(39,0,l),
(157,0,ls),
(271,0,o),
(336,132,o),
(336,271,cs)
);
}
);
vertWidth = 0;
width = 386;
},
{
layerId = m002;
shapes = (
{
closed = 1;
nodes = (
(43,-360,o),
(71,-342,o),
(75,-312,cs),
(145,355,ls),
(149,388,o),
(121,416,o),
(89,416,cs),
(62,416,o),
(36,398,o),
(32,368,cs),
(-38,-302,ls),
(-42,-336,o),
(-17,-360,o),
(15,-360,cs)
);
},
{
closed = 1;
nodes = (
(373,366,o),
(323,421,o),
(254,421,cs),
(197,421,o),
(138,361,o),
(112,329,c),
(95,184,l),
(153,283,o),
(213,317,o),
(235,317,cs),
(257,317,o),
(267,298,o),
(267,266,cs),
(267,190,o),
(244,97,o),
(116,97,cs),
(84,97,l),
(74,0,l),
(121,0,ls),
(274,0,o),
(373,91,o),
(373,286,cs)
);
}
);
vertWidth = 0;
width = 444;
}
);
unicode = 112;
},
{
color = 6;
glyphname = q;
kernLeft = o_left;
layers = (
{
layerId = m01;
shapes = (
{
closed = 1;
nodes = (
(365,-214,o),
(348,-216,o),
(341,-233,cs),
(322,-279,o),
(311,-299,o),
(293,-299,cs),
(270,-299,o),
(268,-268,o),
(273,-227,cs),
(337,388,ls),
(339,398,o),
(336,416,o),
(310,416,cs),
(284,416,l),
(214,-215,ls),
(203,-311,o),
(233,-356,o),
(291,-356,cs),
(347,-356,o),
(381,-292,o),
(392,-259,cs),
(398,-241,o),
(390,-227,o),
(378,-221,cs)
);
},
{
closed = 1;
nodes = (
(12,25,o),
(61,-5,o),
(106,-5,cs),
(170,-5,o),
(225,69,o),
(267,145,c),
(279,278,l),
(216,122,o),
(150,55,o),
(115,55,cs),
(83,55,o),
(71,72,o),
(71,150,cs),
(71,219,o),
(110,356,o),
(195,356,c),
(283,356,l),
(289,416,l),
(191,416,l),
(69,416,o),
(12,251,o),
(12,144,cs)
);
}
);
vertWidth = 0;
width = 399;
},
{
layerId = m002;
shapes = (
{
closed = 1;
nodes = (
(386,-183,o),
(360,-181,o),
(349,-204,cs),
(330,-247,o),
(317,-261,o),
(305,-259,cs),
(293,-257,o),
(287,-242,o),
(292,-203,cs),
(354,352,ls),
(359,390,o),
(337,416,o),
(298,416,cs),
(248,416,l),
(184,-166,ls),
(171,-290,o),
(196,-356,o),
(295,-356,cs),
(356,-356,o),
(413,-310,o),
(431,-258,cs),
(440,-235,o),
(426,-213,o),
(407,-198,cs)
);
},
{
closed = 1;
nodes = (
(-11,39,o),
(50,-5,o),
(106,-5,cs),
(153,-5,o),
(202,32,o),
(236,71,c),
(253,210,l),
(200,122,o),
(151,99,o),
(125,99,cs),
(103,99,o),
(96,120,o),
(96,154,cs),
(96,216,o),
(121,316,o),
(232,316,cs),
(264,316,l),
(273,416,l),
(226,416,ls),
(40,416,o),
(-11,261,o),
(-11,143,cs)
);
}
);
vertWidth = 0;
width = 446;
},
{
associatedMasterId = m01;
layerId = "7AA63940-7118-473E-AF75-F16CFB947EEE";
name = background;
shapes = (
{
closed = 1;
nodes = (
(223,-183,ls),
(215,-265,o),
(221,-356,o),
(304,-356,cs),
(365,-356,o),
(403,-259,o),
(402,-245,cs),
(400,-227,o),
(386,-219,o),
(373,-219,cs),
(359,-219,o),
(349,-228,o),
(347,-233,cs),
(316,-286,o),
(308,-299,o),
(299,-299,cs),
(276,-299,o),
(277,-241,o),
(282,-200,cs),
(343,388,ls),
(345,398,o),
(342,416,o),
(316,416,cs),
(286,416,l)
);
},
{
closed = 1;
nodes = (
(285,278,l),
(222,122,o),
(156,55,o),
(121,55,cs),
(89,55,o),
(77,72,o),
(77,150,cs),
(77,219,o),
(116,356,o),
(201,356,cs),
(216,356,o),
(279,356,o),
(289,356,c),
(295,416,l),
(280,416,o),
(216,416,o),
(197,416,cs),
(75,416,o),
(18,251,o),
(18,144,cs),
(18,25,o),
(67,-5,o),
(112,-5,cs),
(176,-5,o),
(230,69,o),
(273,145,c)
);
}
);
vertWidth = 0;
width = 594;
}
);
unicode = 113;
},
{
color = 6;
glyphname = r;
kernLeft = n_left;
layers = (
{
layerId = m01;
shapes = (
{
closed = 1;
nodes = (
(52,0,o),
(67,11,o),
(69,32,cs),
(106,380,ls),
(108,404,o),
(95,416,o),
(80,416,cs),
(65,416,o),
(49,405,o),
(46,384,cs),
(10,32,ls),
(7,11,o),
(21,0,o),
(37,0,cs)
);
},
{
closed = 1;
nodes = (
(317,307,o),
(327,318,o),
(322,341,cs),
(311,385,o),
(282,421,o),
(234,421,cs),
(169,421,o),
(121,368,o),
(72,266,c),
(61,135,l),
(134,298,o),
(181,362,o),
(230,362,cs),
(251,362,o),
(260,337,o),
(266,311,cs),
(268,298,o),
(290,293,o),
(304,301,cs)
);
}
);
vertWidth = 0;
width = 337;
},
{
layerId = m002;
shapes = (
{
closed = 1;
nodes = (
(80,-1,o),
(108,17,o),
(112,49,cs),
(143,353,ls),
(146,391,o),
(122,417,o),
(91,417,cs),
(65,417,o),
(34,399,o),
(31,367,cs),
(-1,57,ls),
(-5,21,o),
(21,-1,o),
(52,-1,cs)
);
},
{
closed = 1;
nodes = (
(353,287,o),
(366,316,o),
(358,345,cs),
(343,396,o),
(304,421,o),
(254,421,cs),
(197,421,o),
(156,378,o),
(128,350,c),
(113,206,l),
(154,282,o),
(202,316,o),
(229,316,cs),
(239,316,o),
(241,309,o),
(245,298,cs),
(257,267,o),
(289,258,o),
(322,273,cs)
);
}
);
vertWidth = 0;
width = 392;
}
);
unicode = 114;
},
{
color = 6;
glyphname = s;
layers = (
{
layerId = m01;
shapes = (
{
closed = 1;
nodes = (
(217,-5,o),
(271,26,o),
(280,87,cs),
(289,137,o),
(267,173,o),
(244,192,cs),
(214,217,o),
(181,239,o),
(150,257,cs),
(105,283,o),
(87,304,o),
(94,328,cs),
(101,352,o),
(127,359,o),
(157,359,cs),
(198,359,o),
(230,342,o),
(251,328,cs),
(270,315,o),
(287,311,o),
(298,328,cs),
(309,343,o),
(297,368,o),
(274,383,cs),
(235,407,o),
(197,417,o),
(165,417,cs),
(100,417,o),
(52,397,o),
(37,343,cs),
(21,290,o),
(58,242,o),
(113,209,cs),
(146,189,o),
(172,175,o),
(194,158,cs),
(210,145,o),
(228,121,o),
(222,95,cs),
(215,65,o),
(192,55,o),
(163,55,cs),
(119,55,o),
(75,82,o),
(57,96,cs),
(40,109,o),
(24,106,o),
(12,88,cs),
(0,70,o),
(13,56,o),
(33,40,cs),
(57,23,o),
(109,-5,o),
(160,-5,cs)
);
}
);
vertWidth = 0;
width = 352;
},
{
layerId = m002;
shapes = (
{
closed = 1;
nodes = (
(201,-5,o),
(272,25,o),
(279,105,cs),
(284,153,o),
(258,191,o),
(234,211,cs),
(219,225,o),
(189,244,o),
(164,259,cs),
(139,274,o),
(109,286,o),
(110,302,cs),
(112,314,o),
(131,316,o),
(152,316,cs),
(175,316,o),
(203,304,o),
(216,298,cs),
(246,284,o),
(285,283,o),
(298,309,cs),
(315,345,o),
(292,377,o),
(247,399,cs),
(215,412,o),
(177,419,o),
(145,419,cs),
(69,419,o),
(8,383,o),
(1,310,cs),
(-5,255,o),
(51,208,o),
(87,187,cs),
(102,177,o),
(128,159,o),
(139,152,cs),
(162,137,o),
(170,128,o),
(170,119,cs),
(169,107,o),
(159,99,o),
(135,99,cs),
(108,99,o),
(78,121,o),
(61,133,cs),
(37,149,o),
(-5,141,o),
(-17,113,cs),
(-30,81,o),
(-11,55,o),
(20,33,cs),
(48,14,o),
(103,-5,o),
(141,-5,cs)
);
}
);
vertWidth = 0;
width = 371;
},
{
associatedMasterId = m01;
layerId = "3C077978-C8FA-4731-8A37-B704D155BD4D";
name = background;
shapes = (
{
closed = 1;
nodes = (
(120,55,o),
(82,81,o),
(63,95,cs),
(45,107,o),
(19,101,o),
(12,87,cs),
(1,67,o),
(19,53,o),
(40,38,cs),
(83,8,o),
(129,-5,o),
(162,-5,cs),
(219,-5,o),
(276,26,o),
(283,95,cs),
(287,139,o),
(267,172,o),
(245,192,cs),
(216,219,o),
(184,234,o),
(151,257,cs),
(124,274,o),
(90,292,o),
(93,315,cs),
(95,341,o),
(132,356,o),
(170,356,cs),
(208,356,o),
(241,343,o),
(255,331,cs),
(271,320,o),
(299,323,o),
(307,337,cs),
(317,358,o),
(302,374,o),
(279,386,cs),
(235,411,o),
(198,416,o),
(166,416,cs),
(95,416,o),
(42,379,o),
(33,315,cs),
(29,268,o),
(77,230,o),
(114,209,cs),
(147,189,o),
(177,171,o),
(195,158,cs),
(210,145,o),
(226,121,o),
(223,99,cs),
(220,65,o),
(190,57,o),
(158,55,cs)
);
}
);
vertWidth = 0;
width = 594;
}
);
unicode = 115;
},
{
color = 6;
glyphname = t;
layers = (
{
layerId = m01;
shapes = (
{
closed = 1;
nodes = (
(124,0,o),
(135,8,o),
(138,27,cs),
(216,741,ls),
(219,763,o),
(202,775,o),
(185,775,cs),
(172,775,o),
(159,766,o),
(157,750,cs),
(78,29,ls),
(76,10,o),
(93,0,o),
(108,0,cs)
);
},
{
closed = 1;
nodes = (
(-4,375,o),
(6,362,o),
(30,362,cs),
(283,362,ls),
(307,362,o),
(311,375,o),
(311,390,cs),
(311,404,o),
(303,416,o),
(279,416,cs),
(26,416,ls),
(2,416,o),
(-4,404,o),
(-4,390,cs)
);
}
);
vertWidth = 0;
width = 308;
},
{
layerId = m002;
shapes = (
{
closed = 1;
nodes = (
(143,0,o),
(169,11,o),
(172,42,cs),
(241,715,ls),
(245,750,o),
(217,772,o),
(184,772,cs),
(151,772,o),
(125,750,o),
(122,726,cs),
(53,52,ls),
(50,14,o),
(82,0,o),
(113,0,cs)
);
},
{
closed = 1;
nodes = (
(-39,336,o),
(-15,315,o),
(23,315,cs),
(272,315,ls),
(310,315,o),
(329,336,o),
(329,365,cs),
(329,394,o),
(304,416,o),
(266,416,cs),
(17,416,ls),
(-21,416,o),
(-39,394,o),
(-39,365,cs)
);
}
);
vertWidth = 0;
width = 345;
},
{
associatedMasterId = m01;
layerId = "648C1299-5437-418A-B7CF-2594514ADB2F";
name = background;
shapes = (
{
closed = 1;
nodes = (
(219,763,o),
(202,775,o),
(185,775,cs),
(172,775,o),
(159,766,o),
(157,750,cs),
(78,29,ls),
(76,10,o),
(93,0,o),
(108,0,cs),
(124,0,o),
(135,8,o),
(138,27,cs),
(216,741,ls)
);
},
{
closed = 1;
nodes = (
(307,362,o),
(311,375,o),
(311,390,cs),
(311,404,o),
(303,416,o),
(279,416,cs),
(26,416,ls),
(2,416,o),
(-4,404,o),
(-4,390,cs),
(-4,375,o),
(6,362,o),
(30,362,cs),
(283,362,ls)
);
}
);
vertWidth = 0;
width = 594;
}
);
unicode = 116;
},
{
color = 6;
glyphname = u;
kernLeft = n_left;
kernRight = n_right;
layers = (
{
layerId = m01;
shapes = (
{
closed = 1;
nodes = (
(287,0,o),
(298,11,o),
(301,32,cs),
(337,381,ls),
(340,398,o),
(336,416,o),
(311,416,cs),
(286,416,o),
(280,397,o),
(279,384,cs),
(241,32,ls),
(239,12,o),
(244,0,o),
(264,0,cs)
);
},
{
closed = 1;
nodes = (
(177,-5,o),
(227,58,o),
(277,143,c),
(287,273,l),
(214,110,o),
(165,53,o),
(115,53,cs),
(86,53,o),
(74,90,o),
(78,138,cs),
(105,381,ls),
(107,398,o),
(105,416,o),
(78,416,cs),
(52,416,o),
(49,397,o),
(48,384,cs),
(19,138,ls),
(10,61,o),
(43,-5,o),
(112,-5,cs)
);
}
);
vertWidth = 0;
width = 404;
},
{
layerId = m002;
shapes = (
{
closed = 1;
nodes = (
(345,0,o),
(366,19,o),
(369,50,cs),
(403,364,ls),
(406,392,o),
(391,416,o),
(350,416,cs),
(307,416,o),
(292,390,o),
(290,372,cs),
(255,57,ls),
(252,21,o),
(266,0,o),
(304,0,cs)
);
},
{
closed = 1;
nodes = (
(177,-5,o),
(240,37,o),
(276,77,c),
(287,202,l),
(240,127,o),
(181,100,o),
(153,100,cs),
(134,100,o),
(120,122,o),
(124,162,cs),
(145,361,ls),
(149,390,o),
(127,416,o),
(89,416,cs),
(46,416,o),
(34,388,o),
(32,371,cs),
(11,171,ls),
(-1,58,o),
(38,-5,o),
(131,-5,cs)
);
}
);
vertWidth = 0;
width = 484;
}
);
unicode = 117;
},
{
color = 6;
glyphname = v;
kernLeft = v_left;
kernRight = v_right;
layers = (
{
layerId = m01;
shapes = (
{
closed = 1;
nodes = (
(158,-5,o),
(261,83,o),
(341,373,cs),
(348,399,o),
(343,416,o),
(320,416,cs),
(298,416,o),
(287,405,o),
(282,383,cs),
(223,175,o),
(138,56,o),
(97,56,cs),
(84,56,o),
(76,80,o),
(81,121,cs),
(108,384,ls),
(110,407,o),
(99,416,o),
(83,416,cs),
(65,416,o),
(51,406,o),
(49,387,cs),
(21,121,ls),
(15,58,o),
(37,-5,o),
(87,-5,cs)
);
}
);
vertWidth = 0;
width = 362;
},
{
layerId = m002;
shapes = (
{
closed = 1;
nodes = (
(240,-5,o),
(314,109,o),
(392,343,cs),
(407,391,o),
(383,416,o),
(341,416,cs),
(309,416,o),
(292,400,o),
(280,366,cs),
(207,149,o),
(149,94,o),
(139,94,cs),
(129,94,o),
(127,107,o),
(137,187,cs),
(156,354,ls),
(160,393,o),
(132,416,o),
(100,416,cs),
(74,416,o),
(40,398,o),
(37,366,cs),
(13,137,ls),
(5,56,o),
(37,-5,o),
(106,-5,cs)
);
}
);
vertWidth = 0;
width = 440;
},
{
associatedMasterId = m01;
layerId = "77C62327-0034-436F-80D8-E93656396981";
name = background;
shapes = (
{
closed = 1;
nodes = (
(110,404,o),
(99,416,o),
(83,416,cs),
(69,416,o),
(51,405,o),
(49,384,cs),
(21,121,ls),
(14,58,o),
(37,-5,o),
(87,-5,cs),
(158,-5,o),
(228,82,o),
(264,164,cs),
(290,225,o),
(324,320,o),
(341,373,cs),
(349,399,o),
(343,416,o),
(320,416,cs),
(298,416,o),
(287,399,o),
(282,383,cs),
(264,331,o),
(245,272,o),
(222,217,cs),
(202,169,o),
(138,56,o),
(97,56,cs),
(84,56,o),
(76,80,o),
(81,121,cs),
(108,380,ls)
);
}
);
vertWidth = 0;
width = 594;
},
{
associatedMasterId = m002;
layerId = "177D28A6-3EE6-40DA-9B01-C948EE4F150A";
name = background;
shapes = (
{
closed = 1;
nodes = (
(173,393,o),
(145,416,o),
(113,416,cs),
(87,416,o),
(53,398,o),
(50,366,cs),
(26,137,ls),
(19,67,o),
(44,-5,o),
(119,-5,cs),
(221,-5,o),
(282,65,o),
(328,153,cs),
(355,206,o),
(390,295,o),
(405,343,cs),
(424,404,o),
(380,416,o),
(354,416,cs),
(322,416,o),
(308,400,o),
(293,366,cs),
(286,348,o),
(274,311,o),
(255,265,cs),
(239,223,o),
(210,149,o),
(177,114,cs),
(165,102,o),
(158,94,o),
(152,94,cs),
(135,94,o),
(145,134,o),
(151,187,cs),
(169,354,ls)
);
}
);
vertWidth = 0;
width = 594;
}
);
unicode = 118;
},
{
color = 6;
glyphname = w;
kernLeft = v_left;
kernRight = v_right;
layers = (
{
layerId = m01;
shapes = (
{
closed = 1;
nodes = (
(158,-5,o),
(221,69,o),
(292,255,c),
(318,416,l),
(297,416,o),
(289,399,o),
(284,383,cs),
(214,162,o),
(141,56,o),
(97,56,cs),
(72,56,o),
(78,94,o),
(81,121,cs),
(108,380,ls),
(110,404,o),
(99,416,o),
(83,416,cs),
(69,416,o),
(51,405,o),
(49,384,cs),
(21,121,ls),
(14,58,o),
(37,-5,o),
(87,-5,cs)
);
},
{
closed = 1;
nodes = (
(393,-5,o),
(488,68,o),
(576,373,cs),
(583,399,o),
(579,416,o),
(555,416,cs),
(533,416,o),
(523,404,o),
(517,383,cs),
(455,150,o),
(373,56,o),
(333,56,cs),
(308,56,o),
(314,94,o),
(316,121,cs),
(341,380,ls),
(343,404,o),
(334,416,o),
(318,416,c),
(283,257,l),
(263,121,ls),
(252,49,o),
(272,-5,o),
(322,-5,cs)
);
}
);
vertWidth = 0;
width = 598;
},
{
layerId = m002;
shapes = (
{
closed = 1;
nodes = (
(206,-5,o),
(272,83,o),
(327,223,c),
(342,416,l),
(310,416,o),
(287,403,o),
(278,366,cs),
(219,139,o),
(156,94,o),
(139,94,cs),
(124,94,o),
(128,134,o),
(134,187,cs),
(152,354,ls),
(157,393,o),
(128,416,o),
(96,416,cs),
(70,416,o),
(40,398,o),
(37,366,cs),
(13,137,ls),
(6,67,o),
(29,-5,o),
(103,-5,cs)
);
},
{
closed = 1;
nodes = (
(448,-5,o),
(550,84,o),
(626,343,cs),
(640,391,o),
(613,416,o),
(575,416,cs),
(543,416,o),
(525,403,o),
(514,366,cs),
(448,137,o),
(388,94,o),
(375,94,cs),
(358,94,o),
(360,137,o),
(366,187,cs),
(386,354,ls),
(391,393,o),
(373,416,o),
(341,416,c),
(279,223,l),
(270,159,ls),
(254,49,o),
(278,-5,o),
(339,-5,cs)
);
}
);
vertWidth = 0;
width = 674;
},
{
associatedMasterId = m01;
layerId = "1D9990B2-E528-42BA-9000-4789CF1D95DF";
name = background;
shapes = (
{
closed = 1;
nodes = (
(158,-5,o),
(225,81,o),
(258,164,cs),
(285,232,l),
(318,416,l),
(297,416,o),
(290,399,o),
(284,383,cs),
(266,331,o),
(245,272,o),
(222,217,cs),
(202,169,o),
(138,56,o),
(97,56,cs),
(72,56,o),
(78,94,o),
(81,121,cs),
(108,380,ls),
(110,404,o),
(99,416,o),
(83,416,cs),
(69,416,o),
(51,405,o),
(49,384,cs),
(21,121,ls),
(14,58,o),
(37,-5,o),
(87,-5,cs)
);
},
{
closed = 1;
nodes = (
(393,-5,o),
(463,82,o),
(499,164,cs),
(525,225,o),
(560,320,o),
(576,373,cs),
(584,399,o),
(579,416,o),
(555,416,cs),
(533,416,o),
(523,399,o),
(517,383,cs),
(499,331,o),
(480,272,o),
(457,217,cs),
(437,169,o),
(373,56,o),
(333,56,cs),
(308,56,o),
(314,94,o),
(316,121,cs),
(341,380,ls),
(343,404,o),
(334,416,o),
(318,416,c),
(276,233,l),
(261,121,ls),
(252,49,o),
(272,-5,o),
(322,-5,cs)
);
}
);
vertWidth = 0;
width = 594;
},
{
associatedMasterId = m002;
layerId = "CF83E6AE-FC35-4BE6-9395-C9D8CBD20BE5";
name = background;
shapes = (
{
closed = 1;
nodes = (
(208,-5,o),
(271,64,o),
(315,153,cs),
(329,182,l),
(345,416,l),
(312,416,o),
(295,400,o),
(280,366,cs),
(273,348,o),
(261,311,o),
(242,265,cs),
(226,223,o),
(197,149,o),
(164,114,cs),
(116,63,o),
(131,118,o),
(138,187,cs),
(156,354,ls),
(160,393,o),
(132,416,o),
(100,416,cs),
(74,416,o),
(40,398,o),
(37,366,cs),
(13,137,ls),
(6,67,o),
(31,-5,o),
(106,-5,cs)
);
},
{
closed = 1;
nodes = (
(454,-5,o),
(514,65,o),
(561,153,cs),
(588,206,o),
(623,295,o),
(638,343,cs),
(657,404,o),
(613,416,o),
(587,416,cs),
(555,416,o),
(541,400,o),
(526,366,cs),
(519,348,o),
(507,311,o),
(488,265,cs),
(472,223,o),
(443,149,o),
(410,114,cs),
(362,63,o),
(377,118,o),
(384,187,cs),
(402,354,ls),
(406,393,o),
(375,416,o),
(343,416,c),
(263,176,l),
(259,137,ls),
(253,67,o),
(277,-5,o),
(352,-5,cs)
);
},
{
closed = 1;
nodes = (
(208,-5,o),
(271,64,o),
(315,153,cs),
(329,182,l),
(345,416,l),
(312,416,o),
(295,400,o),
(280,366,cs),
(273,348,o),
(261,311,o),
(242,265,cs),
(226,223,o),
(197,149,o),
(164,114,cs),
(116,63,o),
(131,118,o),
(138,187,cs),
(156,354,ls),
(160,393,o),
(132,416,o),
(100,416,cs),
(74,416,o),
(40,398,o),
(37,366,cs),
(13,137,ls),
(6,67,o),
(31,-5,o),
(106,-5,cs)
);
},
{
closed = 1;
nodes = (
(454,-5,o),
(514,65,o),
(561,153,cs),
(588,206,o),
(623,295,o),
(638,343,cs),
(657,404,o),
(613,416,o),
(587,416,cs),
(555,416,o),
(541,400,o),
(526,366,cs),
(519,348,o),
(507,311,o),
(488,265,cs),
(472,223,o),
(443,149,o),
(410,114,cs),
(362,63,o),
(377,118,o),
(384,187,cs),
(402,354,ls),
(406,393,o),
(375,416,o),
(343,416,c),
(263,176,l),
(259,137,ls),
(253,67,o),
(277,-5,o),
(352,-5,cs)
);
}
);
vertWidth = 0;
width = 594;
}
);
unicode = 119;
},
{
color = 6;
glyphname = x;
layers = (
{
layerId = m01;
shapes = (
{
closed = 1;
nodes = (
(14,0,o),
(23,7,o),
(33,21,cs),
(154,182,l),
(165,188,l),
(296,361,ls),
(305,373,o),
(310,384,o),
(310,392,cs),
(310,405,o),
(292,416,o),
(278,416,cs),
(270,416,o),
(260,412,o),
(252,402,cs),
(132,241,l),
(121,235,l),
(-11,58,ls),
(-24,40,o),
(-27,34,o),
(-27,26,cs),
(-27,12,o),
(-8,0,o),
(5,0,cs)
);
},
{
closed = 1;
nodes = (
(249,0,o),
(266,12,o),
(266,29,cs),
(266,36,o),
(259,49,o),
(254,58,cs),
(160,232,l),
(72,396,ls),
(65,407,o),
(55,416,o),
(43,416,cs),
(29,416,o),
(12,403,o),
(12,388,cs),
(12,381,o),
(17,373,o),
(20,367,cs),
(119,184,l),
(206,25,ls),
(216,6,o),
(225,0,o),
(234,0,cs)
);
}
);
vertWidth = 0;
width = 340;
},
{
layerId = m002;
shapes = (
{
closed = 1;
nodes = (
(44,0,o),
(63,11,o),
(75,27,cs),
(178,166,l),
(183,166,l),
(307,321,ls),
(321,339,o),
(327,352,o),
(327,367,cs),
(327,394,o),
(303,418,o),
(266,418,cs),
(253,418,o),
(232,410,o),
(219,392,cs),
(121,254,l),
(115,253,l),
(-6,100,ls),
(-23,80,o),
(-32,62,o),
(-32,52,cs),
(-32,23,o),
(-4,0,o),
(27,0,cs)
);
},
{
closed = 1;
nodes = (
(260,0,o),
(293,24,o),
(293,48,cs),
(293,58,o),
(286,74,o),
(276,93,cs),
(187,257,l),
(108,393,ls),
(97,412,o),
(80,418,o),
(63,418,cs),
(37,418,o),
(5,398,o),
(5,371,cs),
(5,355,o),
(14,342,o),
(19,334,cs),
(110,168,l),
(190,30,ls),
(206,2,o),
(226,0,o),
(235,0,cs)
);
}
);
vertWidth = 0;
width = 385;
},
{
associatedMasterId = m01;
layerId = "BB0C6294-7BE8-4710-A581-27AEF5DC7E6F";
name = background;
shapes = (
{
closed = 1;
nodes = (
(14,0,o),
(24,6,o),
(34,20,cs),
(289,361,ls),
(298,373,o),
(304,377,o),
(303,388,cs),
(303,396,o),
(299,403,o),
(293,409,cs),
(287,415,o),
(279,416,o),
(271,416,cs),
(263,415,o),
(253,412,o),
(245,402,cs),
(-11,58,ls),
(-24,40,o),
(-27,33,o),
(-25,25,cs),
(-24,19,o),
(-20,13,o),
(-14,7,cs),
(-10,2,o),
(-4,0,o),
(5,0,cs)
);
},
{
closed = 1;
nodes = (
(242,0,o),
(252,4,o),
(257,10,cs),
(263,15,o),
(267,24,o),
(266,32,cs),
(266,39,o),
(261,45,o),
(258,52,cs),
(70,399,ls),
(65,409,o),
(52,416,o),
(43,416,cs),
(34,416,o),
(27,412,o),
(21,407,cs),
(15,403,o),
(13,396,o),
(12,388,cs),
(13,381,o),
(17,373,o),
(20,367,cs),
(206,25,ls),
(216,6,o),
(228,0,o),
(234,0,cs)
);
}
);
vertWidth = 0;
width = 594;
},
{
associatedMasterId = m002;
layerId = "2DF84E01-681C-4898-8B16-8AD1B1ABA589";
name = background;
shapes = (
{
closed = 1;
nodes = (
(364,339,o),
(371,349,o),
(369,367,cs),
(369,381,o),
(364,393,o),
(352,404,cs),
(342,413,o),
(324,416,o),
(309,416,cs),
(296,416,o),
(276,410,o),
(267,400,cs),
(26,90,ls),
(14,76,o),
(8,62,o),
(12,45,cs),
(14,34,o),
(20,25,o),
(29,14,cs),
(38,5,o),
(55,0,o),
(70,0,cs),
(87,0,o),
(106,8,o),
(114,19,cs),
(355,329,ls)
);
},
{
closed = 1;
nodes = (
(138,410,o),
(120,416,o),
(103,416,cs),
(89,416,o),
(76,412,o),
(64,403,cs),
(55,394,o),
(49,381,o),
(48,368,cs),
(49,355,o),
(57,342,o),
(62,334,cs),
(238,21,ls),
(248,2,o),
(276,0,o),
(287,0,cs),
(302,0,o),
(315,8,o),
(322,17,cs),
(329,26,o),
(337,39,o),
(336,53,cs),
(335,64,o),
(329,74,o),
(323,84,cs),
(151,393,l)
);
}
);
vertWidth = 0;
width = 594;
}
);
unicode = 120;
},
{
color = 6;
glyphname = y;
kernLeft = n_left;
kernRight = n_right;
layers = (
{
layerId = m01;
shapes = (
{
closed = 1;
nodes = (
(181,-5,o),
(228,55,o),
(278,139,c),
(289,280,l),
(215,118,o),
(169,53,o),
(119,53,cs),
(89,53,o),
(77,95,o),
(82,138,cs),
(108,381,ls),
(110,398,o),
(106,417,o),
(82,416,cs),
(58,415,o),
(51,394,o),
(50,381,cs),
(23,138,ls),
(14,61,o),
(46,-5,o),
(115,-5,cs)
);
},
{
closed = 1;
nodes = (
(-33,-299,o),
(-31,-316,o),
(-18,-326,cs),
(4,-341,o),
(44,-356,o),
(93,-356,cs),
(211,-356,o),
(271,-292,o),
(290,-112,cs),
(342,388,ls),
(345,409,o),
(330,417,o),
(314,417,c),
(297,417,o),
(284,404,o),
(283,391,cs),
(230,-112,ls),
(214,-272,o),
(169,-297,o),
(89,-297,cs),
(59,-297,o),
(30,-285,o),
(14,-277,cs),
(4,-271,o),
(-12,-271,o),
(-23,-285,cs)
);
}
);
vertWidth = 0;
width = 407;
},
{
layerId = m002;
shapes = (
{
closed = 1;
nodes = (
(178,-5,o),
(230,21,o),
(261,42,c),
(276,178,l),
(228,103,o),
(173,100,o),
(146,100,cs),
(127,100,o),
(121,132,o),
(125,162,cs),
(146,361,ls),
(150,390,o),
(134,416,o),
(96,416,cs),
(53,416,o),
(36,388,o),
(33,371,cs),
(12,171,ls),
(0,58,o),
(39,-5,o),
(132,-5,cs)
);
},
{
closed = 1;
nodes = (
(-48,-298,o),
(-27,-318,o),
(-8,-330,cs),
(8,-341,o),
(58,-356,o),
(115,-356,cs),
(251,-356,o),
(327,-246,o),
(345,-77,cs),
(391,362,ls),
(394,398,o),
(366,416,o),
(330,416,cs),
(297,416,o),
(282,398,o),
(278,364,cs),
(233,-62,ls),
(220,-181,o),
(183,-245,o),
(112,-245,cs),
(89,-245,o),
(69,-236,o),
(49,-229,cs),
(25,-221,o),
(-14,-217,o),
(-31,-259,cs)
);
}
);
vertWidth = 0;
width = 472;
},
{
associatedMasterId = m01;
layerId = "EE904374-6635-4A47-8C21-A89B34F10F06";
name = background;
shapes = (
{
closed = 1;
nodes = (
(181,-5,o),
(228,55,o),
(278,139,c),
(289,280,l),
(215,118,o),
(169,53,o),
(119,53,cs),
(89,53,o),
(77,95,o),
(82,138,cs),
(108,381,ls),
(110,398,o),
(106,417,o),
(82,416,cs),
(58,415,o),
(51,394,o),
(50,381,cs),
(23,138,ls),
(14,61,o),
(46,-5,o),
(115,-5,cs)
);
},
{
closed = 1;
nodes = (
(-33,-299,o),
(-31,-316,o),
(-18,-326,cs),
(4,-341,o),
(44,-356,o),
(87,-356,cs),
(147,-356,o),
(190,-341,o),
(220,-312,cs),
(268,-266,o),
(283,-185,o),
(290,-112,cs),
(342,388,ls),
(345,409,o),
(330,417,o),
(314,417,c),
(297,417,o),
(284,404,o),
(283,391,cs),
(230,-112,ls),
(226,-153,o),
(216,-234,o),
(181,-268,cs),
(159,-291,o),
(122,-297,o),
(82,-297,cs),
(59,-297,o),
(30,-285,o),
(14,-277,cs),
(4,-271,o),
(-12,-271,o),
(-23,-285,cs)
);
}
);
vertWidth = 0;
width = 594;
}
);
unicode = 121;
},
{
color = 6;
glyphname = z;
layers = (
{
layerId = m01;
shapes = (
{
closed = 1;
nodes = (
(-33,31,o),
(-17,0,o),
(6,0,c),
(24,13,l),
(297,367,ls),
(315,391,o),
(298,416,o),
(274,416,c),
(254,405,l),
(-17,52,ls)
);
},
{
closed = 1;
nodes = (
(268,44,o),
(260,59,o),
(236,59,cs),
(48,59,l),
(6,0,l),
(240,0,ls),
(264,0,o),
(268,15,o),
(268,30,cs)
);
},
{
closed = 1;
nodes = (
(13,372,o),
(23,356,o),
(46,356,cs),
(233,356,l),
(274,416,l),
(43,416,ls),
(19,416,o),
(13,400,o),
(13,386,cs)
);
}
);
vertWidth = 0;
width = 333;
},
{
background = {
shapes = (
{
closed = 1;
nodes = (
(242,712,ls),
(246,751,o),
(216,772,o),
(184,772,cs),
(160,772,o),
(128,760,o),
(124,721,cs),
(52,52,ls),
(49,21,o),
(71,0,o),
(103,0,cs),
(168,0,l)
);
},
{
closed = 1;
nodes = (
(457,750,o),
(431,772,o),
(398,772,cs),
(372,772,o),
(346,760,o),
(342,727,cs),
(271,59,ls),
(266,18,o),
(297,0,o),
(324,0,cs),
(350,0,o),
(380,18,o),
(384,52,cs),
(454,712,ls)
);
}
);
};
layerId = m002;
shapes = (
{
closed = 1;
nodes = (
(-39,55,o),
(-13,0,o),
(32,0,c),
(77,19,l),
(318,322,ls),
(353,365,o),
(318,416,o),
(278,416,c),
(239,400,l),
(-11,89,ls)
);
},
{
closed = 1;
nodes = (
(304,80,o),
(282,101,o),
(246,101,cs),
(115,101,l),
(32,0,l),
(253,0,ls),
(289,0,o),
(309,23,o),
(307,51,cs)
);
},
{
closed = 1;
nodes = (
(10,334,o),
(33,309,o),
(69,309,cs),
(201,309,l),
(278,416,l),
(62,416,ls),
(26,416,o),
(6,391,o),
(8,362,cs)
);
}
);
vertWidth = 0;
width = 381;
}
);
unicode = 122;
},
{
color = 6;
glyphname = a.ss01;
layers = (
{
layerId = m01;
shapes = (
{
closed = 1;
nodes = (
(286,286,l),
(223,131,o),
(156,55,o),
(121,55,cs),
(89,55,o),
(77,72,o),
(77,150,cs),
(77,219,o),
(116,356,o),
(201,356,cs),
(216,356,o),
(279,356,o),
(289,356,c),
(295,416,l),
(280,416,o),
(216,416,o),
(197,416,cs),
(75,416,o),
(18,251,o),
(18,144,cs),
(18,25,o),
(67,-5,o),
(112,-5,cs),
(176,-5,o),
(228,53,o),
(271,129,c)
);
},
{
closed = 1;
nodes = (
(345,399,o),
(335,416,o),
(285,416,c),
(260,173,ls),
(252,93,o),
(260,0,o),
(343,0,cs),
(383,0,o),
(397,20,o),
(419,59,cs),
(438,94,o),
(442,102,o),
(441,112,cs),
(440,129,o),
(425,138,o),
(412,138,cs),
(398,138,o),
(388,128,o),
(386,124,cs),
(372,96,ls),
(358,70,o),
(347,55,o),
(339,55,cs),
(315,55,o),
(317,147,o),
(318,157,cs),
(342,375,ls)
);
}
);
vertWidth = 0;
width = 462;
},
{
layerId = m002;
shapes = (
{
closed = 1;
nodes = (
(283,232,l),
(225,133,o),
(182,99,o),
(156,99,cs),
(134,99,o),
(122,120,o),
(126,154,cs),
(132,208,o),
(127,312,o),
(261,312,cs),
(268,312,o),
(285,312,o),
(293,312,c),
(304,416,l),
(295,416,o),
(265,416,o),
(257,416,cs),
(71,416,o),
(38,310,o),
(20,143,cs),
(7,25,o),
(81,-5,o),
(149,-5,cs),
(184,-5,o),
(229,20,o),
(266,56,c)
);
},
{
closed = 1;
nodes = (
(388,400,o),
(371,416,o),
(277,416,c),
(252,185,ls),
(241,86,o),
(263,0,o),
(356,0,cs),
(403,0,o),
(435,18,o),
(461,62,cs),
(481,96,o),
(482,112,o),
(479,126,cs),
(474,144,o),
(461,159,o),
(444,164,cs),
(430,168,o),
(416,165,o),
(405,157,c),
(399,150,ls),
(392,141,o),
(385,106,o),
(369,106,cs),
(360,106,o),
(364,138,o),
(374,247,cs),
(385,358,ls)
);
}
);
vertWidth = 0;
width = 529;
}
);
},
{
color = 6;
glyphname = d.ss01;
layers = (
{
layerId = m01;
shapes = (
{
closed = 1;
nodes = (
(286,286,l),
(223,131,o),
(156,51,o),
(121,51,cs),
(89,51,o),
(77,72,o),
(77,150,cs),
(77,216,o),
(116,356,o),
(201,356,cs),
(216,356,o),
(279,356,o),
(289,356,c),
(295,416,l),
(280,416,o),
(216,416,o),
(197,416,cs),
(75,416,o),
(18,251,o),
(18,144,cs),
(18,25,o),
(67,-5,o),
(112,-5,cs),
(176,-5,o),
(228,53,o),
(271,129,c)
);
},
{
closed = 1;
nodes = (
(358,70,o),
(347,55,o),
(339,55,cs),
(315,55,o),
(317,147,o),
(318,157,cs),
(380,740,ls),
(383,763,o),
(371,772,o),
(355,772,cs),
(340,772,o),
(322,760,o),
(320,740,c),
(260,173,ls),
(252,93,o),
(260,0,o),
(343,0,cs),
(383,0,o),
(397,20,o),
(419,59,cs),
(438,94,o),
(442,102,o),
(441,112,cs),
(440,129,o),
(425,138,o),
(412,138,cs),
(398,138,o),
(388,128,o),
(386,124,cs),
(372,96,ls)
);
}
);
vertWidth = 0;
width = 462;
},
{
layerId = m002;
shapes = (
{
closed = 1;
nodes = (
(283,232,l),
(225,133,o),
(182,99,o),
(156,99,cs),
(134,99,o),
(122,120,o),
(126,154,cs),
(132,208,o),
(127,312,o),
(261,312,cs),
(268,312,o),
(285,312,o),
(293,312,c),
(304,416,l),
(295,416,o),
(265,416,o),
(257,416,cs),
(71,416,o),
(34,310,o),
(20,143,cs),
(11,25,o),
(81,-5,o),
(149,-5,cs),
(213,-5,o),
(257,46,o),
(293,82,c)
);
},
{
closed = 1;
nodes = (
(399,141,o),
(392,106,o),
(377,106,cs),
(367,106,o),
(368,138,o),
(380,247,cs),
(430,710,ls),
(435,750,o),
(406,772,o),
(374,772,cs),
(346,772,o),
(320,752,o),
(316,719,cs),
(259,185,ls),
(248,86,o),
(270,0,o),
(364,0,cs),
(410,0,o),
(442,18,o),
(468,62,cs),
(488,96,o),
(489,112,o),
(486,126,cs),
(481,144,o),
(468,159,o),
(451,164,cs),
(437,168,o),
(423,165,o),
(412,157,c),
(406,150,ls)
);
}
);
vertWidth = 0;
width = 536;
}
);
},
{
color = 6;
glyphname = f.ss01;
layers = (
{
layerId = m01;
shapes = (
{
closed = 1;
nodes = (
(343,706,o),
(365,703,o),
(373,726,cs),
(381,747,o),
(367,759,o),
(358,763,cs),
(337,769,o),
(315,772,o),
(292,772,cs),
(233,772,o),
(173,732,o),
(163,626,cs),
(62,-324,ls),
(61,-339,o),
(71,-358,o),
(93,-358,cs),
(113,-358,o),
(120,-340,o),
(121,-326,cs),
(221,615,ls),
(228,687,o),
(257,713,o),
(296,713,cs),
(309,713,o),
(322,712,o),
(334,708,cs)
);
},
{
closed = 1;
nodes = (
(311,362,o),
(316,375,o),
(316,390,cs),
(316,404,o),
(308,416,o),
(284,416,cs),
(52,416,ls),
(29,416,o),
(23,404,o),
(23,390,cs),
(23,375,o),
(32,362,o),
(56,362,cs),
(287,362,ls)
);
}
);
vertWidth = 0;
width = 318;
},
{
layerId = m002;
shapes = (
{
closed = 1;
nodes = (
(387,651,o),
(411,653,o),
(428,687,cs),
(443,718,o),
(438,741,o),
(415,753,cs),
(383,770,o),
(356,772,o),
(308,772,cs),
(247,772,o),
(176,729,o),
(164,617,cs),
(67,-296,ls),
(64,-323,o),
(89,-356,o),
(129,-356,cs),
(162,-356,o),
(182,-333,o),
(185,-304,cs),
(282,596,ls),
(286,643,o),
(303,665,o),
(324,665,cs),
(348,665,o),
(361,661,o),
(371,657,cs)
);
},
{
closed = 1;
nodes = (
(347,315,o),
(368,334,o),
(367,365,cs),
(365,393,o),
(343,416,o),
(305,416,cs),
(88,416,ls),
(51,416,o),
(31,393,o),
(33,365,cs),
(34,336,o),
(57,315,o),
(94,315,cs),
(311,315,ls)
);
}
);
vertWidth = 0;
width = 404;
}
);
},
{
color = 6;
glyphname = h.ss01;
layers = (
{
layerId = m01;
shapes = (
{
closed = 1;
nodes = (
(264,156,ls),
(255,78,o),
(259,0,o),
(337,0,cs),
(377,0,o),
(392,20,o),
(417,59,cs),
(440,94,o),
(443,102,o),
(443,112,cs),
(443,129,o),
(429,138,o),
(416,138,cs),
(402,138,o),
(392,128,o),
(388,124,cs),
(371,96,ls),
(354,70,o),
(345,57,o),
(336,57,cs),
(320,57,o),
(316,93,o),
(323,153,cs),
(336,278,ls),
(343,346,o),
(312,421,o),
(244,421,cs),
(178,421,o),
(134,372,o),
(82,292,c),
(70,135,l),
(144,298,o),
(190,362,o),
(240,362,cs),
(270,362,o),
(280,310,o),
(277,278,cs)
);
},
{
closed = 1;
nodes = (
(149,762,o),
(137,772,o),
(121,772,cs),
(106,772,o),
(89,762,o),
(87,740,cs),
(11,27,ls),
(8,10,o),
(23,0,o),
(38,0,cs),
(53,0,o),
(68,8,o),
(70,27,cs),
(146,740,ls)
);
}
);
vertWidth = 0;
width = 465;
},
{
layerId = m002;
shapes = (
{
closed = 1;
nodes = (
(268,185,ls),
(258,86,o),
(284,0,o),
(378,0,cs),
(424,0,o),
(456,18,o),
(482,62,cs),
(503,96,o),
(504,112,o),
(500,126,cs),
(495,144,o),
(482,159,o),
(466,164,cs),
(451,168,o),
(437,165,o),
(426,157,c),
(421,150,ls),
(413,141,o),
(406,106,o),
(391,106,cs),
(381,106,o),
(383,137,o),
(390,201,cs),
(394,245,ls),
(406,358,o),
(367,421,o),
(274,421,cs),
(228,421,o),
(190,394,o),
(159,374,c),
(144,206,l),
(191,280,o),
(233,316,o),
(260,316,cs),
(279,316,o),
(279,284,o),
(276,254,cs)
);
},
{
closed = 1;
nodes = (
(222,752,o),
(192,776,o),
(160,776,cs),
(132,776,o),
(103,757,o),
(100,723,cs),
(30,53,ls),
(26,20,o),
(53,-2,o),
(86,-2,cs),
(114,-2,o),
(145,13,o),
(149,44,cs),
(219,714,ls)
);
}
);
vertWidth = 0;
width = 550;
}
);
},
{
color = 6;
glyphname = i.ss01;
layers = (
{
layerId = m01;
shapes = (
{
closed = 1;
nodes = (
(29,175,ls),
(20,94,o),
(29,1,o),
(112,1,cs),
(151,1,o),
(165,21,o),
(188,61,cs),
(207,95,o),
(210,103,o),
(209,113,cs),
(208,131,o),
(194,139,o),
(181,139,cs),
(166,139,o),
(157,129,o),
(154,125,cs),
(140,97,ls),
(126,71,o),
(115,56,o),
(107,56,cs),
(83,56,o),
(84,133,o),
(87,158,cs),
(110,380,ls),
(113,404,o),
(99,416,o),
(84,416,cs),
(69,416,o),
(53,405,o),
(51,384,cs)
);
},
{
closed = 1;
nodes = (
(118,523,o),
(132,539,o),
(132,556,cs),
(132,574,o),
(118,588,o),
(100,588,cs),
(83,588,o),
(67,574,o),
(67,556,cs),
(67,539,o),
(83,523,o),
(100,523,cs)
);
}
);
vertWidth = 0;
width = 230;
},
{
layerId = m002;
shapes = (
{
closed = 1;
nodes = (
(44,184,ls),
(34,84,o),
(58,-1,o),
(152,-1,cs),
(198,-1,o),
(230,17,o),
(257,61,cs),
(277,95,o),
(278,110,o),
(274,125,cs),
(270,143,o),
(257,158,o),
(240,163,cs),
(226,166,o),
(211,164,o),
(201,156,c),
(195,149,ls),
(188,140,o),
(181,105,o),
(165,105,cs),
(156,105,o),
(157,137,o),
(169,246,cs),
(179,349,ls),
(183,388,o),
(152,416,o),
(122,416,cs),
(94,416,o),
(65,394,o),
(62,362,cs)
);
},
{
closed = 1;
nodes = (
(177,495,o),
(201,522,o),
(201,554,cs),
(201,586,o),
(177,612,o),
(145,612,cs),
(114,612,o),
(84,586,o),
(84,554,cs),
(84,522,o),
(114,495,o),
(145,495,cs)
);
}
);
vertWidth = 0;
width = 324;
}
);
},
{
color = 6;
glyphname = k.ss01;
layers = (
{
layerId = m01;
shapes = (
{
closed = 1;
nodes = (
(149,763,o),
(135,772,o),
(116,772,cs),
(99,772,o),
(89,759,o),
(87,739,cs),
(11,31,ls),
(8,12,o),
(21,0,o),
(37,0,cs),
(56,0,o),
(68,8,o),
(70,31,cs),
(146,738,ls)
);
},
{
closed = 1;
nodes = (
(257,11,o),
(277,0,o),
(303,0,cs),
(342,0,o),
(356,20,o),
(379,59,cs),
(398,94,o),
(402,102,o),
(400,112,cs),
(399,129,o),
(385,138,o),
(372,138,cs),
(358,138,o),
(348,128,o),
(346,124,cs),
(331,96,ls),
(317,70,o),
(309,55,o),
(301,55,cs),
(296,55,o),
(289,64,o),
(284,69,cs),
(153,208,l),
(72,208,l),
(242,25,ls)
);
},
{
closed = 1;
nodes = (
(80,198,o),
(96,225,o),
(105,234,cs),
(122,255,o),
(153,308,o),
(173,326,cs),
(196,345,o),
(220,362,o),
(244,362,cs),
(260,362,o),
(272,341,o),
(271,326,cs),
(267,295,o),
(247,280,o),
(214,260,cs),
(190,246,o),
(106,220,o),
(72,208,c),
(146,171,l),
(162,176,o),
(220,195,o),
(241,208,cs),
(283,233,o),
(326,267,o),
(329,302,cs),
(334,342,o),
(316,421,o),
(246,421,cs),
(207,421,o),
(169,399,o),
(134,369,cs),
(115,353,o),
(96,322,o),
(77,302,c),
(72,188,l)
);
}
);
vertWidth = 0;
width = 422;
},
{
layerId = m002;
shapes = (
{
closed = 1;
nodes = (
(223,752,o),
(192,772,o),
(159,772,cs),
(129,772,o),
(103,758,o),
(100,722,cs),
(31,57,ls),
(27,23,o),
(53,0,o),
(86,0,cs),
(118,0,o),
(146,13,o),
(150,48,cs),
(219,712,ls)
);
},
{
closed = 1;
nodes = (
(271,7,o),
(293,-5,o),
(324,-5,cs),
(371,-5,o),
(403,18,o),
(429,62,cs),
(449,96,o),
(450,112,o),
(447,126,cs),
(442,144,o),
(429,159,o),
(412,164,cs),
(398,168,o),
(386,163,o),
(378,152,cs),
(372,145,ls),
(365,137,o),
(353,93,o),
(342,93,cs),
(339,93,o),
(331,99,o),
(318,112,cs),
(239,195,l),
(103,182,l),
(255,24,ls)
);
},
{
closed = 1;
nodes = (
(154,209,o),
(159,217,o),
(165,225,cs),
(172,233,o),
(221,292,o),
(235,304,cs),
(255,322,o),
(274,327,o),
(284,327,cs),
(292,327,o),
(302,318,o),
(302,310,cs),
(302,298,o),
(284,285,o),
(257,271,cs),
(220,252,o),
(170,236,o),
(134,226,c),
(215,152,l),
(229,156,o),
(284,173,o),
(304,187,cs),
(343,210,o),
(390,246,o),
(394,287,cs),
(399,331,o),
(378,419,o),
(295,419,cs),
(252,419,o),
(211,411,o),
(181,384,cs),
(158,366,o),
(140,331,o),
(121,316,c),
(149,200,l)
);
}
);
vertWidth = 0;
width = 497;
}
);
},
{
color = 6;
glyphname = l.ss01;
layers = (
{
layerId = m01;
shapes = (
{
closed = 1;
nodes = (
(26,175,ls),
(18,94,o),
(26,1,o),
(109,1,cs),
(149,1,o),
(163,21,o),
(185,61,cs),
(204,95,o),
(208,103,o),
(207,113,cs),
(206,131,o),
(191,139,o),
(178,139,cs),
(164,139,o),
(154,129,o),
(152,125,cs),
(138,97,ls),
(124,71,o),
(113,56,o),
(105,56,cs),
(81,56,o),
(82,133,o),
(84,158,cs),
(146,741,ls),
(149,760,o),
(132,772,o),
(115,772,cs),
(102,772,o),
(89,765,o),
(87,747,cs)
);
}
);
vertWidth = 0;
width = 228;
},
{
layerId = m002;
shapes = (
{
closed = 1;
nodes = (
(44,184,ls),
(33,86,o),
(58,-1,o),
(152,-1,cs),
(198,-1,o),
(230,17,o),
(257,61,cs),
(277,95,o),
(278,110,o),
(274,125,cs),
(270,143,o),
(257,158,o),
(240,163,cs),
(226,166,o),
(211,164,o),
(201,156,c),
(195,149,ls),
(188,140,o),
(181,105,o),
(165,105,cs),
(156,105,o),
(157,135,o),
(169,246,cs),
(217,712,ls),
(221,750,o),
(192,772,o),
(159,772,cs),
(133,772,o),
(102,754,o),
(100,727,cs)
);
}
);
vertWidth = 0;
width = 324;
}
);
},
{
color = 6;
glyphname = m.ss01;
layers = (
{
layerId = m01;
shapes = (
{
closed = 1;
nodes = (
(110,404,o),
(107,416,o),
(87,416,c),
(64,416,o),
(51,406,o),
(49,384,cs),
(11,27,ls),
(10,18,o),
(13,0,o),
(39,0,cs),
(70,0,o),
(69,21,o),
(70,27,cs),
(108,384,ls)
);
},
{
closed = 1;
nodes = (
(63,135,l),
(137,298,o),
(183,362,o),
(233,362,cs),
(263,362,o),
(273,310,o),
(270,278,cs),
(242,27,ls),
(241,18,o),
(244,0,o),
(270,0,c),
(301,0,o),
(301,21,o),
(302,27,cs),
(329,278,ls),
(336,346,o),
(305,421,o),
(236,421,cs),
(171,421,o),
(127,372,o),
(75,292,c)
);
},
{
closed = 1;
nodes = (
(489,173,ls),
(480,86,o),
(489,0,o),
(573,0,cs),
(612,0,o),
(626,20,o),
(649,59,cs),
(668,94,o),
(671,102,o),
(670,112,cs),
(669,129,o),
(655,138,o),
(642,138,cs),
(627,138,o),
(618,128,o),
(615,124,cs),
(601,96,ls),
(587,70,o),
(576,55,o),
(568,55,cs),
(544,55,o),
(545,132,o),
(548,157,cs),
(561,278,ls),
(568,346,o),
(537,421,o),
(468,421,cs),
(403,421,o),
(359,372,o),
(307,292,c),
(295,135,l),
(368,298,o),
(415,362,o),
(465,362,cs),
(494,362,o),
(505,310,o),
(501,278,cs)
);
}
);
vertWidth = 0;
width = 691;
},
{
layerId = m002;
shapes = (
{
closed = 1;
nodes = (
(185,393,o),
(164,416,o),
(129,416,cs),
(95,416,o),
(69,400,o),
(62,367,c),
(29,51,ls),
(25,18,o),
(48,0,o),
(82,0,cs),
(126,0,o),
(145,27,o),
(147,44,cs),
(182,359,ls)
);
},
{
closed = 1;
nodes = (
(144,206,l),
(191,280,o),
(233,316,o),
(260,316,cs),
(279,316,o),
(279,284,o),
(276,254,cs),
(254,55,ls),
(251,26,o),
(272,0,o),
(310,0,cs),
(353,0,o),
(371,27,o),
(373,45,cs),
(394,245,ls),
(406,358,o),
(367,421,o),
(274,421,cs),
(228,421,o),
(190,394,o),
(159,374,c)
);
},
{
closed = 1;
nodes = (
(484,185,ls),
(473,84,o),
(498,0,o),
(592,0,cs),
(638,0,o),
(670,18,o),
(696,62,cs),
(716,96,o),
(718,112,o),
(714,126,cs),
(709,144,o),
(696,159,o),
(680,164,cs),
(665,168,o),
(651,165,o),
(640,157,c),
(634,150,ls),
(627,141,o),
(620,106,o),
(605,106,cs),
(598,106,o),
(596,119,o),
(602,178,cs),
(609,245,ls),
(621,358,o),
(582,421,o),
(489,421,cs),
(443,421,o),
(405,394,o),
(374,374,c),
(359,206,l),
(406,280,o),
(448,316,o),
(475,316,cs),
(494,316,o),
(494,284,o),
(491,254,cs)
);
}
);
vertWidth = 0;
width = 764;
}
);
},
{
color = 6;
glyphname = n.ss01;
layers = (
{
layerId = m01;
shapes = (
{
closed = 1;
nodes = (
(110,404,o),
(107,416,o),
(87,416,cs),
(63,416,o),
(51,405,o),
(49,384,cs),
(11,27,ls),
(10,18,o),
(13,0,o),
(39,0,cs),
(70,0,o),
(69,21,o),
(70,27,cs),
(108,384,ls)
);
},
{
closed = 1;
nodes = (
(258,173,ls),
(248,86,o),
(258,0,o),
(341,0,cs),
(380,0,o),
(394,20,o),
(417,59,cs),
(436,94,o),
(440,102,o),
(438,112,cs),
(437,129,o),
(423,138,o),
(410,138,cs),
(396,138,o),
(386,128,o),
(384,124,cs),
(369,96,ls),
(355,70,o),
(345,55,o),
(336,55,cs),
(312,55,o),
(314,131,o),
(316,157,cs),
(329,278,ls),
(336,346,o),
(305,421,o),
(236,421,cs),
(171,421,o),
(127,372,o),
(75,292,c),
(63,135,l),
(137,298,o),
(183,362,o),
(233,362,cs),
(263,362,o),
(273,310,o),
(270,278,cs)
);
}
);
vertWidth = 0;
width = 460;
},
{
layerId = m002;
shapes = (
{
closed = 1;
nodes = (
(185,394,o),
(165,416,o),
(127,416,cs),
(77,416,o),
(63,380,o),
(62,366,cs),
(29,52,ls),
(25,24,o),
(40,0,o),
(81,0,cs),
(125,0,o),
(145,26,o),
(147,44,cs),
(182,359,ls)
);
},
{
closed = 1;
nodes = (
(270,185,ls),
(261,86,o),
(284,0,o),
(378,0,cs),
(424,0,o),
(456,18,o),
(482,62,cs),
(503,96,o),
(504,112,o),
(500,126,cs),
(495,144,o),
(482,159,o),
(466,164,cs),
(451,168,o),
(435,168,o),
(426,157,cs),
(421,150,ls),
(413,141,o),
(406,106,o),
(391,106,cs),
(383,106,o),
(381,121,o),
(388,189,cs),
(394,245,ls),
(406,358,o),
(367,421,o),
(274,421,cs),
(228,421,o),
(190,394,o),
(159,374,c),
(144,206,l),
(191,280,o),
(233,316,o),
(260,316,cs),
(279,316,o),
(278,284,o),
(276,254,cs)
);
}
);
vertWidth = 0;
width = 550;
}
);
},
{
color = 6;
glyphname = o.ss01;
layers = (
{
layerId = m01;
shapes = (
{
closed = 1;
nodes = (
(217,-5,o),
(321,187,o),
(333,295,cs),
(340,366,o),
(282,416,o),
(198,416,cs),
(64,416,o),
(17,246,o),
(15,113,cs),
(15,24,o),
(69,-5,o),
(118,-5,cs)
);
},
{
closed = 1;
nodes = (
(84,55,o),
(75,91,o),
(76,125,cs),
(78,215,o),
(110,356,o),
(198,356,cs),
(246,356,o),
(277,341,o),
(272,293,cs),
(261,194,o),
(162,55,o),
(118,55,cs)
);
},
{
closed = 1;
nodes = (
(257,342,l),
(346,314,ls),
(360,310,o),
(375,310,o),
(387,318,cs),
(397,326,o),
(402,337,o),
(396,352,cs),
(393,359,o),
(387,365,o),
(373,369,cs),
(264,404,l)
);
}
);
vertWidth = 0;
width = 425;
},
{
layerId = m002;
shapes = (
{
closed = 1;
nodes = (
(280,-5,o),
(377,179,o),
(387,280,cs),
(398,372,o),
(324,416,o),
(234,416,cs),
(80,416,o),
(46,277,o),
(32,143,cs),
(19,29,o),
(93,-5,o),
(151,-5,cs)
);
},
{
closed = 1;
nodes = (
(146,99,o),
(135,118,o),
(138,140,cs),
(144,195,o),
(156,314,o),
(226,314,cs),
(249,314,o),
(277,302,o),
(274,279,cs),
(268,219,o),
(196,99,o),
(163,99,cs)
);
},
{
closed = 1;
nodes = (
(277,302,l),
(366,273,ls),
(412,258,o),
(441,257,o),
(459,274,cs),
(469,285,o),
(474,315,o),
(472,330,cs),
(467,355,o),
(442,362,o),
(403,374,cs),
(293,409,l)
);
}
);
vertWidth = 0;
width = 505;
}
);
},
{
color = 6;
glyphname = t.ss01;
layers = (
{
layerId = m01;
shapes = (
{
closed = 1;
nodes = (
(107,173,ls),
(99,93,o),
(107,0,o),
(190,0,cs),
(229,0,o),
(244,20,o),
(266,59,cs),
(285,94,o),
(289,102,o),
(287,112,cs),
(286,129,o),
(272,138,o),
(259,138,cs),
(245,138,o),
(235,128,o),
(233,124,cs),
(219,96,ls),
(204,70,o),
(194,55,o),
(185,55,cs),
(162,55,o),
(163,132,o),
(165,157,cs),
(228,739,ls),
(230,760,o),
(214,772,o),
(197,772,cs),
(184,772,o),
(171,764,o),
(169,747,cs)
);
},
{
closed = 1;
nodes = (
(320,362,o),
(324,375,o),
(324,390,cs),
(324,404,o),
(316,416,o),
(292,416,cs),
(26,416,ls),
(2,416,o),
(-4,404,o),
(-4,390,cs),
(-4,375,o),
(6,362,o),
(30,362,cs),
(296,362,ls)
);
}
);
vertWidth = 0;
width = 380;
},
{
layerId = m002;
shapes = (
{
closed = 1;
nodes = (
(115,184,ls),
(105,83,o),
(129,-1,o),
(223,-1,cs),
(270,-1,o),
(302,17,o),
(328,61,cs),
(348,95,o),
(349,110,o),
(346,125,cs),
(341,143,o),
(328,158,o),
(311,163,cs),
(297,166,o),
(280,166,o),
(272,156,cs),
(266,149,ls),
(259,140,o),
(252,105,o),
(236,105,cs),
(229,105,o),
(228,125,o),
(234,187,cs),
(289,715,ls),
(292,750,o),
(265,772,o),
(232,772,cs),
(198,772,o),
(172,750,o),
(170,726,cs)
);
},
{
closed = 1;
nodes = (
(358,315,o),
(377,336,o),
(377,365,cs),
(377,394,o),
(352,416,o),
(314,416,cs),
(64,416,ls),
(26,416,o),
(8,394,o),
(8,365,cs),
(8,336,o),
(32,315,o),
(70,315,cs),
(320,315,ls)
);
}
);
vertWidth = 0;
width = 444;
}
);
},
{
color = 6;
glyphname = u.ss01;
layers = (
{
layerId = m01;
shapes = (
{
closed = 1;
nodes = (
(259,173,ls),
(249,83,o),
(259,0,o),
(342,0,cs),
(381,0,o),
(396,20,o),
(418,59,cs),
(437,94,o),
(441,102,o),
(440,112,cs),
(438,129,o),
(424,138,o),
(411,138,cs),
(397,138,o),
(387,128,o),
(385,124,cs),
(371,96,ls),
(356,70,o),
(346,55,o),
(337,55,cs),
(314,55,o),
(315,132,o),
(317,157,cs),
(342,388,ls),
(343,398,o),
(341,416,o),
(315,416,cs),
(284,416,o),
(284,394,o),
(283,388,cs)
);
},
{
closed = 1;
nodes = (
(289,280,l),
(215,118,o),
(169,53,o),
(119,53,cs),
(89,53,o),
(78,106,o),
(82,138,cs),
(109,388,ls),
(110,398,o),
(108,416,o),
(82,416,c),
(51,416,o),
(51,394,o),
(50,388,cs),
(23,138,ls),
(15,70,o),
(46,-5,o),
(115,-5,cs),
(181,-5,o),
(225,44,o),
(277,124,c)
);
}
);
vertWidth = 0;
width = 461;
},
{
layerId = m002;
shapes = (
{
closed = 1;
nodes = (
(270,185,ls),
(259,86,o),
(284,0,o),
(378,0,cs),
(424,0,o),
(456,18,o),
(482,62,cs),
(503,96,o),
(504,112,o),
(500,126,cs),
(495,144,o),
(482,159,o),
(466,164,cs),
(451,168,o),
(437,165,o),
(426,157,c),
(421,150,ls),
(413,141,o),
(406,106,o),
(391,106,cs),
(383,106,o),
(381,132,o),
(391,215,cs),
(407,364,ls),
(411,392,o),
(396,416,o),
(355,416,cs),
(311,416,o),
(291,390,o),
(289,372,cs)
);
},
{
closed = 1;
nodes = (
(292,210,l),
(245,135,o),
(203,100,o),
(176,100,cs),
(157,100,o),
(157,132,o),
(160,162,cs),
(182,361,ls),
(185,390,o),
(164,416,o),
(126,416,cs),
(83,416,o),
(65,388,o),
(63,371,cs),
(42,171,ls),
(30,58,o),
(69,-5,o),
(162,-5,cs),
(208,-5,o),
(271,36,o),
(302,56,c)
);
}
);
vertWidth = 0;
width = 550;
}
);
},
{
color = 6;
glyphname = v.ss01;
layers = (
{
layerId = m01;
shapes = (
{
closed = 1;
nodes = (
(110,404,o),
(99,416,o),
(83,416,cs),
(69,416,o),
(51,405,o),
(49,384,cs),
(21,121,ls),
(14,58,o),
(37,-5,o),
(87,-5,cs),
(158,-5,o),
(228,82,o),
(264,164,cs),
(290,225,o),
(324,320,o),
(341,373,cs),
(349,399,o),
(343,416,o),
(320,416,cs),
(298,416,o),
(287,399,o),
(282,383,cs),
(264,331,o),
(245,272,o),
(222,217,cs),
(202,169,o),
(138,56,o),
(97,56,cs),
(72,56,o),
(78,94,o),
(81,121,cs),
(108,380,ls)
);
},
{
closed = 1;
nodes = (
(322,353,l),
(381,335,ls),
(396,330,o),
(411,331,o),
(423,340,cs),
(432,347,o),
(437,359,o),
(431,373,cs),
(429,380,o),
(423,386,o),
(409,391,cs),
(329,415,l)
);
}
);
vertWidth = 0;
width = 459;
},
{
layerId = m002;
shapes = (
{
closed = 1;
nodes = (
(185,393,o),
(157,416,o),
(125,416,cs),
(99,416,o),
(65,398,o),
(62,366,cs),
(38,137,ls),
(31,67,o),
(56,-5,o),
(131,-5,cs),
(233,-5,o),
(293,65,o),
(340,153,cs),
(367,206,o),
(402,295,o),
(417,343,cs),
(436,404,o),
(392,416,o),
(366,416,cs),
(334,416,o),
(320,400,o),
(305,366,cs),
(298,348,o),
(286,311,o),
(267,265,cs),
(251,223,o),
(222,149,o),
(189,114,cs),
(141,63,o),
(156,118,o),
(163,187,cs),
(181,354,ls)
);
},
{
closed = 1;
nodes = (
(379,303,l),
(421,290,ls),
(467,276,o),
(495,273,o),
(513,291,cs),
(524,302,o),
(529,331,o),
(526,347,cs),
(522,372,o),
(491,381,o),
(451,393,cs),
(390,412,l)
);
}
);
vertWidth = 0;
width = 557;
}
);
},
{
color = 6;
glyphname = w.ss01;
layers = (
{
layerId = m01;
shapes = (
{
closed = 1;
nodes = (
(110,404,o),
(99,416,o),
(83,416,cs),
(69,416,o),
(51,405,o),
(49,384,cs),
(21,121,ls),
(14,58,o),
(37,-5,o),
(87,-5,cs),
(158,-5,o),
(230,81,o),
(264,164,cs),
(291,232,l),
(320,416,l),
(298,416,o),
(287,399,o),
(282,383,cs),
(264,331,o),
(245,272,o),
(222,217,cs),
(202,169,o),
(138,56,o),
(97,56,cs),
(72,56,o),
(78,94,o),
(81,121,cs),
(108,380,ls)
);
},
{
closed = 1;
nodes = (
(346,404,o),
(334,416,o),
(318,416,c),
(268,233,l),
(257,121,ls),
(249,58,o),
(272,-5,o),
(322,-5,cs),
(393,-5,o),
(463,82,o),
(499,164,cs),
(525,225,o),
(560,320,o),
(576,373,cs),
(584,399,o),
(579,416,o),
(555,416,cs),
(533,416,o),
(523,399,o),
(517,383,cs),
(499,331,o),
(480,272,o),
(457,217,cs),
(437,169,o),
(373,56,o),
(333,56,cs),
(308,56,o),
(314,94,o),
(316,121,cs),
(343,380,ls)
);
},
{
closed = 1;
nodes = (
(557,353,l),
(617,335,ls),
(631,330,o),
(646,331,o),
(658,340,cs),
(668,347,o),
(672,359,o),
(666,373,cs),
(664,380,o),
(658,386,o),
(644,391,cs),
(564,415,l)
);
}
);
vertWidth = 0;
width = 676;
},
{
layerId = m002;
shapes = (
{
closed = 1;
nodes = (
(185,393,o),
(157,416,o),
(125,416,cs),
(99,416,o),
(65,398,o),
(62,366,cs),
(38,137,ls),
(31,67,o),
(56,-5,o),
(131,-5,cs),
(233,-5,o),
(296,64,o),
(340,153,cs),
(354,182,l),
(369,416,l),
(337,416,o),
(320,400,o),
(305,366,cs),
(298,348,o),
(286,311,o),
(267,265,cs),
(251,223,o),
(222,149,o),
(189,114,cs),
(141,63,o),
(156,118,o),
(163,187,cs),
(181,354,ls)
);
},
{
closed = 1;
nodes = (
(431,393,o),
(400,416,o),
(368,416,c),
(287,176,l),
(284,137,ls),
(278,67,o),
(302,-5,o),
(377,-5,cs),
(479,-5,o),
(539,65,o),
(586,153,cs),
(613,206,o),
(647,295,o),
(663,343,cs),
(682,404,o),
(638,416,o),
(612,416,cs),
(580,416,o),
(565,400,o),
(551,366,cs),
(544,348,o),
(532,311,o),
(513,265,cs),
(497,223,o),
(468,149,o),
(435,114,cs),
(387,63,o),
(402,118,o),
(409,187,cs),
(426,354,ls)
);
},
{
closed = 1;
nodes = (
(625,303,l),
(666,290,ls),
(713,276,o),
(741,273,o),
(759,291,cs),
(770,302,o),
(775,331,o),
(772,347,cs),
(767,372,o),
(737,381,o),
(697,393,cs),
(636,412,l)
);
}
);
vertWidth = 0;
width = 803;
}
);
},
{
color = 6;
glyphname = x.ss01;
layers = (
{
layerId = m01;
shapes = (
{
closed = 1;
nodes = (
(328,373,o),
(334,377,o),
(333,388,cs),
(333,396,o),
(329,403,o),
(323,409,cs),
(317,415,o),
(309,416,o),
(301,416,cs),
(292,415,o),
(283,412,o),
(278,405,cs),
(13,51,ls),
(6,40,o),
(2,33,o),
(5,25,cs),
(6,19,o),
(10,13,o),
(15,7,cs),
(20,2,o),
(26,0,o),
(34,0,cs),
(44,0,o),
(53,6,o),
(58,12,cs),
(323,366,ls)
);
},
{
closed = 1;
nodes = (
(238,24,ls),
(247,7,o),
(272,-5,o),
(298,-5,cs),
(337,-5,o),
(352,15,o),
(374,55,cs),
(393,89,o),
(397,97,o),
(396,107,cs),
(394,125,o),
(380,133,o),
(367,133,cs),
(353,133,o),
(343,124,o),
(341,119,cs),
(327,91,ls),
(312,65,o),
(304,50,o),
(296,50,cs),
(292,50,o),
(283,59,o),
(280,64,cs),
(100,399,ls),
(95,409,o),
(82,416,o),
(72,416,cs),
(64,416,o),
(57,412,o),
(51,407,cs),
(45,403,o),
(43,396,o),
(42,388,c),
(43,381,o),
(46,373,o),
(50,367,cs)
);
}
);
vertWidth = 0;
width = 417;
},
{
layerId = m002;
shapes = (
{
closed = 1;
nodes = (
(375,339,o),
(383,349,o),
(381,367,cs),
(381,381,o),
(375,393,o),
(364,404,cs),
(354,413,o),
(336,416,o),
(321,416,cs),
(308,416,o),
(287,410,o),
(279,400,cs),
(38,90,ls),
(26,76,o),
(20,62,o),
(24,45,cs),
(26,34,o),
(32,25,o),
(40,14,cs),
(50,5,o),
(67,0,o),
(82,0,cs),
(99,0,o),
(118,8,o),
(126,19,cs),
(367,329,ls)
);
},
{
closed = 1;
nodes = (
(249,24,ls),
(259,7,o),
(287,-5,o),
(318,-5,cs),
(365,-5,o),
(397,18,o),
(423,62,cs),
(443,96,o),
(444,112,o),
(441,126,cs),
(436,144,o),
(423,159,o),
(406,164,cs),
(392,168,o),
(380,163,o),
(372,152,cs),
(366,145,ls),
(359,137,o),
(347,93,o),
(336,93,cs),
(334,93,o),
(329,96,o),
(324,105,cs),
(163,393,l),
(150,410,o),
(132,416,o),
(115,416,cs),
(101,416,o),
(88,412,o),
(76,403,cs),
(67,394,o),
(61,381,o),
(59,368,c),
(61,355,o),
(69,342,o),
(74,334,cs)
);
}
);
vertWidth = 0;
width = 491;
}
);
},
{
color = 6;
glyphname = z.ss01;
layers = (
{
layerId = m01;
shapes = (
{
closed = 1;
nodes = (
(348,387,o),
(341,400,o),
(333,409,cs),
(327,415,o),
(318,416,o),
(310,416,cs),
(302,415,o),
(292,412,o),
(287,405,cs),
(19,52,ls),
(7,37,o),
(10,23,o),
(23,7,cs),
(27,2,o),
(33,0,o),
(42,0,cs),
(51,0,o),
(59,7,o),
(64,13,cs),
(333,367,ls)
);
},
{
closed = 1;
nodes = (
(295,69,o),
(283,55,o),
(274,55,cs),
(230,55,o),
(216,74,o),
(175,74,cs),
(153,74,o),
(105,59,o),
(83,59,c),
(39,0,l),
(75,0,o),
(138,19,o),
(173,19,cs),
(220,19,o),
(217,0,o),
(274,0,cs),
(314,0,o),
(328,20,o),
(350,59,cs),
(369,94,o),
(373,102,o),
(372,112,cs),
(371,129,o),
(356,138,o),
(343,138,cs),
(329,138,o),
(323,128,o),
(321,124,cs),
(308,96,ls)
);
},
{
closed = 1;
nodes = (
(312,416,l),
(78,416,ls),
(55,416,o),
(49,400,o),
(49,386,cs),
(49,372,o),
(58,356,o),
(82,356,cs),
(268,356,l)
);
}
);
vertWidth = 0;
width = 393;
},
{
layerId = m002;
shapes = (
{
closed = 1;
nodes = (
(396,352,o),
(396,381,o),
(374,404,cs),
(364,413,o),
(347,416,o),
(331,416,cs),
(317,416,o),
(301,410,o),
(292,400,cs),
(43,89,ls),
(25,68,o),
(24,40,o),
(45,14,cs),
(55,5,o),
(71,0,o),
(87,0,cs),
(103,0,o),
(121,8,o),
(131,19,cs),
(378,329,ls)
);
},
{
closed = 1;
nodes = (
(331,131,o),
(341,95,o),
(302,95,cs),
(283,95,o),
(265,119,o),
(246,119,cs),
(221,119,o),
(194,105,o),
(169,101,c),
(86,0,l),
(138,5,o),
(187,23,o),
(239,23,cs),
(259,23,o),
(282,2,o),
(302,0,c),
(348,0,o),
(379,23,o),
(405,67,cs),
(425,101,o),
(426,116,o),
(423,131,cs),
(418,149,o),
(405,164,o),
(388,169,cs),
(374,172,o),
(362,168,o),
(354,157,cs),
(348,150,ls)
);
},
{
closed = 1;
nodes = (
(333,416,l),
(115,416,ls),
(80,416,o),
(59,391,o),
(62,362,cs),
(63,334,o),
(87,309,o),
(122,309,cs),
(254,309,l)
);
}
);
vertWidth = 0;
width = 472;
}
);
},
{
color = 6;
glyphname = a.sc;
layers = (
{
layerId = m01;
shapes = (
{
closed = 1;
nodes = (
(211,434,l),
(215,453,o),
(202,470,o),
(180,470,cs),
(163,470,o),
(158,460,o),
(153,448,cs),
(-30,42,ls),
(-39,21,o),
(-24,0,o),
(-4,0,cs),
(14,0,o),
(21,7,o),
(30,25,cs),
(210,426,l)
);
},
{
closed = 1;
nodes = (
(226,208,l),
(217,257,l),
(82,257,l),
(58,208,l)
);
},
{
closed = 1;
nodes = (
(155,425,l),
(217,30,ls),
(220,15,o),
(228,0,o),
(250,0,cs),
(268,0,o),
(280,12,o),
(277,33,cs),
(212,449,l)
);
}
);
vertWidth = 0;
width = 320;
},
{
layerId = m002;
shapes = (
{
closed = 1;
nodes = (
(257,413,l),
(264,451,o),
(241,470,o),
(204,470,cs),
(176,470,o),
(163,455,o),
(154,436,cs),
(-7,77,ls),
(-23,40,o),
(-8,0,o),
(31,0,cs),
(57,0,o),
(74,11,o),
(86,37,cs),
(239,377,l)
);
},
{
closed = 1;
nodes = (
(282,179,l),
(268,263,l),
(102,263,l),
(56,179,l)
);
},
{
closed = 1;
nodes = (
(181,387,l),
(225,53,ls),
(229,21,o),
(245,0,o),
(278,0,cs),
(310,0,o),
(328,25,o),
(322,59,cs),
(257,441,l)
);
}
);
vertWidth = 0;
width = 388;
}
);
metricLeft = A;
metricRight = A;
},
{
color = 6;
glyphname = b.sc;
layers = (
{
layerId = m01;
shapes = (
{
closed = 1;
nodes = (
(140,456,o),
(127,470,o),
(109,470,cs),
(91,470,o),
(81,460,o),
(78,438,cs),
(37,38,ls),
(34,18,o),
(49,0,o),
(68,0,cs),
(82,0,o),
(94,10,o),
(96,32,cs),
(138,431,ls)
);
},
{
closed = 1;
nodes = (
(253,-1,o),
(328,21,o),
(339,109,cs),
(348,208,o),
(238,266,o),
(107,266,c),
(102,203,l),
(219,203,o),
(285,171,o),
(280,119,cs),
(274,70,o),
(202,58,o),
(71,59,c),
(65,0,l)
);
},
{
closed = 1;
nodes = (
(315,203,o),
(353,252,o),
(361,334,cs),
(372,428,o),
(249,470,o),
(108,470,c),
(101,410,l),
(223,411,o),
(308,391,o),
(302,340,cs),
(298,293,o),
(277,266,o),
(112,266,c),
(106,203,l)
);
}
);
vertWidth = 0;
width = 413;
},
{
layerId = m002;
shapes = (
{
closed = 1;
nodes = (
(213,444,o),
(184,470,o),
(150,470,cs),
(120,470,o),
(99,451,o),
(95,418,cs),
(57,64,ls),
(53,30,o),
(82,0,o),
(118,0,cs),
(144,0,o),
(168,19,o),
(171,51,cs),
(208,404,ls)
);
},
{
closed = 1;
nodes = (
(286,0,o),
(383,14,o),
(392,113,cs),
(404,229,o),
(266,280,o),
(178,280,c),
(169,182,l),
(240,182,o),
(289,168,o),
(286,137,cs),
(284,108,o),
(225,95,o),
(125,95,c),
(115,0,l)
);
},
{
closed = 1;
nodes = (
(356,182,o),
(402,234,o),
(412,321,cs),
(424,432,o),
(293,470,o),
(147,470,c),
(134,377,l),
(247,377,o),
(310,359,o),
(307,333,cs),
(303,301,o),
(291,280,o),
(182,280,c),
(172,182,l)
);
}
);
vertWidth = 0;
width = 460;
}
);
metricLeft = B;
metricRight = B;
},
{
color = 6;
glyphname = c.sc;
layers = (
{
layerId = m01;
shapes = (
{
closed = 1;
nodes = (
(342,168,o),
(330,183,o),
(322,188,cs),
(313,192,o),
(291,196,o),
(284,183,cs),
(248,114,o),
(194,55,o),
(163,55,cs),
(124,55,o),
(106,141,o),
(106,201,cs),
(106,270,o),
(152,411,o),
(246,411,cs),
(267,411,o),
(303,407,o),
(319,402,cs),
(333,396,o),
(352,398,o),
(361,418,cs),
(370,436,o),
(365,449,o),
(348,455,cs),
(326,463,o),
(278,470,o),
(246,470,cs),
(112,470,o),
(47,296,o),
(47,201,cs),
(47,74,o),
(96,-5,o),
(163,-5,cs),
(226,-5,o),
(294,71,o),
(336,156,cs)
);
}
);
vertWidth = 0;
width = 382;
},
{
layerId = m002;
shapes = (
{
closed = 1;
nodes = (
(369,157,o),
(368,189,o),
(337,204,cs),
(307,220,o),
(277,211,o),
(267,194,cs),
(241,144,o),
(197,102,o),
(176,102,cs),
(153,102,o),
(144,164,o),
(150,217,cs),
(154,259,o),
(172,359,o),
(242,359,cs),
(255,359,o),
(303,358,o),
(315,355,cs),
(341,352,o),
(368,355,o),
(386,394,cs),
(403,431,o),
(386,442,o),
(358,454,cs),
(345,459,o),
(301,466,o),
(251,466,cs),
(96,466,o),
(55,327,o),
(43,220,cs),
(27,78,o),
(94,-5,o),
(181,-5,cs),
(233,-5,o),
(321,67,o),
(362,144,cs)
);
}
);
vertWidth = 0;
width = 402;
}
);
metricLeft = C;
metricRight = C;
},
{
color = 6;
glyphname = d.sc;
layers = (
{
layerId = m01;
shapes = (
{
closed = 1;
nodes = (
(112,0,ls),
(232,0,o),
(339,93,o),
(354,249,cs),
(367,374,o),
(260,470,o),
(134,470,cs),
(109,470,l),
(127,406,l),
(143,406,ls),
(234,406,o),
(304,341,o),
(295,254,cs),
(283,127,o),
(197,59,o),
(108,59,cs),
(90,59,l),
(68,0,l)
);
},
{
closed = 1;
nodes = (
(141,448,o),
(132,470,o),
(110,470,cs),
(90,470,o),
(82,461,o),
(80,438,cs),
(37,34,ls),
(34,17,o),
(48,0,o),
(69,0,cs),
(90,0,o),
(95,14,o),
(96,26,cs),
(139,426,ls)
);
}
);
vertWidth = 0;
width = 397;
},
{
layerId = m002;
shapes = (
{
closed = 1;
nodes = (
(158,0,ls),
(278,0,o),
(391,93,o),
(407,244,cs),
(419,372,o),
(302,470,o),
(173,470,cs),
(152,470,l),
(171,375,l),
(184,375,ls),
(252,375,o),
(301,321,o),
(293,257,cs),
(285,153,o),
(220,88,o),
(152,88,cs),
(140,88,l),
(119,0,l)
);
},
{
closed = 1;
nodes = (
(214,436,o),
(190,470,o),
(152,470,cs),
(125,470,o),
(101,457,o),
(97,419,cs),
(59,62,ls),
(56,29,o),
(83,0,o),
(120,0,cs),
(152,0,o),
(170,20,o),
(172,45,cs),
(210,399,ls)
);
}
);
vertWidth = 0;
width = 453;
}
);
metricLeft = D;
metricRight = D;
},
{
color = 6;
glyphname = e.sc;
layers = (
{
layerId = m01;
shapes = (
{
closed = 1;
nodes = (
(141,457,o),
(133,470,o),
(112,470,cs),
(91,470,o),
(82,460,o),
(81,444,cs),
(37,34,ls),
(34,15,o),
(48,0,o),
(68,0,cs),
(88,0,o),
(95,14,o),
(96,27,cs),
(139,437,ls)
);
},
{
closed = 1;
nodes = (
(301,0,ls),
(318,0,o),
(328,14,o),
(328,31,cs),
(328,46,o),
(316,61,o),
(296,61,cs),
(87,61,l),
(65,0,l)
);
},
{
closed = 1;
nodes = (
(310,226,ls),
(330,226,o),
(337,239,o),
(337,254,cs),
(337,270,o),
(326,283,o),
(305,283,cs),
(110,283,l),
(106,226,l)
);
},
{
closed = 1;
nodes = (
(346,411,ls),
(365,411,o),
(374,425,o),
(374,442,cs),
(374,456,o),
(362,470,o),
(341,470,cs),
(114,470,l),
(127,411,l)
);
}
);
vertWidth = 0;
width = 371;
},
{
layerId = m002;
shapes = (
{
closed = 1;
nodes = (
(220,444,o),
(190,470,o),
(154,470,cs),
(118,470,o),
(100,448,o),
(97,422,cs),
(59,62,ls),
(56,30,o),
(76,0,o),
(114,0,cs),
(150,0,o),
(175,23,o),
(177,46,cs),
(215,403,ls)
);
},
{
closed = 1;
nodes = (
(333,0,ls),
(367,0,o),
(387,21,o),
(387,52,cs),
(387,82,o),
(362,101,o),
(328,101,cs),
(163,101,l),
(114,0,l)
);
},
{
closed = 1;
nodes = (
(335,178,ls),
(371,178,o),
(393,201,o),
(393,230,cs),
(393,261,o),
(365,283,o),
(331,283,cs),
(184,283,l),
(171,178,l)
);
},
{
closed = 1;
nodes = (
(372,360,ls),
(405,360,o),
(425,386,o),
(425,417,cs),
(425,448,o),
(399,470,o),
(365,470,cs),
(153,470,l),
(190,360,l)
);
}
);
vertWidth = 0;
width = 428;
}
);
metricLeft = E;
metricRight = E;
},
{
color = 6;
glyphname = f.sc;
layers = (
{
layerId = m01;
shapes = (
{
closed = 1;
nodes = (
(141,456,o),
(131,470,o),
(110,470,cs),
(90,470,o),
(82,460,o),
(81,444,cs),
(37,34,ls),
(34,17,o),
(46,0,o),
(67,0,cs),
(88,0,o),
(94,15,o),
(95,27,cs),
(139,437,ls)
);
},
{
closed = 1;
nodes = (
(304,226,ls),
(323,226,o),
(331,238,o),
(331,254,cs),
(331,271,o),
(318,283,o),
(299,283,cs),
(106,283,l),
(101,226,l)
);
},
{
closed = 1;
nodes = (
(347,411,ls),
(367,411,o),
(374,428,o),
(374,444,cs),
(374,460,o),
(362,470,o),
(342,470,cs),
(110,470,l),
(124,411,l)
);
}
);
vertWidth = 0;
width = 344;
},
{
layerId = m002;
shapes = (
{
closed = 1;
nodes = (
(217,444,o),
(188,470,o),
(152,470,cs),
(120,470,o),
(100,451,o),
(96,421,cs),
(59,64,ls),
(56,33,o),
(76,0,o),
(112,0,cs),
(147,0,o),
(173,19,o),
(177,53,cs),
(213,403,ls)
);
},
{
closed = 1;
nodes = (
(333,178,ls),
(367,178,o),
(386,201,o),
(386,230,cs),
(386,261,o),
(359,283,o),
(326,283,cs),
(179,283,l),
(169,178,l)
);
},
{
closed = 1;
nodes = (
(367,360,ls),
(400,360,o),
(424,384,o),
(424,416,cs),
(424,448,o),
(396,470,o),
(362,470,cs),
(152,470,l),
(184,360,l)
);
}
);
vertWidth = 0;
width = 426;
}
);
metricLeft = F;
metricRight = F;
},
{
color = 6;
glyphname = g.sc;
layers = (
{
layerId = m01;
shapes = (
{
closed = 1;
nodes = (
(298,267,o),
(297,273,o),
(252,195,cs),
(229,157,o),
(170,57,o),
(131,57,cs),
(116,57,o),
(110,76,o),
(108,106,cs),
(105,149,o),
(108,223,o),
(110,251,cs),
(113,280,o),
(114,411,o),
(264,411,cs),
(290,411,o),
(299,406,o),
(304,386,cs),
(308,371,o),
(327,361,o),
(342,366,cs),
(359,369,o),
(362,386,o),
(359,400,cs),
(348,448,o),
(305,470,o),
(258,470,cs),
(56,470,o),
(53,273,o),
(51,254,cs),
(49,232,o),
(45,153,o),
(49,109,cs),
(52,58,o),
(76,-5,o),
(132,-5,cs),
(189,-5,o),
(240,62,o),
(289,137,c),
(316,267,l)
);
},
{
closed = 1;
nodes = (
(346,254,o),
(334,267,o),
(316,267,cs),
(295,267,o),
(285,254,o),
(285,236,c),
(263,34,ls),
(260,18,o),
(271,1,o),
(291,0,cs),
(312,-1,o),
(321,14,o),
(322,30,cs),
(343,233,ls)
);
}
);
vertWidth = 0;
width = 400;
},
{
layerId = m002;
shapes = (
{
closed = 1;
nodes = (
(278,280,o),
(262,249,o),
(230,196,cs),
(190,126,o),
(161,100,o),
(153,100,cs),
(147,100,o),
(148,125,o),
(147,154,cs),
(146,185,o),
(148,209,o),
(151,234,cs),
(154,261,o),
(154,362,o),
(242,362,cs),
(248,361,o),
(269,361,o),
(273,350,cs),
(279,335,o),
(311,320,o),
(341,333,cs),
(369,345,o),
(378,368,o),
(368,399,cs),
(354,440,o),
(327,470,o),
(259,470,cs),
(78,470,o),
(53,343,o),
(41,248,cs),
(41,247,o),
(33,160,o),
(35,121,cs),
(39,70,o),
(70,-5,o),
(135,-5,cs),
(192,-5,o),
(250,62,o),
(299,137,c),
(321,280,l)
);
},
{
closed = 1;
nodes = (
(369,242,o),
(351,280,o),
(319,280,cs),
(317,280,o),
(278,272,o),
(274,253,cs),
(242,53,ls),
(239,33,o),
(254,0,o),
(299,0,cs),
(328,0,o),
(347,26,o),
(348,43,cs),
(367,223,ls)
);
}
);
vertWidth = 0;
width = 426;
}
);
metricLeft = G;
metricRight = G;
},
{
color = 6;
glyphname = h.sc;
layers = (
{
layerId = m01;
shapes = (
{
closed = 1;
nodes = (
(141,459,o),
(128,470,o),
(112,470,cs),
(93,470,o),
(82,461,o),
(81,444,cs),
(37,34,ls),
(34,15,o),
(48,0,o),
(68,0,cs),
(88,0,o),
(95,14,o),
(96,27,cs),
(139,437,ls)
);
},
{
closed = 1;
nodes = (
(305,226,l),
(311,283,l),
(109,283,l),
(103,226,l)
);
},
{
closed = 1;
nodes = (
(375,457,o),
(364,470,o),
(343,470,cs),
(326,470,o),
(316,462,o),
(315,448,cs),
(271,34,ls),
(268,17,o),
(278,0,o),
(301,0,cs),
(318,0,o),
(328,13,o),
(329,26,cs),
(373,438,ls)
);
}
);
vertWidth = 0;
width = 415;
},
{
layerId = m002;
shapes = (
{
closed = 1;
nodes = (
(217,442,o),
(191,470,o),
(158,470,cs),
(126,470,o),
(99,448,o),
(96,421,cs),
(59,61,ls),
(56,24,o),
(87,0,o),
(120,0,cs),
(153,0,o),
(175,21,o),
(177,46,cs),
(214,404,ls)
);
},
{
closed = 1;
nodes = (
(301,182,l),
(312,283,l),
(183,283,l),
(171,182,l)
);
},
{
closed = 1;
nodes = (
(426,443,o),
(398,470,o),
(364,470,cs),
(334,470,o),
(308,449,o),
(305,423,cs),
(268,59,ls),
(265,26,o),
(291,0,o),
(328,0,cs),
(358,0,o),
(383,19,o),
(385,44,cs),
(423,404,ls)
);
}
);
vertWidth = 0;
width = 485;
}
);
metricLeft = H;
metricRight = H;
},
{
color = 6;
glyphname = i.sc;
layers = (
{
layerId = m01;
shapes = (
{
closed = 1;
nodes = (
(166,460,o),
(154,470,o),
(134,470,cs),
(115,470,o),
(107,463,o),
(105,444,cs),
(61,34,ls),
(58,17,o),
(70,0,o),
(90,0,cs),
(114,0,o),
(119,19,o),
(120,26,cs),
(164,437,ls)
);
}
);
vertWidth = 0;
width = 229;
},
{
layerId = m002;
shapes = (
{
closed = 1;
nodes = (
(240,443,o),
(213,470,o),
(177,470,cs),
(146,470,o),
(121,450,o),
(118,421,cs),
(80,61,ls),
(76,27,o),
(100,0,o),
(136,0,cs),
(170,0,o),
(195,20,o),
(197,45,cs),
(235,403,ls)
);
}
);
vertWidth = 0;
width = 322;
}
);
metricLeft = I;
metricRight = I;
},
{
color = 6;
glyphname = j.sc;
layers = (
{
layerId = m01;
shapes = (
{
closed = 1;
nodes = (
(154,152,ls),
(151,119,o),
(146,88,o),
(128,70,cs),
(119,59,o),
(102,55,o),
(81,55,cs),
(65,55,o),
(54,64,o),
(44,77,cs),
(28,96,o),
(7,101,o),
(-6,89,cs),
(-19,76,o),
(-18,59,o),
(0,38,cs),
(20,15,o),
(46,-5,o),
(84,-5,cs),
(121,-5,o),
(147,7,o),
(167,25,cs),
(195,51,o),
(208,95,o),
(214,147,cs),
(245,435,ls),
(247,456,o),
(236,470,o),
(215,470,cs),
(197,470,o),
(189,462,o),
(185,443,c)
);
}
);
vertWidth = 0;
width = 288;
},
{
layerId = m002;
shapes = (
{
closed = 1;
nodes = (
(150,204,ls),
(147,177,o),
(142,132,o),
(130,119,cs),
(122,110,o),
(116,108,o),
(106,108,cs),
(94,108,o),
(87,116,o),
(81,122,cs),
(54,145,o),
(12,144,o),
(-9,113,cs),
(-22,94,o),
(-17,64,o),
(1,46,cs),
(12,38,o),
(43,-5,o),
(116,-5,cs),
(158,-5,o),
(190,12,o),
(218,40,cs),
(254,81,o),
(262,159,o),
(266,190,cs),
(287,400,ls),
(292,441,o),
(267,470,o),
(229,470,cs),
(192,470,o),
(176,444,o),
(172,417,cs)
);
}
);
vertWidth = 0;
width = 337;
}
);
metricLeft = J;
metricRight = J;
},
{
color = 6;
glyphname = k.sc;
layers = (
{
layerId = m01;
shapes = (
{
closed = 1;
nodes = (
(360,412,ls),
(371,422,o),
(375,434,o),
(375,444,cs),
(375,455,o),
(365,469,o),
(352,470,cs),
(339,470,o),
(330,467,o),
(320,457,cs),
(96,268,l),
(99,241,l),
(153,236,l)
);
},
{
closed = 1;
nodes = (
(96,271,l),
(99,246,l),
(272,19,ls),
(280,7,o),
(291,0,o),
(304,0,cs),
(316,0,o),
(327,8,o),
(330,21,cs),
(331,31,o),
(327,40,o),
(320,50,cs),
(153,270,l)
);
},
{
closed = 1;
nodes = (
(141,454,o),
(132,470,o),
(112,470,cs),
(93,470,o),
(83,461,o),
(81,437,cs),
(38,38,ls),
(36,18,o),
(50,0,o),
(69,0,cs),
(89,0,o),
(96,17,o),
(97,32,cs),
(139,430,ls)
);
}
);
vertWidth = 0;
width = 337;
},
{
layerId = m002;
shapes = (
{
closed = 1;
nodes = (
(400,365,ls),
(416,379,o),
(422,394,o),
(423,407,cs),
(425,438,o),
(399,467,o),
(365,467,cs),
(350,467,o),
(330,461,o),
(316,449,cs),
(194,349,l),
(182,203,l),
(213,203,l)
);
},
{
closed = 1;
nodes = (
(189,285,l),
(176,158,l),
(274,27,ls),
(287,10,o),
(308,0,o),
(329,0,cs),
(353,0,o),
(378,14,o),
(383,40,cs),
(385,55,o),
(381,71,o),
(371,86,cs),
(217,285,l)
);
},
{
closed = 1;
nodes = (
(216,446,o),
(183,467,o),
(154,467,cs),
(124,467,o),
(97,448,o),
(95,421,cs),
(57,64,ls),
(53,30,o),
(81,0,o),
(118,0,cs),
(147,0,o),
(171,18,o),
(175,49,cs),
(211,403,ls)
);
}
);
vertWidth = 0;
width = 405;
}
);
metricLeft = K;
metricRight = K;
},
{
color = 6;
glyphname = l.sc;
layers = (
{
layerId = m01;
shapes = (
{
closed = 1;
nodes = (
(142,457,o),
(133,470,o),
(113,470,cs),
(96,470,o),
(84,465,o),
(82,444,cs),
(38,34,ls),
(35,15,o),
(49,0,o),
(69,0,cs),
(89,0,o),
(95,15,o),
(96,27,cs),
(140,437,ls)
);
},
{
closed = 1;
nodes = (
(304,0,ls),
(323,0,o),
(331,15,o),
(331,31,cs),
(331,46,o),
(318,61,o),
(299,61,cs),
(88,61,l),
(60,0,l)
);
}
);
vertWidth = 0;
width = 362;
},
{
layerId = m002;
shapes = (
{
closed = 1;
nodes = (
(214,443,o),
(188,470,o),
(152,470,cs),
(118,470,o),
(96,447,o),
(94,419,cs),
(56,59,ls),
(52,26,o),
(77,0,o),
(112,0,cs),
(145,0,o),
(169,20,o),
(171,45,cs),
(209,403,ls)
);
},
{
closed = 1;
nodes = (
(329,0,ls),
(363,0,o),
(384,25,o),
(384,55,cs),
(384,84,o),
(355,108,o),
(322,108,cs),
(155,108,l),
(111,0,l)
);
}
);
vertWidth = 0;
width = 415;
}
);
metricLeft = L;
metricRight = L;
},
{
color = 6;
glyphname = m.sc;
layers = (
{
layerId = m01;
shapes = (
{
closed = 1;
nodes = (
(146,450,ls),
(143,463,o),
(129,470,o),
(110,470,c),
(97,418,l),
(240,20,ls),
(245,7,o),
(253,0,o),
(270,0,c),
(285,61,l)
);
},
{
closed = 1;
nodes = (
(112,470,l),
(96,470,o),
(83,466,o),
(81,444,cs),
(37,34,ls),
(34,17,o),
(46,0,o),
(67,0,cs),
(88,0,o),
(95,15,o),
(96,30,cs),
(138,437,l)
);
},
{
closed = 1;
nodes = (
(493,0,o),
(500,14,o),
(501,27,cs),
(544,437,ls),
(546,459,o),
(536,470,o),
(518,470,c),
(482,410,l),
(442,34,ls),
(440,17,o),
(453,0,o),
(472,0,cs)
);
},
{
closed = 1;
nodes = (
(268,0,l),
(283,0,o),
(290,5,o),
(297,18,cs),
(527,403,l),
(519,470,l),
(510,470,o),
(495,467,o),
(489,457,cs),
(252,59,l)
);
}
);
vertWidth = 0;
width = 587;
},
{
layerId = m002;
shapes = (
{
closed = 1;
nodes = (
(219,430,ls),
(208,460,o),
(184,470,o),
(151,470,c),
(132,336,l),
(241,40,ls),
(251,13,o),
(271,0,o),
(310,0,c),
(342,91,l)
);
},
{
closed = 1;
nodes = (
(152,470,l),
(119,470,o),
(101,455,o),
(97,419,cs),
(59,61,ls),
(57,24,o),
(86,0,o),
(118,0,cs),
(151,0,o),
(175,21,o),
(177,49,cs),
(208,345,l)
);
},
{
closed = 1;
nodes = (
(535,0,o),
(552,19,o),
(555,46,cs),
(593,403,ls),
(599,448,o),
(574,470,o),
(538,470,c),
(468,330,l),
(438,58,ls),
(435,29,o),
(462,0,o),
(503,0,cs)
);
},
{
closed = 1;
nodes = (
(305,0,l),
(345,0,o),
(362,7,o),
(377,33,cs),
(539,311,l),
(539,470,l),
(507,470,o),
(489,460,o),
(475,436,cs),
(277,99,l)
);
}
);
vertWidth = 0;
width = 655;
}
);
metricLeft = M;
metricRight = M;
},
{
color = 6;
glyphname = n.sc;
layers = (
{
layerId = m01;
shapes = (
{
closed = 1;
nodes = (
(149,448,ls),
(145,456,o),
(135,470,o),
(112,470,c),
(108,388,l),
(254,20,ls),
(260,6,o),
(273,0,o),
(298,0,c),
(302,62,l)
);
},
{
closed = 1;
nodes = (
(113,470,l),
(89,470,o),
(82,456,o),
(81,444,cs),
(37,34,ls),
(34,15,o),
(48,0,o),
(68,0,cs),
(88,0,o),
(95,14,o),
(96,30,cs),
(134,386,l)
);
},
{
closed = 1;
nodes = (
(323,0,o),
(329,19,o),
(330,26,cs),
(373,437,ls),
(374,450,o),
(369,470,o),
(346,470,cs),
(323,470,o),
(315,453,o),
(314,437,cs),
(272,44,l),
(296,0,l)
);
}
);
vertWidth = 0;
width = 416;
},
{
layerId = m002;
shapes = (
{
closed = 1;
nodes = (
(216,434,ls),
(209,451,o),
(188,470,o),
(150,470,c),
(146,331,l),
(268,33,ls),
(277,12,o),
(303,0,o),
(334,0,c),
(327,166,l)
);
},
{
closed = 1;
nodes = (
(152,470,l),
(112,470,o),
(99,447,o),
(96,419,cs),
(58,61,ls),
(55,24,o),
(77,0,o),
(109,0,cs),
(143,0,o),
(173,21,o),
(176,49,cs),
(204,322,l)
);
},
{
closed = 1;
nodes = (
(373,0,o),
(383,23,o),
(385,46,cs),
(423,403,ls),
(426,438,o),
(402,470,o),
(365,470,cs),
(334,470,o),
(308,447,o),
(305,421,cs),
(279,164,l),
(331,0,l)
);
}
);
vertWidth = 0;
width = 486;
}
);
metricLeft = N;
metricRight = N;
},
{
color = 6;
glyphname = o.sc;
layers = (
{
layerId = m01;
shapes = (
{
closed = 1;
nodes = (
(299,0,o),
(360,184,o),
(373,315,cs),
(383,394,o),
(328,470,o),
(230,470,cs),
(95,470,o),
(70,320,o),
(70,208,cs),
(68,112,o),
(99,0,o),
(177,0,cs)
);
},
{
closed = 1;
nodes = (
(147,59,o),
(127,145,o),
(129,198,cs),
(134,299,o),
(143,411,o),
(230,411,cs),
(303,411,o),
(317,350,o),
(314,316,cs),
(303,208,o),
(251,59,o),
(177,59,cs)
);
}
);
vertWidth = 0;
width = 417;
},
{
layerId = m002;
shapes = (
{
closed = 1;
nodes = (
(317,0,o),
(390,177,o),
(400,298,cs),
(411,390,o),
(379,470,o),
(233,470,cs),
(109,470,o),
(65,317,o),
(64,211,cs),
(63,119,o),
(89,0,o),
(191,0,cs)
);
},
{
closed = 1;
nodes = (
(187,107,o),
(170,147,o),
(171,198,cs),
(171,251,o),
(177,362,o),
(251,362,cs),
(299,362,o),
(297,337,o),
(293,307,cs),
(284,219,o),
(229,107,o),
(203,107,cs)
);
}
);
vertWidth = 0;
width = 453;
}
);
metricLeft = O;
metricRight = O;
},
{
color = 6;
glyphname = p.sc;
layers = (
{
layerId = m01;
shapes = (
{
closed = 1;
nodes = (
(227,222,o),
(350,219,o),
(364,341,cs),
(373,437,o),
(253,470,o),
(112,470,c),
(116,416,l),
(244,416,o),
(310,393,o),
(304,349,cs),
(298,279,o),
(207,283,o),
(109,283,c),
(106,222,l)
);
},
{
closed = 1;
nodes = (
(141,460,o),
(133,470,o),
(112,470,cs),
(91,470,o),
(82,460,o),
(81,447,cs),
(37,37,ls),
(34,17,o),
(49,0,o),
(68,0,cs),
(89,0,o),
(95,17,o),
(96,30,cs),
(139,440,ls)
);
}
);
vertWidth = 0;
width = 347;
},
{
layerId = m002;
shapes = (
{
closed = 1;
nodes = (
(247,196,o),
(400,200,o),
(413,323,cs),
(425,440,o),
(296,470,o),
(152,470,c),
(160,362,l),
(274,367,o),
(302,360,o),
(298,336,cs),
(295,303,o),
(241,297,o),
(162,297,c),
(154,196,l)
);
},
{
closed = 1;
nodes = (
(215,450,o),
(184,470,o),
(152,470,cs),
(120,470,o),
(99,454,o),
(95,424,cs),
(57,64,ls),
(53,31,o),
(80,0,o),
(118,0,cs),
(150,0,o),
(171,20,o),
(173,49,cs),
(210,406,ls)
);
}
);
vertWidth = 0;
width = 414;
}
);
metricLeft = P;
metricRight = P;
},
{
color = 6;
glyphname = q.sc;
layers = (
{
layerId = m01;
shapes = (
{
closed = 1;
nodes = (
(213,138,o),
(194,137,o),
(182,122,cs),
(175,112,o),
(176,95,o),
(192,80,cs),
(287,-11,ls),
(303,-25,o),
(321,-27,o),
(333,-18,cs),
(345,-8,o),
(343,14,o),
(329,29,cs),
(229,122,ls)
);
},
{
closed = 1;
nodes = (
(299,0,o),
(360,184,o),
(373,315,cs),
(383,394,o),
(328,470,o),
(230,470,cs),
(95,470,o),
(70,320,o),
(70,208,cs),
(68,112,o),
(99,0,o),
(177,0,cs)
);
},
{
closed = 1;
nodes = (
(147,59,o),
(127,145,o),
(129,198,cs),
(134,299,o),
(143,411,o),
(230,411,cs),
(303,411,o),
(317,350,o),
(314,316,cs),
(303,208,o),
(251,59,o),
(177,59,cs)
);
}
);
vertWidth = 0;
width = 417;
},
{
layerId = m002;
shapes = (
{
closed = 1;
nodes = (
(246,176,o),
(219,182,o),
(201,158,cs),
(183,138,o),
(196,107,o),
(222,81,cs),
(304,1,ls),
(329,-24,o),
(354,-25,o),
(373,-6,cs),
(397,15,o),
(386,43,o),
(360,68,cs),
(274,151,l)
);
},
{
closed = 1;
nodes = (
(317,0,o),
(390,177,o),
(400,298,cs),
(411,390,o),
(379,470,o),
(233,470,cs),
(109,470,o),
(65,317,o),
(64,211,cs),
(63,119,o),
(89,0,o),
(191,0,cs)
);
},
{
closed = 1;
nodes = (
(187,107,o),
(170,147,o),
(171,198,cs),
(171,251,o),
(177,362,o),
(251,362,cs),
(299,362,o),
(297,337,o),
(293,307,cs),
(284,219,o),
(229,107,o),
(203,107,cs)
);
}
);
vertWidth = 0;
width = 453;
}
);
metricLeft = Q;
metricRight = Q;
},
{
color = 6;
glyphname = r.sc;
layers = (
{
layerId = m01;
shapes = (
{
closed = 1;
nodes = (
(223,221,o),
(352,216,o),
(365,339,cs),
(374,435,o),
(278,470,o),
(112,470,c),
(108,410,l),
(251,411,o),
(311,392,o),
(307,347,cs),
(298,276,o),
(203,283,o),
(110,283,c),
(107,222,l)
);
},
{
closed = 1;
nodes = (
(88,260,l),
(273,17,ls),
(283,5,o),
(292,0,o),
(302,0,cs),
(314,0,o),
(324,7,o),
(329,17,cs),
(333,23,o),
(333,36,o),
(324,46,cs),
(168,253,l)
);
},
{
closed = 1;
nodes = (
(141,460,o),
(132,470,o),
(112,470,cs),
(91,470,o),
(84,463,o),
(82,444,cs),
(38,38,ls),
(36,15,o),
(50,0,o),
(68,0,cs),
(89,0,o),
(96,15,o),
(97,32,cs),
(140,437,l)
);
}
);
vertWidth = 0;
width = 396;
},
{
layerId = m002;
shapes = (
{
closed = 1;
nodes = (
(212,178,o),
(399,173,o),
(414,320,cs),
(427,436,o),
(280,470,o),
(154,470,c),
(163,359,l),
(267,361,o),
(303,355,o),
(299,320,cs),
(296,287,o),
(198,283,o),
(165,283,c),
(169,178,l)
);
},
{
closed = 1;
nodes = (
(145,210,l),
(283,25,ls),
(296,7,o),
(316,0,o),
(334,0,cs),
(356,0,o),
(380,14,o),
(386,37,cs),
(389,53,o),
(386,69,o),
(375,83,cs),
(281,210,l)
);
},
{
closed = 1;
nodes = (
(218,443,o),
(191,470,o),
(154,470,cs),
(122,470,o),
(101,449,o),
(97,419,cs),
(59,64,ls),
(54,25,o),
(82,0,o),
(115,0,cs),
(147,0,o),
(173,24,o),
(177,56,cs),
(214,403,ls)
);
}
);
vertWidth = 0;
width = 437;
}
);
metricLeft = R;
metricRight = R;
},
{
color = 6;
glyphname = s.sc;
layers = (
{
layerId = m01;
shapes = (
{
closed = 1;
nodes = (
(95,56,o),
(75,71,o),
(71,87,cs),
(68,101,o),
(49,110,o),
(33,106,cs),
(17,102,o),
(13,86,o),
(17,71,cs),
(29,23,o),
(72,-5,o),
(124,-5,cs),
(226,-5,o),
(302,37,o),
(311,129,cs),
(318,197,o),
(254,244,o),
(202,277,cs),
(150,310,o),
(103,330,o),
(105,349,cs),
(108,383,o),
(166,410,o),
(216,410,cs),
(268,410,o),
(282,402,o),
(284,384,cs),
(286,368,o),
(309,360,o),
(324,365,cs),
(340,368,o),
(343,385,o),
(341,399,cs),
(327,451,o),
(287,470,o),
(211,470,cs),
(119,470,o),
(52,417,o),
(46,360,cs),
(40,307,o),
(93,274,o),
(152,240,cs),
(208,208,o),
(258,183,o),
(253,138,cs),
(247,83,o),
(200,56,o),
(120,56,cs)
);
}
);
vertWidth = 0;
width = 362;
},
{
layerId = m002;
shapes = (
{
closed = 1;
nodes = (
(125,103,o),
(110,112,o),
(102,127,cs),
(94,139,o),
(71,156,o),
(40,147,cs),
(12,141,o),
(-3,115,o),
(6,86,cs),
(19,30,o),
(65,-5,o),
(119,-5,cs),
(220,-5,o),
(312,38,o),
(322,132,cs),
(331,221,o),
(249,259,o),
(222,278,cs),
(202,292,o),
(147,315,o),
(144,335,cs),
(142,346,o),
(174,362,o),
(196,362,cs),
(220,362,o),
(241,354,o),
(247,342,cs),
(254,326,o),
(283,309,o),
(313,318,cs),
(342,329,o),
(354,353,o),
(347,381,cs),
(330,442,o),
(280,470,o),
(211,470,cs),
(107,470,o),
(25,409,o),
(30,333,cs),
(34,273,o),
(87,240,o),
(125,217,cs),
(158,198,o),
(210,166,o),
(208,146,cs),
(207,120,o),
(184,103,o),
(153,103,cs)
);
}
);
vertWidth = 0;
width = 367;
}
);
metricLeft = S;
metricRight = S;
},
{
color = 6;
glyphname = t.sc;
layers = (
{
layerId = m01;
shapes = (
{
closed = 1;
nodes = (
(135,424,l),
(95,42,ls),
(91,13,o),
(105,0,o),
(125,0,cs),
(146,0,o),
(152,15,o),
(153,27,cs),
(195,424,l)
);
},
{
closed = 1;
nodes = (
(305,410,o),
(315,424,o),
(315,441,cs),
(315,455,o),
(303,470,o),
(283,470,cs),
(49,470,ls),
(29,470,o),
(21,456,o),
(21,441,cs),
(21,424,o),
(33,410,o),
(53,410,cs),
(287,410,ls)
);
}
);
vertWidth = 0;
width = 273;
},
{
layerId = m002;
shapes = (
{
closed = 1;
nodes = (
(129,392,l),
(93,59,ls),
(88,26,o),
(116,-1,o),
(152,-1,cs),
(183,-1,o),
(206,18,o),
(208,45,cs),
(245,381,l)
);
},
{
closed = 1;
nodes = (
(326,362,o),
(346,386,o),
(345,416,cs),
(342,447,o),
(316,470,o),
(282,470,cs),
(87,470,ls),
(53,470,o),
(31,447,o),
(33,416,cs),
(34,386,o),
(61,362,o),
(95,362,cs),
(290,362,ls)
);
}
);
vertWidth = 0;
width = 324;
}
);
metricLeft = T;
metricRight = T;
},
{
color = 6;
glyphname = u.sc;
layers = (
{
layerId = m01;
shapes = (
{
closed = 1;
nodes = (
(298,266,l),
(294,255,o),
(289,247,o),
(285,241,cs),
(247,171,o),
(158,55,o),
(113,55,cs),
(95,55,o),
(99,90,o),
(104,134,cs),
(137,440,ls),
(139,456,o),
(127,469,o),
(108,470,cs),
(92,470,o),
(80,460,o),
(77,443,cs),
(44,141,ls),
(33,44,o),
(62,-5,o),
(112,-5,cs),
(157,-5,o),
(225,46,o),
(284,126,c)
);
},
{
closed = 1;
nodes = (
(373,460,o),
(363,470,o),
(342,470,cs),
(325,470,o),
(313,462,o),
(311,447,cs),
(269,40,ls),
(265,12,o),
(279,0,o),
(300,0,cs),
(314,0,o),
(326,10,o),
(327,26,cs),
(371,441,ls)
);
}
);
vertWidth = 0;
width = 414;
},
{
layerId = m002;
shapes = (
{
closed = 1;
nodes = (
(314,264,l),
(311,259,o),
(309,255,o),
(307,252,cs),
(276,206,o),
(200,105,o),
(188,105,cs),
(176,105,o),
(180,128,o),
(183,163,cs),
(210,406,ls),
(215,447,o),
(195,470,o),
(162,470,cs),
(128,472,o),
(106,447,o),
(102,417,cs),
(74,154,ls),
(62,50,o),
(101,-5,o),
(153,-5,cs),
(203,-5,o),
(253,27,o),
(297,74,c)
);
},
{
closed = 1;
nodes = (
(434,447,o),
(411,470,o),
(373,470,cs),
(344,470,o),
(326,447,o),
(323,424,cs),
(285,61,ls),
(282,23,o),
(302,0,o),
(334,0,cs),
(365,0,o),
(390,19,o),
(392,45,cs),
(430,407,ls)
);
}
);
vertWidth = 0;
width = 492;
}
);
metricLeft = U;
metricRight = U;
},
{
color = 6;
glyphname = v.sc;
layers = (
{
layerId = m01;
shapes = (
{
closed = 1;
nodes = (
(165,0,o),
(172,10,o),
(179,24,cs),
(364,432,ls),
(373,455,o),
(359,470,o),
(339,470,cs),
(320,470,o),
(312,463,o),
(307,451,cs),
(135,71,l),
(149,0,l)
);
},
{
closed = 1;
nodes = (
(133,444,ls),
(132,460,o),
(119,470,o),
(99,470,cs),
(81,470,o),
(71,462,o),
(74,443,cs),
(116,32,ls),
(118,15,o),
(132,0,o),
(151,0,c),
(172,71,l)
);
}
);
vertWidth = 0;
width = 365;
},
{
layerId = m002;
shapes = (
{
closed = 1;
nodes = (
(179,0,o),
(202,10,o),
(214,34,cs),
(382,392,ls),
(404,436,o),
(373,470,o),
(332,470,cs),
(302,470,o),
(284,454,o),
(273,432,cs),
(125,120,l),
(157,0,l)
);
},
{
closed = 1;
nodes = (
(173,418,ls),
(170,450,o),
(142,470,o),
(111,470,cs),
(76,470,o),
(57,444,o),
(60,410,cs),
(97,51,ls),
(101,17,o),
(134,0,o),
(161,0,c),
(203,122,l)
);
}
);
vertWidth = 0;
width = 374;
}
);
metricLeft = V;
metricRight = V;
},
{
color = 6;
glyphname = w.sc;
layers = (
{
layerId = m01;
shapes = (
{
closed = 1;
nodes = (
(406,0,o),
(411,10,o),
(418,24,cs),
(602,432,ls),
(608,446,o),
(607,470,o),
(576,470,cs),
(560,470,o),
(551,463,o),
(545,451,cs),
(374,71,l),
(386,0,l)
);
},
{
closed = 1;
nodes = (
(133,446,ls),
(132,459,o),
(120,470,o),
(99,470,cs),
(81,470,o),
(71,459,o),
(74,442,cs),
(118,31,ls),
(120,12,o),
(133,0,o),
(153,0,c),
(173,68,l)
);
},
{
closed = 1;
nodes = (
(170,0,o),
(175,14,o),
(181,26,cs),
(347,394,l),
(336,470,l),
(321,470,o),
(311,460,o),
(307,450,cs),
(133,65,l),
(152,0,l)
);
},
{
closed = 1;
nodes = (
(372,446,ls),
(371,461,o),
(355,470,o),
(335,470,c),
(317,394,l),
(356,25,ls),
(358,17,o),
(369,0,o),
(388,0,c),
(411,75,l)
);
}
);
vertWidth = 0;
width = 604;
},
{
layerId = m002;
shapes = (
{
closed = 1;
nodes = (
(426,0,o),
(443,10,o),
(455,34,cs),
(615,392,ls),
(631,429,o),
(607,470,o),
(562,470,cs),
(531,470,o),
(520,457,o),
(506,429,cs),
(378,149,l),
(404,0,l)
);
},
{
closed = 1;
nodes = (
(173,418,ls),
(170,447,o),
(145,470,o),
(110,470,cs),
(78,470,o),
(56,444,o),
(61,410,cs),
(115,51,ls),
(121,14,o),
(149,0,o),
(181,0,c),
(217,144,l)
);
},
{
closed = 1;
nodes = (
(208,0,o),
(220,12,o),
(230,34,cs),
(361,318,l),
(340,470,l),
(299,470,o),
(291,453,o),
(283,434,cs),
(152,144,l),
(176,0,l)
);
},
{
closed = 1;
nodes = (
(398,418,ls),
(393,451,o),
(375,470,o),
(337,470,c),
(299,317,l),
(340,43,ls),
(345,14,o),
(378,0,o),
(407,0,c),
(440,149,l)
);
}
);
vertWidth = 0;
width = 606;
}
);
metricLeft = W;
metricRight = W;
},
{
color = 6;
glyphname = x.sc;
layers = (
{
layerId = m01;
shapes = (
{
closed = 1;
nodes = (
(329,437,o),
(325,456,o),
(313,466,cs),
(300,475,o),
(280,474,o),
(269,457,cs),
(-7,48,ls),
(-16,36,o),
(-14,19,o),
(-1,7,cs),
(12,-4,o),
(33,-4,o),
(44,12,cs),
(318,422,ls)
);
},
{
closed = 1;
nodes = (
(82,472,o),
(63,474,o),
(49,469,cs),
(34,465,o),
(30,448,o),
(38,429,cs),
(224,20,ls),
(233,2,o),
(254,-6,o),
(271,4,cs),
(284,11,o),
(285,29,o),
(278,43,cs),
(90,453,ls)
);
}
);
vertWidth = 0;
width = 321;
},
{
layerId = m002;
shapes = (
{
closed = 1;
nodes = (
(367,402,o),
(366,435,o),
(342,456,cs),
(318,479,o),
(272,473,o),
(253,446,cs),
(11,86,ls),
(-6,62,o),
(-4,37,o),
(19,15,cs),
(42,-5,o),
(90,-8,o),
(109,19,cs),
(352,379,ls)
);
},
{
closed = 1;
nodes = (
(133,462,o),
(99,476,o),
(69,467,cs),
(38,455,o),
(26,424,o),
(43,390,cs),
(214,32,ls),
(229,0,o),
(271,-7,o),
(298,6,cs),
(323,20,o),
(331,46,o),
(318,75,cs),
(146,435,ls)
);
}
);
vertWidth = 0;
width = 337;
}
);
metricLeft = X;
metricRight = X;
},
{
color = 6;
glyphname = y.sc;
layers = (
{
layerId = m01;
shapes = (
{
closed = 1;
nodes = (
(258,273,l),
(171,448,ls),
(164,463,o),
(144,476,o),
(125,468,cs),
(108,460,o),
(108,442,o),
(115,426,cs),
(217,222,l)
);
},
{
closed = 1;
nodes = (
(408,435,o),
(405,455,o),
(393,465,cs),
(381,473,o),
(362,473,o),
(349,454,cs),
(78,46,ls),
(69,33,o),
(70,17,o),
(84,7,cs),
(96,-4,o),
(116,-4,o),
(127,12,cs),
(398,419,ls)
);
}
);
vertWidth = 0;
width = 409;
},
{
layerId = m002;
shapes = (
{
closed = 1;
nodes = (
(277,298,l),
(201,437,ls),
(178,476,o),
(140,476,o),
(122,467,cs),
(88,455,o),
(84,421,o),
(100,396,cs),
(201,210,l)
);
},
{
closed = 1;
nodes = (
(464,410,o),
(455,437,o),
(432,457,cs),
(408,478,o),
(369,476,o),
(349,449,cs),
(71,86,ls),
(52,62,o),
(57,37,o),
(79,15,cs),
(102,-5,o),
(145,-8,o),
(167,20,cs),
(443,384,ls)
);
}
);
vertWidth = 0;
width = 442;
}
);
metricLeft = Y;
metricRight = Y;
},
{
color = 6;
glyphname = z.sc;
layers = (
{
layerId = m01;
shapes = (
{
closed = 1;
nodes = (
(338,430,o),
(340,446,o),
(333,456,cs),
(328,465,o),
(316,470,o),
(303,470,cs),
(295,470,o),
(288,465,o),
(283,457,cs),
(9,49,ls),
(3,40,o),
(-2,26,o),
(5,15,cs),
(11,6,o),
(22,0,o),
(38,0,cs),
(44,0,o),
(51,6,o),
(60,18,cs),
(330,421,ls)
);
},
{
closed = 1;
nodes = (
(267,0,ls),
(288,0,o),
(296,15,o),
(295,30,cs),
(294,46,o),
(281,59,o),
(263,59,cs),
(77,59,l),
(37,0,l)
);
},
{
closed = 1;
nodes = (
(306,470,l),
(74,470,ls),
(54,470,o),
(45,456,o),
(47,441,cs),
(48,424,o),
(58,411,o),
(79,411,cs),
(263,411,l)
);
}
);
vertWidth = 0;
width = 335;
},
{
layerId = m002;
shapes = (
{
closed = 1;
nodes = (
(388,398,o),
(389,422,o),
(378,441,cs),
(367,459,o),
(346,470,o),
(321,470,cs),
(305,470,o),
(288,461,o),
(278,447,cs),
(3,87,ls),
(-9,70,o),
(-12,49,o),
(-1,29,cs),
(8,12,o),
(31,0,o),
(58,0,cs),
(76,0,o),
(92,11,o),
(101,20,cs),
(373,379,ls)
);
},
{
closed = 1;
nodes = (
(291,0,ls),
(325,0,o),
(348,23,o),
(346,52,cs),
(343,83,o),
(317,108,o),
(284,108,cs),
(139,108,l),
(57,0,l)
);
},
{
closed = 1;
nodes = (
(325,470,l),
(85,470,ls),
(52,470,o),
(30,447,o),
(32,416,cs),
(33,386,o),
(59,362,o),
(94,362,cs),
(241,362,l)
);
}
);
vertWidth = 0;
width = 371;
}
);
metricLeft = Z;
metricRight = Z;
},
{
color = 6;
glyphname = zero;
layers = (
{
layerId = m01;
shapes = (
{
closed = 1;
nodes = (
(316,-4,o),
(494,240,o),
(494,457,cs),
(494,561,o),
(444,675,o),
(318,675,cs),
(133,675,o),
(36,411,o),
(36,211,cs),
(36,89,o),
(90,-6,o),
(179,-5,cs)
);
},
{
closed = 1;
nodes = (
(138,56,o),
(97,105,o),
(97,202,cs),
(97,354,o),
(169,614,o),
(326,614,cs),
(398,614,o),
(432,556,o),
(432,470,cs),
(432,261,o),
(268,56,o),
(175,56,cs)
);
}
);
vertWidth = 0;
width = 529;
},
{
layerId = m002;
shapes = (
{
closed = 1;
nodes = (
(358,-4,o),
(535,265,o),
(520,469,cs),
(514,560,o),
(468,675,o),
(326,675,cs),
(88,675,o),
(23,345,o),
(32,204,cs),
(39,108,o),
(90,-5,o),
(197,-5,cs)
);
},
{
closed = 1;
nodes = (
(171,105,o),
(156,127,o),
(150,200,cs),
(140,334,o),
(206,565,o),
(336,565,cs),
(386,565,o),
(399,533,o),
(403,473,cs),
(417,267,o),
(249,105,o),
(190,105,cs)
);
}
);
vertWidth = 0;
width = 565;
},
{
associatedMasterId = m01;
layerId = "8543755A-E0FE-465D-87BE-535F6D4CAE80";
name = background;
shapes = (
{
closed = 1;
nodes = (
(316,-4,o),
(498,271,o),
(484,478,cs),
(478,567,o),
(435,675,o),
(309,675,cs),
(84,675,o),
(17,333,o),
(27,190,cs),
(33,96,o),
(81,-5,o),
(170,-5,cs)
);
},
{
closed = 1;
nodes = (
(128,56,o),
(95,100,o),
(89,184,cs),
(78,331,o),
(153,614,o),
(316,614,cs),
(393,614,o),
(417,550,o),
(422,481,cs),
(437,252,o),
(242,56,o),
(165,56,cs)
);
}
);
vertWidth = 0;
width = 594;
}
);
unicode = 48;
},
{
color = 6;
glyphname = one;
layers = (
{
layerId = m01;
shapes = (
{
closed = 1;
nodes = (
(126,0,o),
(141,7,o),
(143,27,cs),
(209,645,ls),
(211,665,o),
(197,675,o),
(182,675,cs),
(166,675,o),
(151,666,o),
(149,645,cs),
(83,33,ls),
(81,11,o),
(96,0,o),
(112,0,cs)
);
}
);
vertWidth = 0;
width = 298;
},
{
layerId = m002;
shapes = (
{
closed = 1;
nodes = (
(144,0,o),
(172,14,o),
(176,46,cs),
(238,615,ls),
(241,651,o),
(210,675,o),
(178,675,cs),
(151,675,o),
(121,658,o),
(118,625,cs),
(57,61,ls),
(53,21,o),
(86,0,o),
(118,0,cs)
);
}
);
vertWidth = 0;
width = 289;
}
);
unicode = 49;
},
{
color = 6;
glyphname = two;
layers = (
{
layerId = m01;
shapes = (
{
closed = 1;
nodes = (
(27,0,l),
(81,58,l),
(143,137,o),
(295,312,o),
(335,364,cs),
(394,438,o),
(424,500,o),
(424,550,cs),
(424,594,o),
(402,630,o),
(356,656,cs),
(330,671,o),
(299,677,o),
(267,677,cs),
(192,677,o),
(109,643,o),
(59,600,cs),
(33,577,o),
(38,562,o),
(49,550,cs),
(58,539,o),
(77,536,o),
(106,560,cs),
(146,594,o),
(215,617,o),
(271,617,cs),
(295,617,o),
(316,613,o),
(333,604,cs),
(352,593,o),
(359,576,o),
(359,556,cs),
(359,510,o),
(318,444,o),
(279,394,cs),
(251,358,o),
(84,152,o),
(-10,42,cs),
(-24,25,o),
(-10,0,o),
(12,0,cs)
);
},
{
closed = 1;
nodes = (
(335,0,ls),
(359,0,o),
(365,15,o),
(364,30,cs),
(362,44,o),
(355,59,o),
(331,59,cs),
(33,59,l),
(12,0,l)
);
}
);
vertWidth = 0;
width = 447;
},
{
layerId = m002;
shapes = (
{
closed = 1;
nodes = (
(89,0,l),
(137,58,l),
(196,133,o),
(310,267,o),
(348,315,cs),
(424,410,o),
(461,480,o),
(461,536,cs),
(461,583,o),
(434,619,o),
(381,650,cs),
(352,668,o),
(315,676,o),
(277,676,cs),
(198,676,o),
(115,643,o),
(68,599,cs),
(36,569,o),
(40,543,o),
(57,520,cs),
(72,500,o),
(113,491,o),
(147,522,cs),
(185,554,o),
(240,573,o),
(284,573,cs),
(302,573,o),
(318,569,o),
(330,562,cs),
(339,557,o),
(342,549,o),
(342,538,cs),
(342,507,o),
(311,456,o),
(273,407,cs),
(245,372,o),
(138,246,o),
(18,95,cs),
(-19,49,o),
(0,0,o),
(48,0,cs)
);
},
{
closed = 1;
nodes = (
(350,0,ls),
(386,0,o),
(409,17,o),
(406,49,cs),
(404,77,o),
(381,102,o),
(343,102,cs),
(39,102,l),
(46,0,l)
);
}
);
vertWidth = 0;
width = 506;
}
);
unicode = 50;
},
{
color = 6;
glyphname = three;
layers = (
{
layerId = m01;
shapes = (
{
closed = 1;
nodes = (
(263,-5,o),
(418,109,o),
(418,254,cs),
(418,347,o),
(359,419,o),
(248,419,c),
(125,385,l),
(125,324,l),
(171,348,o),
(216,362,o),
(260,362,cs),
(333,362,o),
(359,310,o),
(359,257,cs),
(359,143,o),
(230,56,o),
(129,56,cs),
(94,56,o),
(69,67,o),
(45,83,cs),
(25,97,o),
(10,90,o),
(1,78,cs),
(-6,67,o),
(-7,53,o),
(13,37,cs),
(34,19,o),
(86,-5,o),
(132,-5,cs)
);
},
{
closed = 1;
nodes = (
(263,419,o),
(397,519,o),
(392,593,cs),
(388,644,o),
(340,675,o),
(270,675,cs),
(213,675,o),
(140,657,o),
(68,604,cs),
(50,590,o),
(50,570,o),
(58,558,cs),
(67,546,o),
(86,541,o),
(101,551,cs),
(170,600,o),
(236,620,o),
(280,620,cs),
(312,620,o),
(333,609,o),
(333,593,cs),
(333,548,o),
(185,434,o),
(88,375,cs),
(70,365,o),
(71,345,o),
(78,333,cs),
(86,321,o),
(102,312,o),
(125,324,c)
);
}
);
vertWidth = 0;
width = 457;
},
{
layerId = m002;
shapes = (
{
closed = 1;
nodes = (
(279,-5,o),
(446,116,o),
(446,279,cs),
(446,367,o),
(380,438,o),
(271,438,c),
(157,388,l),
(157,292,l),
(203,327,o),
(233,331,o),
(266,331,cs),
(303,331,o),
(329,307,o),
(329,266,cs),
(329,169,o),
(217,102,o),
(127,102,cs),
(106,102,o),
(91,108,o),
(64,126,cs),
(33,146,o),
(-6,134,o),
(-18,110,cs),
(-29,90,o),
(-30,64,o),
(12,33,cs),
(45,8,o),
(89,-5,o),
(133,-5,cs)
);
},
{
closed = 1;
nodes = (
(285,386,o),
(423,497,o),
(419,575,cs),
(417,636,o),
(353,675,o),
(284,675,cs),
(208,675,o),
(138,653,o),
(69,606,cs),
(39,584,o),
(34,554,o),
(51,529,cs),
(68,504,o),
(108,497,o),
(134,514,cs),
(197,558,o),
(248,577,o),
(274,577,cs),
(293,577,o),
(303,571,o),
(303,558,cs),
(303,538,o),
(176,444,o),
(87,384,cs),
(56,362,o),
(57,333,o),
(70,309,cs),
(87,277,o),
(126,270,o),
(157,292,cs)
);
}
);
vertWidth = 0;
width = 503;
},
{
associatedMasterId = m01;
layerId = "716C666E-F55F-44EC-BD0D-934AB2712F13";
name = background;
shapes = (
{
closed = 1;
nodes = (
(182,352,o),
(227,362,o),
(260,362,cs),
(330,362,o),
(355,316,o),
(359,267,cs),
(367,149,o),
(234,56,o),
(129,56,cs),
(101,56,o),
(74,63,o),
(52,78,cs),
(23,100,o),
(7,86,o),
(1,77,cs),
(-4,69,o),
(-8,53,o),
(23,30,cs),
(53,6,o),
(91,-5,o),
(132,-5,cs),
(267,-5,o),
(429,116,o),
(418,268,cs),
(412,360,o),
(347,421,o),
(248,421,cs),
(206,421,o),
(157,410,o),
(103,385,c),
(127,327,l)
);
},
{
closed = 1;
nodes = (
(264,422,o),
(397,519,o),
(392,593,cs),
(388,644,o),
(340,675,o),
(270,675,cs),
(213,675,o),
(140,655,o),
(72,607,cs),
(44,588,o),
(52,568,o),
(58,558,cs),
(67,546,o),
(86,541,o),
(101,551,cs),
(170,600,o),
(236,620,o),
(280,620,cs),
(312,620,o),
(331,609,o),
(333,593,cs),
(335,554,o),
(183,437,o),
(88,375,cs),
(69,362,o),
(74,342,o),
(78,333,cs),
(86,321,o),
(108,312,o),
(125,324,cs)
);
}
);
vertWidth = 0;
width = 594;
},
{
associatedMasterId = m002;
layerId = "3F1AC077-732A-415E-9B2E-3882532D6788";
name = background;
shapes = (
{
closed = 1;
nodes = (
(210,331,o),
(233,335,o),
(266,335,cs),
(312,335,o),
(334,311,o),
(329,271,cs),
(318,172,o),
(216,102,o),
(127,102,cs),
(106,102,o),
(90,107,o),
(74,119,cs),
(34,147,o),
(-6,134,o),
(-18,110,cs),
(-29,90,o),
(-30,64,o),
(12,33,cs),
(45,8,o),
(89,-5,o),
(133,-5,cs),
(276,-5,o),
(428,114,o),
(444,272,cs),
(455,372,o),
(380,450,o),
(271,450,cs),
(220,450,o),
(160,435,o),
(100,403,c),
(146,297,l)
);
},
{
closed = 1;
nodes = (
(285,397,o),
(410,487,o),
(419,571,cs),
(428,636,o),
(353,675,o),
(272,675,cs),
(208,675,o),
(138,653,o),
(69,606,cs),
(32,581,o),
(36,550,o),
(51,529,cs),
(67,503,o),
(101,504,o),
(127,522,cs),
(190,565,o),
(248,580,o),
(285,580,cs),
(293,580,o),
(305,579,o),
(304,571,cs),
(302,552,o),
(173,453,o),
(87,396,cs),
(56,375,o),
(57,345,o),
(70,321,cs),
(86,296,o),
(126,282,o),
(157,304,cs)
);
},
{
closed = 1;
nodes = (
(-29,90,o),
(-30,64,o),
(12,33,cs),
(45,8,o),
(89,-5,o),
(133,-5,cs),
(276,-5,o),
(428,114,o),
(444,272,cs),
(455,372,o),
(380,450,o),
(271,450,c),
(157,400,l),
(157,304,l),
(201,335,o),
(233,343,o),
(266,343,cs),
(312,343,o),
(334,311,o),
(329,271,cs),
(318,172,o),
(216,102,o),
(127,102,cs),
(106,102,o),
(90,107,o),
(74,119,cs),
(34,147,o),
(-6,134,o),
(-18,110,cs)
);
},
{
closed = 1;
nodes = (
(86,296,o),
(126,282,o),
(157,304,cs),
(285,397,o),
(423,497,o),
(419,575,cs),
(417,636,o),
(353,675,o),
(284,675,cs),
(208,675,o),
(138,653,o),
(69,606,cs),
(32,581,o),
(36,550,o),
(51,529,cs),
(67,503,o),
(101,504,o),
(127,522,cs),
(190,565,o),
(248,580,o),
(274,580,cs),
(293,580,o),
(303,571,o),
(303,558,cs),
(303,545,o),
(173,453,o),
(87,396,cs),
(56,375,o),
(57,345,o),
(70,321,cs)
);
}
);
vertWidth = 0;
width = 594;
}
);
unicode = 51;
},
{
color = 6;
glyphname = four;
layers = (
{
layerId = m01;
shapes = (
{
closed = 1;
nodes = (
(43,175,o),
(55,160,o),
(76,160,c),
(105,190,l),
(153,642,ls),
(156,663,o),
(140,675,o),
(126,675,cs),
(112,675,o),
(96,668,o),
(94,646,cs),
(44,189,ls)
);
},
{
closed = 1;
nodes = (
(254,-1,o),
(271,7,o),
(273,31,cs),
(308,335,ls),
(310,355,o),
(296,368,o),
(282,369,cs),
(266,371,o),
(251,364,o),
(248,343,cs),
(214,37,ls),
(210,13,o),
(225,1,o),
(240,0,cs)
);
},
{
closed = 1;
nodes = (
(461,202,o),
(447,214,o),
(428,214,cs),
(76,214,l),
(76,160,l),
(432,160,ls),
(451,160,o),
(461,173,o),
(461,188,cs)
);
}
);
vertWidth = 0;
width = 455;
},
{
layerId = m002;
shapes = (
{
closed = 1;
nodes = (
(26,172,o),
(52,145,o),
(90,145,c),
(147,195,l),
(192,617,ls),
(196,655,o),
(166,675,o),
(137,675,cs),
(108,675,o),
(78,659,o),
(75,626,cs),
(30,202,ls)
);
},
{
closed = 1;
nodes = (
(324,0,o),
(346,19,o),
(348,52,cs),
(373,331,ls),
(377,366,o),
(359,392,o),
(327,393,cs),
(293,394,o),
(267,380,o),
(264,347,cs),
(236,70,ls),
(232,31,o),
(249,0,o),
(286,0,cs)
);
},
{
closed = 1;
nodes = (
(494,228,o),
(473,252,o),
(440,252,cs),
(100,252,l),
(90,145,l),
(438,145,ls),
(472,145,o),
(492,169,o),
(493,200,cs)
);
}
);
vertWidth = 0;
width = 513;
}
);
unicode = 52;
},
{
color = 6;
glyphname = five;
layers = (
{
layerId = m01;
shapes = (
{
closed = 1;
nodes = (
(299,-4,o),
(404,114,o),
(404,239,cs),
(404,352,o),
(311,421,o),
(194,421,cs),
(160,421,o),
(114,406,o),
(89,396,c),
(89,340,l),
(143,355,o),
(172,361,o),
(202,361,cs),
(289,361,o),
(343,314,o),
(343,239,cs),
(343,140,o),
(263,56,o),
(152,56,cs),
(122,56,o),
(95,63,o),
(77,80,cs),
(69,88,o),
(61,90,o),
(50,90,cs),
(37,90,o),
(25,80,o),
(25,64,cs),
(25,53,o),
(31,44,o),
(43,33,cs),
(69,10,o),
(109,-4,o),
(156,-4,cs)
);
},
{
closed = 1;
nodes = (
(53,350,o),
(71,335,o),
(89,340,c),
(113,368,l),
(145,644,l),
(124,675,l),
(100,675,o),
(88,665,o),
(86,643,cs),
(56,368,ls)
);
},
{
closed = 1;
nodes = (
(418,662,o),
(409,675,o),
(385,675,cs),
(124,675,l),
(124,621,l),
(386,621,ls),
(410,621,o),
(418,633,o),
(418,647,cs)
);
}
);
vertWidth = 0;
width = 443;
},
{
layerId = m002;
shapes = (
{
closed = 1;
nodes = (
(299,-4,o),
(418,116,o),
(418,241,cs),
(418,348,o),
(331,442,o),
(202,442,cs),
(164,442,o),
(116,435,o),
(102,432,c),
(102,315,l),
(139,328,o),
(157,334,o),
(200,334,cs),
(271,334,o),
(298,283,o),
(298,233,cs),
(298,160,o),
(230,99,o),
(149,99,cs),
(127,99,o),
(109,102,o),
(96,110,cs),
(82,120,o),
(65,131,o),
(50,131,cs),
(25,131,o),
(1,115,o),
(1,86,cs),
(1,69,o),
(11,53,o),
(29,37,cs),
(58,10,o),
(106,-4,o),
(154,-4,cs)
);
},
{
closed = 1;
nodes = (
(26,334,o),
(69,305,o),
(102,315,c),
(152,361,l),
(179,628,l),
(140,678,l),
(89,678,o),
(64,659,o),
(59,623,cs),
(31,371,ls)
);
},
{
closed = 1;
nodes = (
(454,661,o),
(426,678,o),
(391,678,cs),
(140,678,l),
(129,579,l),
(398,579,ls),
(436,579,o),
(451,600,o),
(453,628,cs)
);
}
);
vertWidth = 0;
width = 459;
},
{
associatedMasterId = m01;
layerId = "8D67719A-8FC5-4BD8-AAFD-5B60171133D1";
name = background;
shapes = (
{
closed = 1;
nodes = (
(143,355,o),
(176,361,o),
(206,361,cs),
(299,361,o),
(343,299,o),
(347,251,cs),
(353,177,o),
(271,56,o),
(156,56,cs),
(126,56,o),
(99,64,o),
(81,80,cs),
(72,88,o),
(64,90,o),
(56,90,cs),
(40,90,o),
(27,80,o),
(29,64,cs),
(30,55,o),
(34,44,o),
(46,33,cs),
(72,10,o),
(113,-4,o),
(159,-4,cs),
(315,-4,o),
(413,149,o),
(406,252,cs),
(400,341,o),
(318,421,o),
(197,421,cs),
(164,421,o),
(120,411,o),
(93,402,c),
(89,340,l)
);
},
{
closed = 1;
nodes = (
(127,675,l),
(115,675,o),
(106,672,o),
(101,668,cs),
(95,663,o),
(90,655,o),
(89,643,cs),
(59,368,ls),
(57,350,o),
(74,340,o),
(89,340,c),
(120,368,l),
(150,643,l)
);
},
{
closed = 1;
nodes = (
(419,621,ls),
(443,621,o),
(450,633,o),
(449,647,cs),
(448,662,o),
(440,675,o),
(416,675,cs),
(126,675,l),
(129,621,l)
);
}
);
vertWidth = 0;
width = 594;
}
);
unicode = 53;
},
{
color = 6;
glyphname = six;
layers = (
{
layerId = m01;
shapes = (
{
closed = 1;
nodes = (
(90,134,l),
(82,248,o),
(116,342,o),
(191,460,cs),
(220,505,o),
(272,560,o),
(355,621,cs),
(367,631,o),
(372,642,o),
(372,651,cs),
(369,664,o),
(359,675,o),
(343,675,cs),
(336,675,o),
(328,672,o),
(320,668,cs),
(266,636,o),
(173,546,o),
(137,489,cs),
(64,375,o),
(25,254,o),
(32,134,c)
);
},
{
closed = 1;
nodes = (
(296,0,o),
(407,164,o),
(407,290,cs),
(407,374,o),
(362,419,o),
(268,419,cs),
(165,419,o),
(97,364,o),
(61,290,c),
(32,134,l),
(37,62,o),
(99,0,o),
(179,0,cs)
);
},
{
closed = 1;
nodes = (
(134,59,o),
(95,93,o),
(90,160,cs),
(83,255,o),
(149,360,o),
(271,360,cs),
(329,360,o),
(348,335,o),
(348,289,cs),
(348,196,o),
(254,59,o),
(173,59,cs)
);
}
);
vertWidth = 0;
width = 467;
},
{
layerId = m002;
shapes = (
{
closed = 1;
nodes = (
(110,150,l),
(109,249,o),
(162,327,o),
(236,441,cs),
(265,485,o),
(310,531,o),
(385,587,cs),
(405,601,o),
(413,619,o),
(411,638,cs),
(409,664,o),
(384,684,o),
(354,684,cs),
(342,684,o),
(329,681,o),
(316,675,c),
(261,642,o),
(175,552,o),
(137,500,cs),
(71,409,o),
(8,261,o),
(11,150,c)
);
},
{
closed = 1;
nodes = (
(296,-1,o),
(434,160,o),
(434,283,cs),
(434,366,o),
(378,421,o),
(280,421,cs),
(172,421,o),
(89,353,o),
(61,279,cs),
(11,150,l),
(11,89,o),
(76,-1,o),
(172,-1,cs)
);
},
{
closed = 1;
nodes = (
(141,103,o),
(125,118,o),
(121,166,cs),
(116,242,o),
(194,316,o),
(279,316,cs),
(315,316,o),
(323,293,o),
(323,273,cs),
(323,209,o),
(219,103,o),
(173,103,cs)
);
}
);
vertWidth = 0;
width = 488;
}
);
unicode = 54;
},
{
color = 6;
glyphname = seven;
layers = (
{
layerId = m01;
shapes = (
{
closed = 1;
nodes = (
(276,0,o),
(291,10,o),
(293,31,cs),
(360,646,ls),
(361,661,o),
(353,675,o),
(329,675,cs),
(316,675,o),
(303,665,o),
(302,652,cs),
(234,31,ls),
(232,10,o),
(246,0,o),
(261,0,cs)
);
},
{
closed = 1;
nodes = (
(8,634,o),
(19,621,o),
(40,621,cs),
(334,621,l),
(330,675,l),
(37,675,ls),
(15,675,o),
(6,662,o),
(7,649,cs)
);
}
);
vertWidth = 0;
width = 410;
},
{
layerId = m002;
shapes = (
{
closed = 1;
nodes = (
(295,0,o),
(323,18,o),
(327,50,cs),
(387,623,ls),
(391,655,o),
(379,675,o),
(328,675,cs),
(302,675,o),
(276,663,o),
(272,638,cs),
(211,59,ls),
(208,24,o),
(235,0,o),
(267,0,cs)
);
},
{
closed = 1;
nodes = (
(-2,598,o),
(24,580,o),
(59,580,cs),
(336,580,l),
(329,675,l),
(52,675,ls),
(17,675,o),
(-5,655,o),
(-4,626,cs)
);
}
);
vertWidth = 0;
width = 451;
}
);
unicode = 55;
},
{
color = 6;
glyphname = eight;
layers = (
{
layerId = m01;
shapes = (
{
closed = 1;
nodes = (
(129,53,o),
(83,108,o),
(83,163,cs),
(83,239,o),
(113,285,o),
(204,352,cs),
(296,418,o),
(405,503,o),
(405,580,cs),
(405,644,o),
(320,675,o),
(240,675,cs),
(153,675,o),
(61,633,o),
(61,532,cs),
(61,460,o),
(127,398,o),
(159,366,cs),
(177,348,ls),
(220,305,o),
(303,230,o),
(303,177,cs),
(303,120,o),
(258,53,o),
(189,53,cs)
);
},
{
closed = 1;
nodes = (
(290,-5,o),
(364,69,o),
(364,177,cs),
(364,236,o),
(298,315,o),
(230,380,cs),
(195,415,ls),
(166,443,o),
(121,482,o),
(121,536,c),
(121,599,o),
(184,615,o),
(236,615,cs),
(295,615,o),
(349,601,o),
(349,580,cs),
(349,549,o),
(249,459,o),
(166,398,cs),
(51,314,o),
(25,248,o),
(25,158,cs),
(25,64,o),
(95,-5,o),
(185,-5,cs)
);
}
);
vertWidth = 0;
width = 426;
},
{
layerId = m002;
shapes = (
{
closed = 1;
nodes = (
(171,96,o),
(143,128,o),
(140,176,cs),
(138,210,o),
(144,263,o),
(254,343,cs),
(347,411,o),
(453,481,o),
(447,561,cs),
(441,640,o),
(334,676,o),
(260,676,cs),
(169,676,o),
(55,625,o),
(63,508,cs),
(69,422,o),
(143,373,o),
(169,347,cs),
(191,324,ls),
(234,282,o),
(290,227,o),
(293,176,cs),
(296,135,o),
(259,96,o),
(210,96,cs)
);
},
{
closed = 1;
nodes = (
(348,-5,o),
(412,103,o),
(406,187,cs),
(402,260,o),
(339,330,o),
(278,386,cs),
(248,413,ls),
(215,444,o),
(181,472,o),
(177,514,cs),
(173,558,o),
(207,580,o),
(248,580,cs),
(286,580,o),
(335,577,o),
(336,560,cs),
(337,542,o),
(247,467,o),
(179,421,cs),
(56,336,o),
(23,234,o),
(27,168,cs),
(32,95,o),
(80,-5,o),
(211,-5,cs)
);
}
);
vertWidth = 0;
width = 467;
},
{
associatedMasterId = m01;
layerId = "17B06B2B-B116-48A4-AC4F-775D82D63F86";
name = background;
shapes = (
{
closed = 1;
nodes = (
(169,386,l),
(68,308,o),
(44,220,o),
(49,157,cs),
(53,88,o),
(94,-5,o),
(209,-5,cs),
(333,-5,o),
(392,100,o),
(387,177,cs),
(381,247,o),
(322,316,o),
(267,365,cs),
(248,381,l)
);
},
{
closed = 1;
nodes = (
(270,283,o),
(323,226,o),
(327,177,cs),
(330,125,o),
(280,53,o),
(213,53,cs),
(153,53,o),
(110,107,o),
(106,165,cs),
(103,211,o),
(124,274,o),
(210,339,c),
(226,324,ls)
);
},
{
closed = 1;
nodes = (
(342,437,o),
(434,512,o),
(429,580,cs),
(424,644,o),
(334,675,o),
(264,675,cs),
(177,675,o),
(77,628,o),
(84,525,cs),
(89,459,o),
(137,416,o),
(169,384,c),
(219,415,l),
(189,441,o),
(149,481,o),
(145,531,cs),
(140,599,o),
(208,615,o),
(257,615,cs),
(299,615,o),
(372,602,o),
(373,580,cs),
(375,549,o),
(253,438,o),
(168,383,c),
(251,371,l)
);
}
);
vertWidth = 0;
width = 594;
},
{
associatedMasterId = m002;
layerId = "3A43D3D9-B7DD-4689-98D8-2B28EB64DF08";
name = background;
shapes = (
{
closed = 1;
nodes = (
(157,409,l),
(46,327,o),
(19,234,o),
(24,168,cs),
(29,95,o),
(76,-5,o),
(208,-5,cs),
(345,-5,o),
(409,103,o),
(403,187,cs),
(398,260,o),
(337,333,o),
(282,381,cs),
(253,405,l)
);
},
{
closed = 0;
nodes = (
(214,296,l),
(229,280,o),
(284,227,o),
(287,176,cs),
(290,135,o),
(255,96,o),
(207,96,cs),
(168,96,o),
(141,128,o),
(139,176,cs),
(137,210,o),
(149,253,o),
(207,302,c)
);
},
{
closed = 0;
nodes = (
(260,405,l),
(236,430,o),
(179,463,o),
(176,514,cs),
(172,558,o),
(203,580,o),
(245,580,cs),
(283,580,o),
(329,577,o),
(330,560,cs),
(331,542,o),
(240,465,o),
(172,422,c)
);
},
{
closed = 0;
nodes = (
(255,341,l),
(348,407,o),
(449,481,o),
(443,561,cs),
(437,640,o),
(330,676,o),
(257,676,cs),
(165,676,o),
(51,625,o),
(59,508,cs),
(65,422,o),
(138,371,o),
(165,347,c)
);
}
);
vertWidth = 0;
width = 594;
}
);
unicode = 56;
},
{
color = 6;
glyphname = nine;
layers = (
{
layerId = m01;
shapes = (
{
closed = 1;
nodes = (
(296,0,o),
(310,10,o),
(312,29,cs),
(379,649,ls),
(380,663,o),
(372,675,o),
(358,675,cs),
(321,675,l),
(253,29,ls),
(251,10,o),
(266,0,o),
(280,0,cs)
);
},
{
closed = 1;
nodes = (
(51,283,o),
(105,254,o),
(153,254,cs),
(206,254,o),
(265,310,o),
(303,384,c),
(316,536,l),
(307,536,l),
(297,412,o),
(197,314,o),
(153,314,cs),
(120,314,o),
(110,350,o),
(110,384,cs),
(110,474,o),
(146,615,o),
(234,615,cs),
(352,615,l),
(358,675,l),
(234,675,ls),
(100,675,o),
(51,505,o),
(51,372,cs)
);
}
);
vertWidth = 0;
width = 421;
},
{
layerId = m002;
shapes = (
{
closed = 1;
nodes = (
(321,-6,o),
(352,12,o),
(355,43,cs),
(418,628,ls),
(422,659,o),
(403,675,o),
(364,675,cs),
(305,675,l),
(240,51,ls),
(236,13,o),
(267,-6,o),
(293,-6,cs)
);
},
{
closed = 1;
nodes = (
(17,287,o),
(102,254,o),
(160,254,cs),
(201,254,o),
(252,286,o),
(283,324,c),
(307,506,l),
(296,506,l),
(290,442,o),
(206,358,o),
(172,358,cs),
(156,358,o),
(145,377,o),
(147,399,cs),
(153,454,o),
(165,573,o),
(235,573,c),
(308,573,l),
(318,675,l),
(255,675,l),
(101,675,o),
(44,536,o),
(30,402,cs)
);
}
);
vertWidth = 0;
width = 463;
}
);
unicode = 57;
},
{
color = 6;
glyphname = zero.sc;
layers = (
{
layerId = m01;
shapes = (
{
closed = 1;
nodes = (
(246,0,o),
(368,187,o),
(359,328,cs),
(354,390,o),
(324,470,o),
(232,470,cs),
(75,470,o),
(30,233,o),
(37,137,cs),
(42,72,o),
(74,-1,o),
(141,-1,cs)
);
},
{
closed = 1;
nodes = (
(119,56,o),
(100,80,o),
(96,132,cs),
(90,229,o),
(138,413,o),
(239,413,cs),
(283,413,o),
(296,374,o),
(299,330,cs),
(309,181,o),
(185,56,o),
(138,56,cs)
);
}
);
vertWidth = 0;
width = 394;
},
{
layerId = m002;
shapes = (
{
closed = 1;
nodes = (
(269,0,o),
(385,181,o),
(375,317,cs),
(372,379,o),
(337,470,o),
(231,470,cs),
(68,470,o),
(26,239,o),
(32,149,cs),
(37,84,o),
(72,-1,o),
(155,-1,cs)
);
},
{
closed = 1;
nodes = (
(145,103,o),
(140,112,o),
(139,144,cs),
(133,227,o),
(169,366,o),
(241,366,cs),
(258,366,o),
(265,352,o),
(267,320,cs),
(275,197,o),
(179,103,o),
(154,103,c)
);
}
);
vertWidth = 0;
width = 420;
}
);
metricLeft = zero;
metricRight = zero;
},
{
color = 6;
glyphname = one.sc;
layers = (
{
layerId = m01;
shapes = (
{
closed = 1;
nodes = (
(190,460,o),
(173,470,o),
(159,470,cs),
(145,470,o),
(129,462,o),
(127,443,cs),
(83,31,ls),
(81,10,o),
(97,0,o),
(113,0,cs),
(125,0,o),
(141,6,o),
(144,25,cs),
(188,441,ls)
);
}
);
vertWidth = 0;
width = 277;
},
{
layerId = m002;
shapes = (
{
closed = 1;
nodes = (
(214,460,o),
(176,470,o),
(157,470,cs),
(138,470,o),
(101,462,o),
(96,422,cs),
(57,51,ls),
(52,10,o),
(90,0,o),
(110,0,cs),
(127,0,o),
(165,6,o),
(169,45,cs),
(209,419,ls)
);
}
);
vertWidth = 0;
width = 260;
}
);
metricLeft = one;
metricRight = one;
},
{
color = 6;
glyphname = two.sc;
layers = (
{
layerId = m01;
shapes = (
{
closed = 1;
nodes = (
(75,40,l),
(115,94,o),
(210,213,o),
(221,226,cs),
(316,350,o),
(322,412,o),
(248,454,cs),
(187,491,o),
(87,462,o),
(38,418,cs),
(17,398,o),
(20,384,o),
(31,372,cs),
(41,362,o),
(61,359,o),
(83,379,cs),
(121,412,o),
(190,425,o),
(224,405,cs),
(257,386,o),
(224,327,o),
(187,278,cs),
(168,253,o),
(90,160,o),
(-8,40,cs),
(-27,18,o),
(-11,0,o),
(14,0,cs),
(35,0,l)
);
},
{
closed = 1;
nodes = (
(232,0,ls),
(256,0,o),
(262,17,o),
(260,29,cs),
(260,40,o),
(252,57,o),
(228,57,cs),
(25,57,l),
(29,0,l)
);
}
);
vertWidth = 0;
width = 321;
},
{
layerId = m002;
shapes = (
{
closed = 1;
nodes = (
(132,45,l),
(169,93,o),
(253,198,o),
(261,209,cs),
(354,330,o),
(361,403,o),
(276,453,cs),
(208,492,o),
(105,462,o),
(55,417,cs),
(24,388,o),
(27,362,o),
(48,339,cs),
(65,320,o),
(107,314,o),
(137,342,cs),
(165,367,o),
(207,374,o),
(220,366,cs),
(230,360,o),
(213,331,o),
(183,290,cs),
(165,267,o),
(97,187,o),
(11,81,cs),
(-20,42,o),
(11,0,o),
(57,0,cs),
(87,0,l)
);
},
{
closed = 1;
nodes = (
(249,0,ls),
(285,0,o),
(304,26,o),
(303,52,cs),
(301,78,o),
(278,105,o),
(242,105,cs),
(69,105,l),
(76,0,l)
);
}
);
vertWidth = 0;
width = 381;
}
);
metricLeft = two;
metricRight = two;
},
{
color = 6;
glyphname = three.sc;
layers = (
{
layerId = m01;
shapes = (
{
closed = 1;
nodes = (
(128,233,o),
(158,241,o),
(181,241,cs),
(222,241,o),
(235,217,o),
(238,187,cs),
(242,110,o),
(160,53,o),
(93,53,cs),
(75,53,o),
(62,57,o),
(48,68,cs),
(23,84,o),
(5,70,o),
(1,64,cs),
(-5,56,o),
(-11,43,o),
(18,21,cs),
(39,5,o),
(68,-4,o),
(96,-4,cs),
(191,-4,o),
(304,81,o),
(297,187,cs),
(292,253,o),
(246,297,o),
(173,297,cs),
(141,297,o),
(103,289,o),
(65,268,c),
(87,214,l)
);
},
{
closed = 1;
nodes = (
(190,284,o),
(283,353,o),
(279,406,cs),
(277,446,o),
(235,470,o),
(185,470,cs),
(146,470,o),
(95,455,o),
(50,424,cs),
(27,409,o),
(32,390,o),
(39,381,c),
(44,369,o),
(65,361,o),
(80,372,cs),
(126,405,o),
(166,417,o),
(194,417,cs),
(213,417,o),
(220,413,o),
(220,406,cs),
(221,385,o),
(124,307,o),
(59,265,cs),
(43,253,o),
(48,235,o),
(51,227,cs),
(56,216,o),
(80,206,o),
(96,217,cs)
);
}
);
vertWidth = 0;
width = 336;
},
{
layerId = m002;
shapes = (
{
closed = 1;
nodes = (
(125,207,o),
(148,215,o),
(165,215,cs),
(181,215,o),
(189,209,o),
(190,189,cs),
(194,141,o),
(140,102,o),
(98,102,cs),
(79,102,o),
(73,107,o),
(63,113,cs),
(33,133,o),
(-5,118,o),
(-15,100,cs),
(-28,78,o),
(-32,51,o),
(5,23,cs),
(29,5,o),
(63,-5,o),
(96,-5,cs),
(195,-5,o),
(309,84,o),
(302,194,cs),
(296,267,o),
(243,314,o),
(162,314,cs),
(124,314,o),
(82,301,o),
(47,284,c),
(117,201,l)
);
},
{
closed = 1;
nodes = (
(199,259,o),
(291,322,o),
(286,386,cs),
(284,432,o),
(238,470,o),
(171,470,cs),
(131,470,o),
(79,454,o),
(36,424,cs),
(4,403,o),
(5,373,o),
(17,352,cs),
(31,326,o),
(67,320,o),
(92,339,cs),
(130,366,o),
(158,383,o),
(172,386,cs),
(181,388,o),
(183,386,o),
(178,378,cs),
(171,365,o),
(105,315,o),
(45,284,cs),
(20,271,o),
(18,242,o),
(28,221,cs),
(39,195,o),
(86,178,o),
(114,200,cs)
);
}
);
vertWidth = 0;
width = 359;
}
);
metricLeft = three;
metricRight = three;
},
{
color = 6;
glyphname = four.sc;
layers = (
{
layerId = m01;
shapes = (
{
closed = 1;
nodes = (
(140,460,o),
(124,470,o),
(108,470,cs),
(96,470,o),
(81,463,o),
(78,444,cs),
(44,138,l),
(44,122,o),
(56,108,o),
(76,108,cs),
(95,108,o),
(103,122,o),
(103,135,c),
(138,438,ls)
);
},
{
closed = 1;
nodes = (
(242,251,o),
(229,263,o),
(216,266,cs),
(201,268,o),
(184,260,o),
(182,240,cs),
(158,34,ls),
(156,13,o),
(170,0,o),
(187,0,cs),
(198,0,o),
(216,7,o),
(217,27,cs),
(240,232,ls)
);
},
{
closed = 1;
nodes = (
(316,108,ls),
(335,108,o),
(346,122,o),
(345,135,cs),
(343,149,o),
(331,160,o),
(312,160,cs),
(64,160,l),
(68,108,l)
);
}
);
vertWidth = 0;
width = 339;
},
{
layerId = m002;
shapes = (
{
closed = 1;
nodes = (
(178,447,o),
(146,470,o),
(115,470,cs),
(90,470,o),
(64,455,o),
(61,425,cs),
(30,153,ls),
(26,122,o),
(55,95,o),
(89,95,cs),
(120,95,o),
(139,118,o),
(141,145,cs),
(173,410,ls)
);
},
{
closed = 1;
nodes = (
(297,259,o),
(272,286,o),
(248,289,cs),
(219,292,o),
(184,279,o),
(181,245,cs),
(159,63,ls),
(156,27,o),
(183,0,o),
(214,0,cs),
(239,0,o),
(268,14,o),
(272,46,cs),
(293,227,ls)
);
},
{
closed = 1;
nodes = (
(326,95,ls),
(358,95,o),
(381,120,o),
(379,147,cs),
(378,175,o),
(350,196,o),
(318,196,cs),
(78,196,l),
(86,95,l)
);
}
);
vertWidth = 0;
width = 399;
}
);
metricLeft = four;
metricRight = four;
},
{
color = 6;
glyphname = five.sc;
layers = (
{
layerId = m01;
shapes = (
{
closed = 1;
nodes = (
(109,238,o),
(132,242,o),
(154,242,cs),
(211,242,o),
(236,207,o),
(239,177,cs),
(241,129,o),
(191,52,o),
(120,52,cs),
(101,52,o),
(87,59,o),
(76,68,cs),
(69,75,o),
(58,77,o),
(51,77,cs),
(37,77,o),
(24,67,o),
(25,52,cs),
(25,45,o),
(31,34,o),
(40,25,c),
(61,8,o),
(89,-5,o),
(124,-5,cs),
(233,-5,o),
(303,106,o),
(298,178,cs),
(293,241,o),
(234,299,o),
(146,299,cs),
(121,299,o),
(97,295,o),
(65,284,c),
(75,228,l)
);
},
{
closed = 1;
nodes = (
(105,469,l),
(97,473,o),
(82,468,o),
(77,462,c),
(70,459,o),
(67,450,o),
(65,442,c),
(45,257,ls),
(43,240,o),
(58,229,o),
(76,229,cs),
(89,229,o),
(105,238,o),
(106,254,cs),
(125,441,l)
);
},
{
closed = 1;
nodes = (
(297,418,ls),
(318,418,o),
(327,430,o),
(326,443,cs),
(324,455,o),
(316,470,o),
(293,470,cs),
(89,470,l),
(93,418,l)
);
}
);
vertWidth = 0;
width = 351;
},
{
layerId = m002;
shapes = (
{
closed = 1;
nodes = (
(112,210,o),
(126,217,o),
(153,214,cs),
(179,210,o),
(190,203,o),
(191,179,cs),
(194,150,o),
(162,101,o),
(126,101,cs),
(103,101,o),
(97,106,o),
(89,110,cs),
(81,116,o),
(67,122,o),
(45,122,cs),
(26,122,o),
(0,101,o),
(1,80,cs),
(2,62,o),
(8,44,o),
(24,31,cs),
(45,12,o),
(81,-5,o),
(121,-5,cs),
(236,-5,o),
(309,109,o),
(303,185,cs),
(298,255,o),
(232,320,o),
(138,320,cs),
(106,320,o),
(71,310,o),
(64,308,c),
(89,204,l)
);
},
{
closed = 1;
nodes = (
(124,463,l),
(97,476,o),
(69,470,o),
(56,457,cs),
(46,449,o),
(39,436,o),
(38,423,cs),
(20,259,ls),
(17,227,o),
(45,203,o),
(78,203,cs),
(103,203,o),
(131,220,o),
(133,247,cs),
(151,422,l)
);
},
{
closed = 1;
nodes = (
(274,369,ls),
(309,369,o),
(329,392,o),
(327,419,cs),
(326,446,o),
(303,470,o),
(267,470,cs),
(94,470,l),
(101,369,l)
);
}
);
vertWidth = 0;
width = 333;
}
);
metricLeft = five;
metricRight = five;
},
{
color = 6;
glyphname = six.sc;
layers = (
{
layerId = m01;
shapes = (
{
closed = 1;
nodes = (
(83,164,o),
(107,227,o),
(157,308,cs),
(176,339,o),
(209,379,o),
(265,419,cs),
(275,425,o),
(279,436,o),
(279,447,cs),
(278,460,o),
(266,470,o),
(249,470,cs),
(243,470,o),
(236,469,o),
(229,465,cs),
(191,442,o),
(129,375,o),
(103,337,cs),
(53,257,o),
(25,169,o),
(33,86,c),
(91,86,l)
);
},
{
closed = 1;
nodes = (
(35,43,o),
(81,-5,o),
(141,-5,cs),
(228,-5,o),
(309,119,o),
(303,208,cs),
(298,265,o),
(262,293,o),
(201,293,cs),
(127,293,o),
(76,252,o),
(51,201,c),
(32,96,l)
);
},
{
closed = 1;
nodes = (
(113,52,o),
(92,69,o),
(89,112,cs),
(85,172,o),
(126,236,o),
(203,236,cs),
(231,236,o),
(243,229,o),
(245,204,cs),
(249,144,o),
(186,52,o),
(136,52,cs)
);
}
);
vertWidth = 0;
width = 363;
},
{
layerId = m002;
shapes = (
{
closed = 1;
nodes = (
(106,158,o),
(129,208,o),
(178,287,cs),
(195,314,o),
(220,340,o),
(266,373,cs),
(282,384,o),
(291,402,o),
(290,421,cs),
(289,447,o),
(263,470,o),
(233,470,cs),
(222,470,o),
(210,467,o),
(198,459,cs),
(159,435,o),
(105,380,o),
(81,345,cs),
(27,260,o),
(6,188,o),
(13,109,c),
(119,109,l)
);
},
{
closed = 1;
nodes = (
(15,56,o),
(68,-5,o),
(140,-5,cs),
(238,-5,o),
(317,125,o),
(310,214,cs),
(305,280,o),
(259,317,o),
(188,317,cs),
(108,317,o),
(53,268,o),
(30,217,c),
(12,115,l)
);
},
{
closed = 1;
nodes = (
(129,100,o),
(122,112,o),
(121,134,cs),
(119,175,o),
(143,213,o),
(183,213,cs),
(197,213,o),
(201,208,o),
(202,194,cs),
(204,158,o),
(165,100,o),
(141,100,cs)
);
}
);
vertWidth = 0;
width = 364;
}
);
metricLeft = six;
metricRight = six;
},
{
color = 6;
glyphname = seven.sc;
layers = (
{
layerId = m01;
shapes = (
{
closed = 1;
nodes = (
(265,455,o),
(255,470,o),
(232,470,cs),
(221,470,o),
(207,462,o),
(206,448,cs),
(160,31,ls),
(158,10,o),
(172,0,o),
(188,0,cs),
(201,0,o),
(217,8,o),
(219,29,cs),
(263,442,l)
);
},
{
closed = 1;
nodes = (
(242,470,l),
(36,470,ls),
(15,470,o),
(6,456,o),
(7,444,cs),
(8,431,o),
(19,417,o),
(39,417,cs),
(246,417,l)
);
}
);
vertWidth = 0;
width = 313;
},
{
layerId = m002;
shapes = (
{
closed = 1;
nodes = (
(285,442,o),
(263,470,o),
(223,470,cs),
(200,470,o),
(175,454,o),
(172,426,cs),
(133,59,ls),
(128,23,o),
(157,0,o),
(188,0,cs),
(213,0,o),
(240,17,o),
(244,48,cs),
(283,413,ls)
);
},
{
closed = 1;
nodes = (
(225,470,l),
(50,470,ls),
(17,470,o),
(-5,447,o),
(-4,421,cs),
(-1,393,o),
(24,368,o),
(57,368,cs),
(232,368,l)
);
}
);
vertWidth = 0;
width = 346;
}
);
metricLeft = seven;
metricRight = seven;
},
{
color = 6;
glyphname = eight.sc;
layers = (
{
layerId = m01;
shapes = (
{
closed = 1;
nodes = (
(112,274,l),
(39,219,o),
(23,157,o),
(25,112,cs),
(29,63,o),
(59,-5,o),
(143,-5,cs),
(232,-5,o),
(276,70,o),
(272,126,cs),
(268,175,o),
(226,222,o),
(188,258,cs),
(172,272,l)
);
},
{
closed = 1;
nodes = (
(177,191,o),
(210,156,o),
(213,126,cs),
(214,94,o),
(184,52,o),
(144,52,cs),
(109,52,o),
(86,81,o),
(83,118,cs),
(81,147,o),
(93,183,o),
(144,222,c),
(147,219,ls)
);
},
{
closed = 1;
nodes = (
(238,292,o),
(303,346,o),
(299,396,cs),
(296,444,o),
(228,470,o),
(178,470,cs),
(116,470,o),
(44,435,o),
(50,359,cs),
(53,308,o),
(94,273,o),
(115,254,c),
(163,284,l),
(143,302,o),
(112,327,o),
(109,364,cs),
(106,403,o),
(144,413,o),
(175,413,cs),
(203,413,o),
(242,404,o),
(244,396,cs),
(245,377,o),
(156,299,o),
(102,270,c),
(172,247,l)
);
}
);
vertWidth = 0;
width = 320;
},
{
layerId = m002;
shapes = (
{
closed = 1;
nodes = (
(125,291,l),
(46,234,o),
(24,172,o),
(27,126,cs),
(31,76,o),
(64,-4,o),
(159,-4,cs),
(255,-4,o),
(301,78,o),
(297,139,cs),
(293,190,o),
(245,234,o),
(209,267,cs),
(188,287,l)
);
},
{
closed = 1;
nodes = (
(151,197,o),
(200,163,o),
(202,139,cs),
(203,118,o),
(179,93,o),
(157,93,cs),
(140,93,o),
(124,106,o),
(121,131,cs),
(120,153,o),
(137,175,o),
(158,191,c),
(157,192,ls)
);
},
{
closed = 1;
nodes = (
(246,265,o),
(326,317,o),
(322,377,cs),
(317,438,o),
(240,470,o),
(187,470,cs),
(122,470,o),
(43,429,o),
(49,345,cs),
(52,289,o),
(96,252,o),
(131,221,c),
(209,267,l),
(192,295,o),
(145,316,o),
(143,349,cs),
(141,366,o),
(162,386,o),
(185,386,cs),
(203,386,o),
(225,383,o),
(226,375,cs),
(226,367,o),
(192,345,o),
(95,267,c),
(185,222,l)
);
}
);
vertWidth = 0;
width = 342;
}
);
metricLeft = eight;
metricRight = eight;
},
{
color = 6;
glyphname = nine.sc;
layers = (
{
layerId = m01;
shapes = (
{
closed = 1;
nodes = (
(274,411,l),
(249,353,o),
(170,227,o),
(133,227,cs),
(88,227,o),
(121,346,o),
(138,374,cs),
(158,407,o),
(195,413,o),
(221,413,c),
(288,413,l),
(294,470,l),
(216,470,l),
(167,470,o),
(119,455,o),
(89,407,cs),
(47,335,o),
(16,170,o),
(133,170,cs),
(188,170,o),
(245,232,o),
(280,297,c),
(288,411,l)
);
},
{
closed = 1;
nodes = (
(340,460,o),
(328,470,o),
(313,470,cs),
(280,470,l),
(234,27,ls),
(231,8,o),
(248,0,o),
(264,0,cs),
(277,0,o),
(291,7,o),
(293,25,cs),
(337,442,ls)
);
}
);
vertWidth = 0;
width = 379;
},
{
layerId = m002;
shapes = (
{
closed = 1;
nodes = (
(235,374,l),
(216,339,o),
(182,295,o),
(168,280,cs),
(129,234,o),
(115,310,o),
(147,361,cs),
(159,380,o),
(192,378,o),
(204,378,cs),
(245,378,l),
(254,470,l),
(204,470,l),
(156,470,o),
(94,459,o),
(61,407,cs),
(19,331,o),
(0,160,o),
(125,160,cs),
(159,160,o),
(196,184,o),
(228,217,c),
(245,374,l)
);
},
{
closed = 1;
nodes = (
(348,447,o),
(321,470,o),
(291,470,cs),
(240,470,l),
(196,55,ls),
(192,18,o),
(223,0,o),
(251,0,cs),
(274,0,o),
(301,15,o),
(304,44,cs),
(345,413,ls)
);
}
);
vertWidth = 0;
width = 389;
}
);
metricLeft = nine;
metricRight = nine;
},
{
color = 6;
glyphname = .notdef;
layers = (
{
layerId = m01;
shapes = (
{
closed = 1;
nodes = (
(551,0,o),
(563,14,o),
(565,32,cs),
(647,800,ls),
(650,819,o),
(640,832,o),
(624,832,cs),
(153,832,ls),
(133,832,o),
(121,819,o),
(119,800,cs),
(37,32,ls),
(34,14,o),
(45,0,o),
(68,0,cs),
(538,0,ls)
);
},
{
closed = 1;
nodes = (
(177,778,l),
(584,778,l),
(508,53,l),
(100,53,l)
);
}
);
vertWidth = 0;
width = 684;
},
{
layerId = m002;
shapes = (
{
closed = 1;
nodes = (
(600,0,o),
(625,31,o),
(628,58,cs),
(704,783,ls),
(708,816,o),
(689,832,o),
(645,832,c),
(194,832,l),
(160,832,o),
(137,816,o),
(133,783,cs),
(57,58,ls),
(53,25,o),
(71,0,o),
(118,0,cs),
(570,0,ls)
);
},
{
closed = 1;
nodes = (
(248,719,l),
(577,719,l),
(512,113,l),
(183,113,l)
);
}
);
vertWidth = 0;
width = 759;
}
);
},
{
color = 6;
glyphname = period;
kernLeft = period_left;
kernRight = period_right;
layers = (
{
layerId = m01;
shapes = (
{
closed = 1;
nodes = (
(84,-7,o),
(105,17,o),
(105,39,cs),
(105,64,o),
(84,83,o),
(61,83,cs),
(39,83,o),
(17,64,o),
(17,39,cs),
(17,17,o),
(39,-7,o),
(61,-7,cs)
);
}
);
vertWidth = 0;
width = 195;
},
{
layerId = m002;
shapes = (
{
closed = 1;
nodes = (
(138,-14,o),
(169,17,o),
(169,52,cs),
(169,87,o),
(138,116,o),
(103,116,cs),
(67,116,o),
(38,87,o),
(38,52,cs),
(38,18,o),
(67,-14,o),
(103,-14,cs)
);
}
);
vertWidth = 0;
width = 274;
}
);
unicode = 46;
},
{
color = 6;
glyphname = comma;
kernLeft = period_left;
kernRight = period_right;
layers = (
{
layerId = m01;
shapes = (
{
closed = 1;
nodes = (
(64,-120,o),
(76,-108,o),
(78,-84,cs),
(90,21,ls),
(93,46,o),
(84,59,o),
(64,59,cs),
(44,59,o),
(33,48,o),
(31,25,cs),
(19,-84,ls),
(17,-108,o),
(25,-120,o),
(44,-120,cs)
);
}
);
vertWidth = 0;
width = 195;
},
{
layerId = m002;
shapes = (
{
closed = 1;
nodes = (
(105,-125,o),
(139,-107,o),
(143,-71,cs),
(156,46,ls),
(159,84,o),
(133,108,o),
(100,112,cs),
(70,115,o),
(39,99,o),
(36,64,cs),
(24,-53,ls),
(20,-90,o),
(46,-115,o),
(76,-120,cs)
);
}
);
vertWidth = 0;
width = 264;
}
);
unicode = 44;
},
{
color = 6;
glyphname = colon;
kernLeft = colon_left;
kernRight = colon_right;
layers = (
{
layerId = m01;
shapes = (
{
closed = 1;
nodes = (
(84,-7,o),
(105,17,o),
(105,39,cs),
(105,64,o),
(84,83,o),
(61,83,cs),
(39,83,o),
(17,64,o),
(17,39,cs),
(17,17,o),
(39,-7,o),
(61,-7,cs)
);
},
{
closed = 1;
nodes = (
(120,261,o),
(140,285,o),
(140,308,cs),
(140,333,o),
(120,352,o),
(96,352,cs),
(75,352,o),
(52,333,o),
(52,308,cs),
(52,285,o),
(75,261,o),
(96,261,cs)
);
}
);
vertWidth = 0;
width = 196;
},
{
layerId = m002;
shapes = (
{
closed = 1;
nodes = (
(138,-14,o),
(169,17,o),
(169,52,cs),
(169,88,o),
(138,116,o),
(102,118,cs),
(65,118,o),
(38,88,o),
(38,53,cs),
(38,19,o),
(65,-13,o),
(102,-14,cs)
);
},
{
closed = 1;
nodes = (
(181,255,o),
(211,287,o),
(211,323,cs),
(211,358,o),
(181,386,o),
(146,387,cs),
(109,387,o),
(81,356,o),
(81,323,cs),
(81,290,o),
(109,257,o),
(145,255,cs)
);
}
);
vertWidth = 0;
width = 276;
}
);
unicode = 58;
},
{
color = 6;
glyphname = semicolon;
kernLeft = colon_left;
kernRight = colon_right;
layers = (
{
layerId = m01;
shapes = (
{
closed = 1;
nodes = (
(64,-120,o),
(76,-108,o),
(78,-84,cs),
(90,21,ls),
(93,46,o),
(84,59,o),
(64,59,cs),
(44,59,o),
(33,48,o),
(31,25,cs),
(19,-84,ls),
(17,-108,o),
(25,-120,o),
(44,-120,cs)
);
},
{
closed = 1;
nodes = (
(120,261,o),
(140,285,o),
(140,308,cs),
(140,333,o),
(120,352,o),
(96,352,cs),
(75,352,o),
(52,333,o),
(52,308,cs),
(52,285,o),
(75,261,o),
(96,261,cs)
);
}
);
vertWidth = 0;
width = 196;
},
{
layerId = m002;
shapes = (
{
closed = 1;
nodes = (
(122,-124,o),
(152,-106,o),
(156,-71,cs),
(169,46,ls),
(173,84,o),
(146,108,o),
(113,112,cs),
(83,115,o),
(52,99,o),
(49,64,cs),
(37,-53,ls),
(32,-93,o),
(63,-119,o),
(95,-121,cs)
);
},
{
closed = 1;
nodes = (
(181,255,o),
(211,287,o),
(211,323,cs),
(211,358,o),
(181,386,o),
(146,387,cs),
(109,387,o),
(81,356,o),
(81,323,cs),
(81,290,o),
(109,257,o),
(145,255,cs)
);
}
);
vertWidth = 0;
width = 274;
}
);
unicode = 59;
},
{
color = 6;
glyphname = ellipsis;
layers = (
{
layerId = m01;
shapes = (
{
closed = 1;
nodes = (
(342,-36,o),
(362,-14,o),
(360,11,cs),
(359,34,o),
(336,55,o),
(312,55,cs),
(287,55,o),
(270,34,o),
(271,11,cs),
(273,-13,o),
(293,-36,o),
(318,-36,cs)
);
},
{
closed = 1;
nodes = (
(81,-36,o),
(101,-14,o),
(99,11,cs),
(97,34,o),
(75,55,o),
(51,55,cs),
(26,55,o),
(8,34,o),
(10,11,cs),
(12,-13,o),
(32,-36,o),
(57,-36,cs)
);
},
{
closed = 1;
nodes = (
(211,-36,o),
(232,-14,o),
(229,11,cs),
(228,34,o),
(206,55,o),
(182,55,cs),
(157,55,o),
(139,34,o),
(140,11,cs),
(143,-13,o),
(163,-36,o),
(188,-36,cs)
);
}
);
vertWidth = 0;
width = 456;
},
{
layerId = m002;
shapes = (
{
closed = 1;
nodes = (
(481,-37,o),
(511,-7,o),
(508,30,cs),
(506,67,o),
(472,94,o),
(437,94,cs),
(404,94,o),
(375,68,o),
(378,30,cs),
(380,-7,o),
(413,-37,o),
(448,-37,cs)
);
},
{
closed = 1;
nodes = (
(137,-37,o),
(166,-7,o),
(164,30,cs),
(162,67,o),
(127,94,o),
(93,94,cs),
(59,94,o),
(31,68,o),
(33,30,cs),
(36,-7,o),
(69,-37,o),
(103,-37,cs)
);
},
{
closed = 1;
nodes = (
(309,-36,o),
(339,-7,o),
(336,30,cs),
(334,67,o),
(299,94,o),
(266,94,cs),
(232,94,o),
(203,67,o),
(206,30,cs),
(208,-7,o),
(241,-36,o),
(276,-36,cs)
);
}
);
vertWidth = 0;
width = 620;
}
);
unicode = 8230;
},
{
color = 6;
glyphname = exclam;
layers = (
{
layerId = m01;
shapes = (
{
closed = 1;
nodes = (
(120,207,o),
(137,217,o),
(139,240,cs),
(194,747,ls),
(195,764,o),
(183,772,o),
(169,772,cs),
(153,772,o),
(135,764,o),
(133,747,cs),
(78,240,ls),
(76,220,o),
(91,209,o),
(106,208,cs)
);
},
{
closed = 1;
nodes = (
(113,-11,o),
(134,12,o),
(132,36,cs),
(131,59,o),
(107,81,o),
(81,81,cs),
(56,81,o),
(39,58,o),
(40,36,cs),
(42,13,o),
(63,-11,o),
(88,-11,cs)
);
}
);
vertWidth = 0;
width = 265;
},
{
layerId = m002;
shapes = (
{
closed = 1;
nodes = (
(169,206,o),
(202,227,o),
(206,261,cs),
(255,719,ls),
(259,751,o),
(226,772,o),
(197,772,cs),
(171,772,o),
(138,754,o),
(134,726,cs),
(84,268,ls),
(81,234,o),
(112,210,o),
(141,208,cs)
);
},
{
closed = 1;
nodes = (
(159,-13,o),
(194,20,o),
(195,56,cs),
(196,93,o),
(160,126,o),
(122,126,cs),
(83,126,o),
(56,90,o),
(56,56,cs),
(56,23,o),
(82,-13,o),
(121,-13,cs)
);
}
);
vertWidth = 0;
width = 321;
}
);
unicode = 33;
},
{
color = 6;
glyphname = exclamdown;
layers = (
{
layerId = m01;
shapes = (
{
closed = 1;
nodes = (
(157,524,o),
(143,535,o),
(127,536,cs),
(113,537,o),
(96,526,o),
(94,504,cs),
(40,25,ls),
(38,7,o),
(52,-1,o),
(68,0,cs),
(82,0,o),
(99,8,o),
(101,25,cs),
(154,504,ls)
);
},
{
closed = 1;
nodes = (
(176,695,o),
(190,714,o),
(189,733,cs),
(188,752,o),
(171,772,o),
(150,772,cs),
(128,772,o),
(110,753,o),
(112,733,cs),
(113,713,o),
(133,695,o),
(154,695,cs)
);
}
);
vertWidth = 0;
width = 233;
},
{
layerId = m002;
shapes = (
{
closed = 1;
nodes = (
(233,514,o),
(201,535,o),
(172,537,cs),
(144,539,o),
(112,519,o),
(109,484,cs),
(63,56,ls),
(59,20,o),
(90,-2,o),
(124,0,cs),
(150,0,o),
(179,17,o),
(182,46,cs),
(228,474,ls)
);
},
{
closed = 1;
nodes = (
(235,642,o),
(259,672,o),
(257,706,cs),
(254,740,o),
(227,772,o),
(190,772,cs),
(154,772,o),
(124,740,o),
(126,706,cs),
(128,672,o),
(163,642,o),
(198,642,cs)
);
}
);
vertWidth = 0;
width = 321;
}
);
unicode = 161;
},
{
color = 6;
glyphname = question;
layers = (
{
layerId = m01;
shapes = (
{
closed = 1;
nodes = (
(106,538,o),
(128,549,o),
(131,575,cs),
(138,643,o),
(178,718,o),
(279,718,cs),
(358,718,o),
(423,676,o),
(416,589,cs),
(407,498,o),
(364,383,o),
(200,383,c),
(200,323,l),
(385,323,o),
(459,434,o),
(474,580,cs),
(486,693,o),
(399,778,o),
(291,777,cs),
(154,777,o),
(84,700,o),
(72,587,cs),
(69,561,o),
(76,545,o),
(89,542,cs)
);
},
{
closed = 1;
nodes = (
(195,-7,o),
(219,14,o),
(219,38,cs),
(219,65,o),
(196,88,o),
(169,88,cs),
(144,88,o),
(124,64,o),
(124,38,cs),
(124,15,o),
(144,-7,o),
(169,-7,cs)
);
},
{
closed = 1;
nodes = (
(201,206,o),
(216,214,o),
(220,240,c),
(233,360,l),
(200,383,l),
(187,383,o),
(173,372,o),
(172,359,cs),
(159,239,ls),
(158,222,o),
(171,210,o),
(185,207,cs)
);
}
);
vertWidth = 0;
width = 499;
},
{
layerId = m002;
shapes = (
{
closed = 1;
nodes = (
(124,507,o),
(164,526,o),
(168,565,cs),
(172,623,o),
(198,671,o),
(272,671,cs),
(333,671,o),
(371,647,o),
(365,599,cs),
(360,545,o),
(348,422,o),
(188,423,c),
(169,317,l),
(378,304,o),
(459,419,o),
(479,584,cs),
(489,685,o),
(394,777,o),
(279,777,cs),
(140,777,o),
(67,696,o),
(55,586,cs),
(49,544,o),
(68,522,o),
(94,516,cs)
);
},
{
closed = 1;
nodes = (
(188,-13,o),
(222,20,o),
(223,56,cs),
(225,93,o),
(189,126,o),
(151,126,cs),
(112,126,o),
(84,90,o),
(84,56,cs),
(84,23,o),
(110,-13,o),
(150,-13,cs)
);
},
{
closed = 1;
nodes = (
(206,203,o),
(232,229,o),
(236,267,c),
(248,372,l),
(188,423,l),
(163,423,o),
(138,406,o),
(135,381,cs),
(124,277,ls),
(120,246,o),
(139,216,o),
(175,209,cs)
);
}
);
vertWidth = 0;
width = 498;
},
{
associatedMasterId = m01;
layerId = "F388DBBC-EFA2-43ED-88E3-B038154D8BDF";
name = background;
shapes = (
{
closed = 1;
nodes = (
(407,323,o),
(481,432,o),
(499,598,cs),
(508,691,o),
(422,777,o),
(314,777,cs),
(177,777,o),
(107,701,o),
(94,588,cs),
(91,562,o),
(99,546,o),
(112,543,cs),
(127,539,o),
(151,550,o),
(153,576,cs),
(160,644,o),
(201,718,o),
(302,718,cs),
(380,718,o),
(447,675,o),
(440,602,cs),
(434,548,o),
(416,383,o),
(223,383,c),
(222,323,l)
);
},
{
closed = 1;
nodes = (
(217,-6,o),
(239,14,o),
(238,37,cs),
(234,63,o),
(213,84,o),
(185,84,cs),
(162,84,o),
(144,62,o),
(146,37,cs),
(147,17,o),
(169,-6,o),
(192,-6,cs)
);
},
{
closed = 1;
nodes = (
(254,368,o),
(245,383,o),
(221,383,cs),
(208,383,o),
(195,373,o),
(194,360,cs),
(181,240,ls),
(179,223,o),
(192,211,o),
(207,208,cs),
(222,206,o),
(238,214,o),
(241,240,cs),
(254,360,ls)
);
}
);
vertWidth = 0;
width = 594;
}
);
unicode = 63;
},
{
color = 6;
glyphname = questiondown;
layers = (
{
layerId = m01;
shapes = (
{
closed = 1;
nodes = (
(141,454,o),
(69,345,o),
(50,179,cs),
(40,86,o),
(127,0,o),
(235,0,cs),
(372,0,o),
(443,76,o),
(455,189,cs),
(457,215,o),
(450,230,o),
(437,234,cs),
(422,238,o),
(399,227,o),
(396,201,cs),
(388,133,o),
(349,59,o),
(248,59,cs),
(170,59,o),
(102,102,o),
(110,175,cs),
(116,229,o),
(133,394,o),
(326,394,c),
(327,454,l)
);
},
{
closed = 1;
nodes = (
(369,554,o),
(358,565,o),
(343,569,cs),
(327,571,o),
(311,563,o),
(308,537,cs),
(295,417,ls),
(295,409,o),
(304,394,o),
(328,394,cs),
(341,394,o),
(354,404,o),
(355,417,cs),
(368,537,ls)
);
},
{
closed = 1;
nodes = (
(384,695,o),
(399,714,o),
(398,735,cs),
(397,753,o),
(379,772,o),
(359,772,cs),
(337,772,o),
(320,754,o),
(321,735,cs),
(322,713,o),
(341,695,o),
(364,695,cs)
);
}
);
vertWidth = 0;
width = 535;
},
{
layerId = m002;
shapes = (
{
closed = 1;
nodes = (
(178,473,o),
(90,352,o),
(72,190,cs),
(63,90,o),
(153,1,o),
(266,1,cs),
(403,1,o),
(482,80,o),
(495,189,cs),
(498,230,o),
(481,252,o),
(456,258,cs),
(426,266,o),
(386,247,o),
(383,208,cs),
(378,152,o),
(352,106,o),
(280,106,cs),
(221,106,o),
(185,128,o),
(191,176,cs),
(196,228,o),
(215,356,o),
(360,343,c),
(386,459,l)
);
},
{
closed = 1;
nodes = (
(431,539,o),
(407,562,o),
(379,569,cs),
(347,575,o),
(312,558,o),
(309,517,cs),
(296,396,ls),
(292,368,o),
(323,343,o),
(360,343,cs),
(386,343,o),
(412,361,o),
(415,387,cs),
(428,508,ls)
);
},
{
closed = 1;
nodes = (
(430,642,o),
(454,675,o),
(451,709,cs),
(449,743,o),
(419,772,o),
(384,772,cs),
(347,772,o),
(318,743,o),
(321,710,cs),
(323,675,o),
(355,642,o),
(393,642,cs)
);
}
);
vertWidth = 0;
width = 577;
}
);
unicode = 191;
},
